<?xml version="1.0" encoding="UTF-8"?>
<svg id="svg_2F_B" data-name="svg_2F_B" xmlns="http://www.w3.org/2000/svg" viewBox="0 0 258 220">
  <defs>
    <style>
      .cls-1 {
        fill: none;
        stroke: #000;
      }
    </style>
  </defs>
  <g id="_2F" data-name="2F">
    <g id="_2f_B" data-name="2f B">
      <rect id="View_2F_B_1_1" style="cursor: pointer; pointer-events: all;" class="cls-1" x=".5" y=".5" width="23.2" height="21.04"/>
      <path d="M12.02,15.93v-6.15h-2.09v-1.11c1.24-.04,2.25-.53,2.45-1.81h1.3v9.07h-1.67Z"/>
      <rect id="View_2F_B_1_2" style="cursor: pointer; pointer-events: all;" class="cls-1" x="23.7" y=".5" width="23.2" height="21.04"/>
      <path d="M31.92,15.93c.04-1.1.39-1.84.96-2.49.76-.85,1.83-1.48,2.72-2.06.84-.53,1.33-.96,1.33-1.78,0-.9-.58-1.5-1.54-1.5-.53,0-.92.16-1.2.48-.32.34-.46.82-.46,1.46h-1.63c0-.96.24-1.64.71-2.22.54-.67,1.47-1.07,2.67-1.07,1.97,0,3.15,1.21,3.15,2.82,0,1.33-.76,1.96-1.75,2.61-.94.72-2.24,1.34-2.78,2.25v.06h4.45v1.44h-6.63Z"/>
      <rect id="View_2F_B_1_3" style="cursor: pointer; pointer-events: all;" class="cls-1" x="46.9" y=".5" width="23.2" height="21.04"/>
      <path d="M58.58,16.15c-1.1,0-1.97-.28-2.63-.8-.68-.56-1.06-1.39-1.08-2.36h1.59c.05,1.09.73,1.83,2.05,1.83,1.08,0,1.77-.54,1.77-1.57,0-.96-.71-1.45-1.95-1.45h-.56v-1.2h.52c1.13,0,1.75-.48,1.75-1.3s-.66-1.3-1.56-1.3c-1.14,0-1.73.74-1.76,1.64h-1.58c.03-1.67,1.25-2.9,3.38-2.9,1.81,0,3.16.93,3.16,2.5,0,.97-.61,1.54-1.52,1.84v.03c1.19.33,1.81,1.09,1.81,2.27,0,1.83-1.54,2.77-3.4,2.77Z"/>
      <rect id="View_2F_B_1_4" style="cursor: pointer; pointer-events: all;" class="cls-1" x="70.09" y=".5" width="23.2" height="21.04"/>
      <path d="M82.54,15.93v-2.11h-4.29v-1.48l4.39-5.51h1.52v5.73h1.39v1.25h-1.39v2.11h-1.62ZM79.44,12.64s.81-.06,1.32-.06h1.78v-2.58c0-.51.06-1.35.06-1.35h-.03s-.47.74-.84,1.21l-1.29,1.63c-.37.44-1.01,1.12-1.01,1.12v.03Z"/>
      <rect id="View_2F_B_1_5" style="cursor: pointer; pointer-events: all;" class="cls-1" x="93.29" y=".5" width="23.2" height="21.04"/>
      <path d="M104.86,16.13c-1.97,0-3.37-1.1-3.49-2.69h1.64c.16.78.76,1.31,1.8,1.31s1.8-.73,1.8-1.82-.77-1.79-1.73-1.79c-.81,0-1.37.33-1.67.71h-1.58l.96-4.91h5.16v1.38h-3.97l-.49,2.31h.03c.47-.49,1.06-.77,1.97-.77,1.58,0,3.02,1.16,3.02,3.09s-1.46,3.18-3.44,3.18Z"/>
      <rect id="View_2F_B_1_6" style="cursor: pointer; pointer-events: all;" class="cls-1" x="116.49" y=".5" width="23.2" height="21.04"/>
      <path d="M128.33,16.15c-1.14,0-2-.4-2.59-1.06-.8-.85-1.13-2.05-1.13-3.65-.01-1.43.3-2.64.97-3.48.63-.78,1.51-1.21,2.73-1.21,1.85,0,2.86,1.1,3.07,2.32h-1.62c-.1-.52-.54-1.07-1.43-1.07-1.43,0-2.08,1.12-2.15,3.16h.03c.54-.83,1.29-1.26,2.33-1.26,1.7,0,3.09,1.33,3.1,3.11.01,1.81-1.43,3.16-3.32,3.16ZM128.28,14.87c1.02,0,1.8-.77,1.8-1.84s-.78-1.86-1.81-1.86c-1.13,0-1.9.74-1.9,1.84s.84,1.86,1.91,1.86Z"/>
      <rect id="View_2F_B_1_7" style="cursor: pointer; pointer-events: all;" class="cls-1" x="139.69" y=".5" width="23.2" height="21.04"/>
      <path d="M149.33,15.93c.16-3.21,1.86-6.12,3.61-7.6v-.03s-.94.06-1.92.06h-2.94v-1.43h6.49v1.3c-1.72,1.6-3.34,4.36-3.48,7.69h-1.76Z"/>
      <rect id="View_2F_B_1_8" style="cursor: pointer; pointer-events: all;" class="cls-1" x="162.88" y=".5" width="23.2" height="21.04"/>
      <path d="M174.51,16.15c-1.95,0-3.62-.92-3.62-2.78,0-1.16.72-1.97,1.87-2.3v-.04c-.96-.32-1.46-.98-1.46-1.87,0-1.46,1.3-2.42,3.18-2.42s3.18.92,3.18,2.4c0,.87-.49,1.55-1.44,1.87v.04c1.18.3,1.86,1.16,1.86,2.29,0,1.89-1.62,2.82-3.57,2.82ZM174.48,10.52c1,0,1.58-.49,1.58-1.28s-.58-1.29-1.58-1.29-1.59.51-1.59,1.29.59,1.28,1.59,1.28ZM174.51,14.86c1.15,0,1.89-.61,1.89-1.57s-.71-1.63-1.9-1.63-1.91.63-1.91,1.63.72,1.57,1.92,1.57Z"/>
      <rect id="View_2F_B_1_9" style="cursor: pointer; pointer-events: all;" class="cls-1" x="186.08" y=".5" width="23.2" height="21.04"/>
      <path d="M197.59,16.15c-1.86,0-3.09-1.07-3.25-2.4h1.63c.11.57.62,1.14,1.58,1.14.63,0,1.1-.21,1.44-.68.38-.48.57-1.26.62-2.37h-.03c-.56.72-1.3,1.16-2.3,1.16-1.75,0-3.15-1.31-3.15-3.12s1.43-3.13,3.39-3.13c.97,0,1.77.3,2.35.8.94.77,1.3,2.03,1.3,3.89,0,1.65-.33,2.98-1.14,3.79-.58.61-1.4.93-2.45.93ZM197.55,11.72c1.14,0,1.9-.76,1.9-1.86s-.82-1.84-1.89-1.84-1.86.77-1.86,1.84.77,1.86,1.85,1.86Z"/>
      <rect id="View_2F_B_1_10" style="cursor: pointer; pointer-events: all;" class="cls-1" x="209.28" y=".5" width="23.2" height="21.04"/>
      <path d="M216.68,15.93v-6.15h-2.09v-1.11c1.24-.04,2.25-.53,2.45-1.81h1.3v9.07h-1.67ZM223.32,16.15c-2.26,0-3.73-1.84-3.73-4.71s1.51-4.7,3.75-4.7,3.75,1.79,3.75,4.7-1.43,4.71-3.76,4.71ZM223.33,14.78c1.43,0,2.02-1.3,2.02-3.35s-.62-3.36-2.02-3.36-2.02,1.33-2.02,3.36.63,3.35,2.02,3.35Z"/>
      <rect id="View_2F_B_1_11" style="cursor: pointer; pointer-events: all;" class="cls-1" x="232.48" y=".5" width="23.2" height="21.04"/>
      <path d="M241.54,15.93v-6.15h-2.09v-1.11c1.24-.04,2.25-.53,2.45-1.81h1.3v9.07h-1.67ZM246.44,15.93v-6.15h-2.09v-1.11c1.24-.04,2.25-.53,2.45-1.81h1.3v9.07h-1.67Z"/>
      <rect id="View_2F_B_2_1" style="cursor: pointer; pointer-events: all;" class="cls-1" x="1.06" y="28.56" width="21.23" height="21.04"/>
      <path d="M11.6,43.99v-6.15h-2.09v-1.11c1.24-.04,2.25-.53,2.45-1.81h1.3v9.07h-1.67Z"/>
      <rect id="View_2F_B_2_2" style="cursor: pointer; pointer-events: all;" class="cls-1" x="22.29" y="28.56" width="21.23" height="21.04"/>
      <path d="M29.53,43.99c.04-1.1.39-1.84.96-2.49.76-.85,1.83-1.48,2.72-2.06.84-.53,1.33-.96,1.33-1.78,0-.9-.58-1.5-1.54-1.5-.53,0-.92.16-1.2.48-.32.34-.46.82-.46,1.46h-1.63c0-.96.24-1.64.71-2.22.54-.67,1.47-1.07,2.67-1.07,1.97,0,3.15,1.21,3.15,2.82,0,1.33-.76,1.96-1.75,2.61-.94.72-2.24,1.34-2.78,2.25v.06h4.45v1.44h-6.63Z"/>
      <rect id="View_2F_B_2_3" style="cursor: pointer; pointer-events: all;" class="cls-1" x="43.52" y="28.56" width="21.23" height="21.04"/>
      <path d="M54.22,44.21c-1.1,0-1.97-.28-2.63-.8-.68-.56-1.06-1.39-1.08-2.36h1.59c.05,1.09.73,1.83,2.05,1.83,1.08,0,1.77-.54,1.77-1.57,0-.96-.71-1.45-1.95-1.45h-.56v-1.2h.52c1.13,0,1.75-.48,1.75-1.3s-.66-1.3-1.56-1.3c-1.14,0-1.73.74-1.76,1.64h-1.58c.03-1.67,1.25-2.9,3.38-2.9,1.81,0,3.16.93,3.16,2.5,0,.97-.61,1.54-1.52,1.84v.03c1.19.33,1.81,1.09,1.81,2.27,0,1.83-1.54,2.77-3.4,2.77Z"/>
      <rect id="View_2F_B_2_4" style="cursor: pointer; pointer-events: all;" class="cls-1" x="64.75" y="28.56" width="21.23" height="21.04"/>
      <path d="M76.22,43.99v-2.11h-4.29v-1.48l4.39-5.51h1.52v5.73h1.39v1.25h-1.39v2.11h-1.62ZM73.12,40.7s.81-.06,1.32-.06h1.78v-2.58c0-.51.06-1.35.06-1.35h-.03s-.47.74-.84,1.21l-1.29,1.63c-.37.44-1.01,1.12-1.01,1.12v.03Z"/>
      <rect id="View_2F_B_2_5" style="cursor: pointer; pointer-events: all;" class="cls-1" x="85.98" y="28.56" width="21.23" height="21.04"/>
      <path d="M96.56,44.19c-1.97,0-3.37-1.1-3.49-2.69h1.64c.16.78.76,1.31,1.8,1.31s1.8-.73,1.8-1.82-.77-1.79-1.73-1.79c-.81,0-1.37.33-1.67.71h-1.58l.96-4.91h5.16v1.38h-3.97l-.49,2.31h.03c.47-.49,1.06-.77,1.97-.77,1.58,0,3.02,1.16,3.02,3.09s-1.46,3.18-3.44,3.18Z"/>
      <rect id="View_2F_B_2_6" style="cursor: pointer; pointer-events: all;" class="cls-1" x="107.21" y="28.56" width="21.23" height="21.04"/>
      <path d="M118.07,44.21c-1.14,0-2-.4-2.59-1.06-.8-.85-1.13-2.05-1.13-3.65-.01-1.43.3-2.64.97-3.48.63-.78,1.51-1.21,2.73-1.21,1.85,0,2.86,1.1,3.07,2.32h-1.62c-.1-.52-.54-1.07-1.43-1.07-1.43,0-2.08,1.12-2.15,3.16h.03c.54-.83,1.29-1.26,2.33-1.26,1.7,0,3.09,1.33,3.1,3.11.01,1.81-1.43,3.16-3.32,3.16ZM118.02,42.93c1.02,0,1.8-.77,1.8-1.84s-.78-1.86-1.81-1.86c-1.13,0-1.9.74-1.9,1.84s.84,1.86,1.91,1.86Z"/>
      <rect id="View_2F_B_2_7" style="cursor: pointer; pointer-events: all;" class="cls-1" x="128.44" y="28.56" width="21.23" height="21.04"/>
      <path d="M137.1,43.99c.16-3.21,1.86-6.12,3.61-7.6v-.03s-.94.06-1.92.06h-2.94v-1.43h6.49v1.3c-1.72,1.6-3.34,4.36-3.48,7.69h-1.76Z"/>
      <rect id="View_2F_B_2_8" style="cursor: pointer; pointer-events: all;" class="cls-1" x="149.67" y="28.56" width="21.23" height="21.04"/>
      <path d="M160.31,44.21c-1.95,0-3.62-.92-3.62-2.78,0-1.16.72-1.97,1.87-2.3v-.04c-.96-.32-1.46-.98-1.46-1.87,0-1.46,1.3-2.42,3.18-2.42s3.18.92,3.18,2.4c0,.87-.49,1.55-1.44,1.87v.04c1.18.3,1.86,1.16,1.86,2.29,0,1.89-1.62,2.82-3.57,2.82ZM160.28,38.58c1,0,1.58-.49,1.58-1.28s-.58-1.29-1.58-1.29-1.59.51-1.59,1.29.59,1.28,1.59,1.28ZM160.31,42.92c1.15,0,1.89-.61,1.89-1.57s-.71-1.63-1.9-1.63-1.91.63-1.91,1.63.72,1.57,1.92,1.57Z"/>
      <rect id="View_2F_B_2_9" style="cursor: pointer; pointer-events: all;" class="cls-1" x="170.9" y="28.56" width="21.23" height="21.04"/>
      <path d="M181.42,44.21c-1.86,0-3.09-1.07-3.25-2.4h1.63c.11.57.62,1.14,1.58,1.14.63,0,1.1-.21,1.44-.68.38-.48.57-1.26.62-2.37h-.03c-.56.72-1.3,1.16-2.3,1.16-1.75,0-3.15-1.31-3.15-3.12s1.43-3.13,3.39-3.13c.97,0,1.77.3,2.35.8.94.77,1.3,2.03,1.3,3.89,0,1.65-.33,2.98-1.14,3.79-.58.61-1.4.93-2.45.93ZM181.38,39.77c1.14,0,1.9-.76,1.9-1.86s-.82-1.84-1.89-1.84-1.86.77-1.86,1.84.77,1.86,1.85,1.86Z"/>
      <rect id="View_2F_B_2_10" style="cursor: pointer; pointer-events: all;" class="cls-1" x="192.13" y="28.56" width="21.23" height="21.04"/>
      <path d="M198.55,43.99v-6.15h-2.09v-1.11c1.24-.04,2.25-.53,2.45-1.81h1.3v9.07h-1.67ZM205.18,44.21c-2.26,0-3.73-1.84-3.73-4.71s1.51-4.7,3.75-4.7,3.75,1.79,3.75,4.7-1.43,4.71-3.76,4.71ZM205.19,42.84c1.43,0,2.02-1.3,2.02-3.35s-.62-3.36-2.02-3.36-2.02,1.33-2.02,3.36.63,3.35,2.02,3.35Z"/>
      <rect id="View_2F_B_2_11" style="cursor: pointer; pointer-events: all;" class="cls-1" x="213.36" y="28.56" width="21.23" height="21.04"/>
      <path d="M221.44,43.99v-6.15h-2.09v-1.11c1.24-.04,2.25-.53,2.45-1.81h1.3v9.07h-1.67ZM226.34,43.99v-6.15h-2.09v-1.11c1.24-.04,2.25-.53,2.45-1.81h1.3v9.07h-1.67Z"/>
      <rect id="View_2F_B_2_12" style="cursor: pointer; pointer-events: all;" class="cls-1" x="234.59" y="28.56" width="21.23" height="21.04"/>
      <path d="M241.49,43.99v-6.15h-2.09v-1.11c1.24-.04,2.25-.53,2.45-1.81h1.3v9.07h-1.67ZM244.27,43.99c.04-1.1.39-1.84.96-2.49.76-.85,1.83-1.48,2.72-2.06.84-.53,1.33-.96,1.33-1.78,0-.9-.58-1.5-1.54-1.5-.53,0-.92.16-1.2.48-.32.34-.46.82-.46,1.46h-1.63c0-.96.24-1.64.71-2.22.54-.67,1.47-1.07,2.67-1.07,1.97,0,3.15,1.21,3.15,2.82,0,1.33-.76,1.96-1.75,2.61-.94.72-2.24,1.34-2.78,2.25v.06h4.45v1.44h-6.63Z"/>
      <rect id="View_2F_B_3_1" style="cursor: pointer; pointer-events: all;" class="cls-1" x=".5" y="56.62" width="18.28" height="21.04"/>
      <path d="M9.56,72.05v-6.15h-2.09v-1.11c1.24-.04,2.25-.53,2.45-1.81h1.3v9.07h-1.67Z"/>
      <rect id="View_2F_B_3_2" style="cursor: pointer; pointer-events: all;" class="cls-1" x="18.78" y="56.62" width="18.28" height="21.04"/>
      <path d="M24.54,72.05c.04-1.1.39-1.84.96-2.49.76-.85,1.83-1.48,2.72-2.06.84-.53,1.33-.96,1.33-1.78,0-.9-.58-1.5-1.54-1.5-.53,0-.92.16-1.2.48-.32.34-.46.82-.46,1.46h-1.63c0-.96.24-1.64.71-2.22.54-.67,1.47-1.07,2.67-1.07,1.97,0,3.15,1.21,3.15,2.82,0,1.33-.76,1.96-1.75,2.61-.94.72-2.24,1.34-2.78,2.25v.06h4.45v1.44h-6.63Z"/>
      <rect id="View_2F_B_3_3" style="cursor: pointer; pointer-events: all;" class="cls-1" x="37.05" y="56.62" width="18.28" height="21.04"/>
      <path d="M46.28,72.27c-1.1,0-1.97-.28-2.63-.8-.68-.56-1.06-1.39-1.08-2.36h1.59c.05,1.09.73,1.83,2.05,1.83,1.08,0,1.77-.54,1.77-1.57,0-.96-.71-1.45-1.95-1.45h-.56v-1.2h.52c1.13,0,1.75-.48,1.75-1.3s-.66-1.3-1.56-1.3c-1.14,0-1.73.74-1.76,1.64h-1.58c.03-1.67,1.25-2.9,3.38-2.9,1.81,0,3.16.93,3.16,2.5,0,.97-.61,1.54-1.52,1.84v.03c1.19.33,1.81,1.09,1.81,2.27,0,1.83-1.54,2.77-3.4,2.77Z"/>
      <rect id="View_2F_B_3_4" style="cursor: pointer; pointer-events: all;" class="cls-1" x="55.33" y="56.62" width="18.28" height="21.04"/>
      <path d="M65.32,72.05v-2.11h-4.29v-1.48l4.39-5.51h1.52v5.73h1.39v1.25h-1.39v2.11h-1.62ZM62.22,68.76s.81-.06,1.32-.06h1.78v-2.58c0-.51.06-1.35.06-1.35h-.03s-.47.74-.84,1.21l-1.29,1.63c-.37.44-1.01,1.12-1.01,1.12v.03Z"/>
      <rect id="View_2F_B_3_5" style="cursor: pointer; pointer-events: all;" class="cls-1" x="73.61" y="56.62" width="18.28" height="21.04"/>
      <path d="M82.71,72.25c-1.97,0-3.37-1.1-3.49-2.69h1.64c.16.78.76,1.31,1.8,1.31s1.8-.73,1.8-1.82-.77-1.79-1.73-1.79c-.81,0-1.37.33-1.67.71h-1.58l.96-4.91h5.16v1.38h-3.97l-.49,2.31h.03c.47-.49,1.06-.77,1.97-.77,1.58,0,3.02,1.16,3.02,3.09s-1.46,3.18-3.44,3.18Z"/>
      <rect id="View_2F_B_3_6" style="cursor: pointer; pointer-events: all;" class="cls-1" x="91.88" y="56.62" width="18.28" height="21.04"/>
      <path d="M101.27,72.27c-1.14,0-2-.4-2.59-1.06-.8-.85-1.13-2.05-1.13-3.65-.01-1.43.3-2.64.97-3.48.63-.78,1.51-1.21,2.73-1.21,1.85,0,2.86,1.1,3.07,2.32h-1.62c-.1-.52-.54-1.07-1.43-1.07-1.43,0-2.08,1.12-2.15,3.16h.03c.54-.83,1.29-1.26,2.33-1.26,1.7,0,3.09,1.33,3.1,3.11.01,1.81-1.43,3.16-3.32,3.16ZM101.22,70.99c1.02,0,1.8-.77,1.8-1.84s-.78-1.86-1.81-1.86c-1.13,0-1.9.74-1.9,1.84s.84,1.86,1.91,1.86Z"/>
      <rect id="View_2F_B_3_7" style="cursor: pointer; pointer-events: all;" class="cls-1" x="110.16" y="56.62" width="18.28" height="21.04"/>
      <path d="M117.35,72.05c.16-3.21,1.86-6.12,3.61-7.6v-.03s-.94.06-1.92.06h-2.94v-1.43h6.49v1.3c-1.72,1.6-3.34,4.36-3.48,7.69h-1.76Z"/>
      <rect id="View_2F_B_3_8" style="cursor: pointer; pointer-events: all;" class="cls-1" x="128.44" y="56.62" width="18.28" height="21.04"/>
      <path d="M137.6,72.27c-1.95,0-3.62-.92-3.62-2.78,0-1.16.72-1.97,1.87-2.3v-.04c-.96-.32-1.46-.98-1.46-1.87,0-1.46,1.3-2.42,3.18-2.42s3.18.92,3.18,2.4c0,.87-.49,1.55-1.44,1.87v.04c1.18.3,1.86,1.16,1.86,2.29,0,1.89-1.62,2.82-3.57,2.82ZM137.58,66.63c1,0,1.58-.49,1.58-1.28s-.58-1.29-1.58-1.29-1.59.51-1.59,1.29.59,1.28,1.59,1.28ZM137.6,70.98c1.15,0,1.89-.61,1.89-1.57s-.71-1.63-1.9-1.63-1.91.63-1.91,1.63.72,1.57,1.92,1.57Z"/>
      <rect id="View_2F_B_3_9" style="cursor: pointer; pointer-events: all;" class="cls-1" x="146.72" y="56.62" width="18.28" height="21.04"/>
      <path d="M155.76,72.27c-1.86,0-3.09-1.07-3.25-2.4h1.63c.11.57.62,1.14,1.58,1.14.63,0,1.1-.21,1.44-.68.38-.48.57-1.26.62-2.37h-.03c-.56.72-1.3,1.16-2.3,1.16-1.75,0-3.15-1.31-3.15-3.12s1.43-3.13,3.39-3.13c.97,0,1.77.3,2.35.8.94.77,1.3,2.03,1.3,3.89,0,1.65-.33,2.98-1.14,3.79-.58.61-1.4.93-2.45.93ZM155.72,67.83c1.14,0,1.9-.76,1.9-1.86s-.82-1.84-1.89-1.84-1.86.77-1.86,1.84.77,1.86,1.85,1.86Z"/>
      <rect id="View_2F_B_3_10" style="cursor: pointer; pointer-events: all;" class="cls-1" x="164.99" y="56.62" width="18.28" height="21.04"/>
      <path d="M169.94,72.05v-6.15h-2.09v-1.11c1.24-.04,2.25-.53,2.45-1.81h1.3v9.07h-1.67ZM176.57,72.27c-2.26,0-3.73-1.84-3.73-4.71s1.51-4.7,3.75-4.7,3.75,1.79,3.75,4.7-1.43,4.71-3.76,4.71ZM176.58,70.9c1.43,0,2.02-1.3,2.02-3.35s-.62-3.36-2.02-3.36-2.02,1.33-2.02,3.36.63,3.35,2.02,3.35Z"/>
      <rect id="View_2F_B_3_11" style="cursor: pointer; pointer-events: all;" class="cls-1" x="183.27" y="56.62" width="18.28" height="21.04"/>
      <path d="M189.88,72.05v-6.15h-2.09v-1.11c1.24-.04,2.25-.53,2.45-1.81h1.3v9.07h-1.67ZM194.77,72.05v-6.15h-2.09v-1.11c1.24-.04,2.25-.53,2.45-1.81h1.3v9.07h-1.67Z"/>
      <rect id="View_2F_B_3_12" style="cursor: pointer; pointer-events: all;" class="cls-1" x="201.55" y="56.62" width="18.28" height="21.04"/>
      <path d="M206.97,72.05v-6.15h-2.09v-1.11c1.24-.04,2.25-.53,2.45-1.81h1.3v9.07h-1.67ZM209.76,72.05c.04-1.1.39-1.84.96-2.49.76-.85,1.83-1.48,2.72-2.06.84-.53,1.33-.96,1.33-1.78,0-.9-.58-1.5-1.54-1.5-.53,0-.92.16-1.2.48-.32.34-.46.82-.46,1.46h-1.63c0-.96.24-1.64.71-2.22.54-.67,1.47-1.07,2.67-1.07,1.97,0,3.15,1.21,3.15,2.82,0,1.33-.76,1.96-1.75,2.61-.94.72-2.24,1.34-2.78,2.25v.06h4.45v1.44h-6.63Z"/>
      <rect id="View_2F_B_3_13" style="cursor: pointer; pointer-events: all;" class="cls-1" x="219.82" y="56.62" width="18.28" height="21.04"/>
      <path d="M225.11,72.05v-6.15h-2.09v-1.11c1.24-.04,2.25-.53,2.45-1.81h1.3v9.07h-1.67ZM231.49,72.27c-1.1,0-1.97-.28-2.63-.8-.68-.56-1.06-1.39-1.08-2.36h1.59c.05,1.09.73,1.83,2.05,1.83,1.08,0,1.77-.54,1.77-1.57,0-.96-.71-1.45-1.95-1.45h-.56v-1.2h.52c1.13,0,1.75-.48,1.75-1.3s-.66-1.3-1.56-1.3c-1.14,0-1.73.74-1.76,1.64h-1.58c.03-1.67,1.25-2.9,3.38-2.9,1.81,0,3.16.93,3.16,2.5,0,.97-.61,1.54-1.52,1.84v.03c1.19.33,1.81,1.09,1.81,2.27,0,1.83-1.54,2.77-3.4,2.77Z"/>
      <rect id="View_2F_B_3_14" style="cursor: pointer; pointer-events: all;" class="cls-1" x="238.1" y="56.62" width="18.28" height="21.04"/>
      <path d="M243.3,72.05v-6.15h-2.09v-1.11c1.24-.04,2.25-.53,2.45-1.81h1.3v9.07h-1.67ZM250.54,72.05v-2.11h-4.29v-1.48l4.39-5.51h1.52v5.73h1.39v1.25h-1.39v2.11h-1.62ZM247.44,68.76s.81-.06,1.32-.06h1.78v-2.58c0-.51.06-1.35.06-1.35h-.03s-.47.74-.84,1.21l-1.29,1.63c-.37.44-1.01,1.12-1.01,1.12v.03Z"/>
      <rect id="View_2F_B_4_1" style="cursor: pointer; pointer-events: all;" class="cls-1" x=".5" y="84.68" width="18.28" height="21.04"/>
      <path d="M9.56,100.11v-6.15h-2.09v-1.11c1.24-.04,2.25-.53,2.45-1.81h1.3v9.07h-1.67Z"/>
      <rect id="View_2F_B_4_2" style="cursor: pointer; pointer-events: all;" class="cls-1" x="18.78" y="84.68" width="18.28" height="21.04"/>
      <path d="M24.54,100.11c.04-1.1.39-1.84.96-2.49.76-.85,1.83-1.48,2.72-2.06.84-.53,1.33-.96,1.33-1.78,0-.9-.58-1.5-1.54-1.5-.53,0-.92.16-1.2.48-.32.34-.46.82-.46,1.46h-1.63c0-.96.24-1.64.71-2.22.54-.67,1.47-1.07,2.67-1.07,1.97,0,3.15,1.21,3.15,2.82,0,1.33-.76,1.96-1.75,2.61-.94.72-2.24,1.34-2.78,2.25v.06h4.45v1.44h-6.63Z"/>
      <rect id="View_2F_B_4_3" style="cursor: pointer; pointer-events: all;" class="cls-1" x="37.05" y="84.68" width="18.28" height="21.04"/>
      <path d="M46.28,100.33c-1.1,0-1.97-.28-2.63-.8-.68-.56-1.06-1.39-1.08-2.36h1.59c.05,1.09.73,1.83,2.05,1.83,1.08,0,1.77-.54,1.77-1.57,0-.96-.71-1.45-1.95-1.45h-.56v-1.2h.52c1.13,0,1.75-.48,1.75-1.3s-.66-1.3-1.56-1.3c-1.14,0-1.73.74-1.76,1.64h-1.58c.03-1.67,1.25-2.9,3.38-2.9,1.81,0,3.16.93,3.16,2.5,0,.97-.61,1.54-1.52,1.84v.03c1.19.33,1.81,1.09,1.81,2.27,0,1.83-1.54,2.77-3.4,2.77Z"/>
      <rect id="View_2F_B_4_4" style="cursor: pointer; pointer-events: all;" class="cls-1" x="55.33" y="84.68" width="18.28" height="21.04"/>
      <path d="M65.32,100.11v-2.11h-4.29v-1.48l4.39-5.51h1.52v5.73h1.39v1.25h-1.39v2.11h-1.62ZM62.22,96.82s.81-.06,1.32-.06h1.78v-2.58c0-.51.06-1.35.06-1.35h-.03s-.47.74-.84,1.21l-1.29,1.63c-.37.44-1.01,1.12-1.01,1.12v.03Z"/>
      <rect id="View_2F_B_4_5" style="cursor: pointer; pointer-events: all;" class="cls-1" x="73.61" y="84.68" width="18.28" height="21.04"/>
      <path d="M82.71,100.31c-1.97,0-3.37-1.1-3.49-2.69h1.64c.16.78.76,1.31,1.8,1.31s1.8-.73,1.8-1.82-.77-1.79-1.73-1.79c-.81,0-1.37.33-1.67.71h-1.58l.96-4.91h5.16v1.38h-3.97l-.49,2.31h.03c.47-.49,1.06-.77,1.97-.77,1.58,0,3.02,1.16,3.02,3.09s-1.46,3.18-3.44,3.18Z"/>
      <rect id="View_2F_B_4_6" style="cursor: pointer; pointer-events: all;" class="cls-1" x="91.88" y="84.68" width="18.28" height="21.04"/>
      <path d="M101.27,100.33c-1.14,0-2-.4-2.59-1.06-.8-.85-1.13-2.05-1.13-3.65-.01-1.43.3-2.64.97-3.48.63-.78,1.51-1.21,2.73-1.21,1.85,0,2.86,1.1,3.07,2.32h-1.62c-.1-.52-.54-1.07-1.43-1.07-1.43,0-2.08,1.12-2.15,3.16h.03c.54-.83,1.29-1.26,2.33-1.26,1.7,0,3.09,1.33,3.1,3.11.01,1.81-1.43,3.16-3.32,3.16ZM101.22,99.05c1.02,0,1.8-.77,1.8-1.84s-.78-1.86-1.81-1.86c-1.13,0-1.9.74-1.9,1.84s.84,1.86,1.91,1.86Z"/>
      <rect id="View_2F_B_4_7" style="cursor: pointer; pointer-events: all;" class="cls-1" x="110.16" y="84.68" width="18.28" height="21.04"/>
      <path d="M117.35,100.11c.16-3.21,1.86-6.12,3.61-7.6v-.03s-.94.06-1.92.06h-2.94v-1.43h6.49v1.3c-1.72,1.6-3.34,4.36-3.48,7.69h-1.76Z"/>
      <rect id="View_2F_B_4_8" style="cursor: pointer; pointer-events: all;" class="cls-1" x="128.44" y="84.68" width="18.28" height="21.04"/>
      <path d="M137.6,100.33c-1.95,0-3.62-.92-3.62-2.78,0-1.16.72-1.97,1.87-2.3v-.04c-.96-.32-1.46-.98-1.46-1.87,0-1.46,1.3-2.42,3.18-2.42s3.18.92,3.18,2.4c0,.87-.49,1.55-1.44,1.87v.04c1.18.3,1.86,1.16,1.86,2.29,0,1.89-1.62,2.82-3.57,2.82ZM137.58,94.69c1,0,1.58-.49,1.58-1.28s-.58-1.29-1.58-1.29-1.59.51-1.59,1.29.59,1.28,1.59,1.28ZM137.6,99.04c1.15,0,1.89-.61,1.89-1.57s-.71-1.63-1.9-1.63-1.91.63-1.91,1.63.72,1.57,1.92,1.57Z"/>
      <rect id="View_2F_B_4_9" style="cursor: pointer; pointer-events: all;" class="cls-1" x="146.72" y="84.68" width="18.28" height="21.04"/>
      <path d="M155.76,100.33c-1.86,0-3.09-1.07-3.25-2.4h1.63c.11.57.62,1.14,1.58,1.14.63,0,1.1-.21,1.44-.68.38-.48.57-1.26.62-2.37h-.03c-.56.72-1.3,1.16-2.3,1.16-1.75,0-3.15-1.31-3.15-3.12s1.43-3.13,3.39-3.13c.97,0,1.77.3,2.35.8.94.77,1.3,2.03,1.3,3.89,0,1.65-.33,2.98-1.14,3.79-.58.61-1.4.93-2.45.93ZM155.72,95.89c1.14,0,1.9-.76,1.9-1.86s-.82-1.84-1.89-1.84-1.86.77-1.86,1.84.77,1.86,1.85,1.86Z"/>
      <rect id="View_2F_B_4_10" style="cursor: pointer; pointer-events: all;" class="cls-1" x="164.99" y="84.68" width="18.28" height="21.04"/>
      <path d="M169.94,100.11v-6.15h-2.09v-1.11c1.24-.04,2.25-.53,2.45-1.81h1.3v9.07h-1.67ZM176.57,100.33c-2.26,0-3.73-1.84-3.73-4.71s1.51-4.7,3.75-4.7,3.75,1.79,3.75,4.7-1.43,4.71-3.76,4.71ZM176.58,98.96c1.43,0,2.02-1.3,2.02-3.35s-.62-3.36-2.02-3.36-2.02,1.33-2.02,3.36.63,3.35,2.02,3.35Z"/>
      <rect id="View_2F_B_4_11" style="cursor: pointer; pointer-events: all;" class="cls-1" x="183.27" y="84.68" width="18.28" height="21.04"/>
      <path d="M189.88,100.11v-6.15h-2.09v-1.11c1.24-.04,2.25-.53,2.45-1.81h1.3v9.07h-1.67ZM194.77,100.11v-6.15h-2.09v-1.11c1.24-.04,2.25-.53,2.45-1.81h1.3v9.07h-1.67Z"/>
      <rect id="View_2F_B_4_12" style="cursor: pointer; pointer-events: all;" class="cls-1" x="201.55" y="84.68" width="18.28" height="21.04"/>
      <path d="M206.97,100.11v-6.15h-2.09v-1.11c1.24-.04,2.25-.53,2.45-1.81h1.3v9.07h-1.67ZM209.76,100.11c.04-1.1.39-1.84.96-2.49.76-.85,1.83-1.48,2.72-2.06.84-.53,1.33-.96,1.33-1.78,0-.9-.58-1.5-1.54-1.5-.53,0-.92.16-1.2.48-.32.34-.46.82-.46,1.46h-1.63c0-.96.24-1.64.71-2.22.54-.67,1.47-1.07,2.67-1.07,1.97,0,3.15,1.21,3.15,2.82,0,1.33-.76,1.96-1.75,2.61-.94.72-2.24,1.34-2.78,2.25v.06h4.45v1.44h-6.63Z"/>
      <rect id="View_2F_B_4_13" style="cursor: pointer; pointer-events: all;" class="cls-1" x="219.82" y="84.68" width="18.28" height="21.04"/>
      <path d="M225.11,100.11v-6.15h-2.09v-1.11c1.24-.04,2.25-.53,2.45-1.81h1.3v9.07h-1.67ZM231.49,100.33c-1.1,0-1.97-.28-2.63-.8-.68-.56-1.06-1.39-1.08-2.36h1.59c.05,1.09.73,1.83,2.05,1.83,1.08,0,1.77-.54,1.77-1.57,0-.96-.71-1.45-1.95-1.45h-.56v-1.2h.52c1.13,0,1.75-.48,1.75-1.3s-.66-1.3-1.56-1.3c-1.14,0-1.73.74-1.76,1.64h-1.58c.03-1.67,1.25-2.9,3.38-2.9,1.81,0,3.16.93,3.16,2.5,0,.97-.61,1.54-1.52,1.84v.03c1.19.33,1.81,1.09,1.81,2.27,0,1.83-1.54,2.77-3.4,2.77Z"/>
      <rect id="View_2F_B_4_14" style="cursor: pointer; pointer-events: all;" class="cls-1" x="238.1" y="84.68" width="18.28" height="21.04"/>
      <path d="M243.3,100.11v-6.15h-2.09v-1.11c1.24-.04,2.25-.53,2.45-1.81h1.3v9.07h-1.67ZM250.54,100.11v-2.11h-4.29v-1.48l4.39-5.51h1.52v5.73h1.39v1.25h-1.39v2.11h-1.62ZM247.44,96.82s.81-.06,1.32-.06h1.78v-2.58c0-.51.06-1.35.06-1.35h-.03s-.47.74-.84,1.21l-1.29,1.63c-.37.44-1.01,1.12-1.01,1.12v.03Z"/>
      <rect id="View_2F_B_5_1" style="cursor: pointer; pointer-events: all;" class="cls-1" x=".5" y="112.74" width="18.28" height="21.04"/>
      <path d="M9.56,128.17v-6.15h-2.09v-1.11c1.24-.04,2.25-.53,2.45-1.81h1.3v9.07h-1.67Z"/>
      <rect id="View_2F_B_5_2" style="cursor: pointer; pointer-events: all;" class="cls-1" x="18.78" y="112.74" width="18.28" height="21.04"/>
      <path d="M24.54,128.17c.04-1.1.39-1.84.96-2.49.76-.85,1.83-1.48,2.72-2.06.84-.53,1.33-.96,1.33-1.78,0-.9-.58-1.5-1.54-1.5-.53,0-.92.16-1.2.48-.32.34-.46.82-.46,1.46h-1.63c0-.96.24-1.64.71-2.22.54-.67,1.47-1.07,2.67-1.07,1.97,0,3.15,1.21,3.15,2.82,0,1.33-.76,1.96-1.75,2.61-.94.72-2.24,1.34-2.78,2.25v.06h4.45v1.44h-6.63Z"/>
      <rect id="View_2F_B_5_3" style="cursor: pointer; pointer-events: all;" class="cls-1" x="37.05" y="112.74" width="18.28" height="21.04"/>
      <path d="M46.28,128.39c-1.1,0-1.97-.28-2.63-.8-.68-.56-1.06-1.39-1.08-2.36h1.59c.05,1.09.73,1.83,2.05,1.83,1.08,0,1.77-.54,1.77-1.57,0-.96-.71-1.45-1.95-1.45h-.56v-1.2h.52c1.13,0,1.75-.48,1.75-1.3s-.66-1.3-1.56-1.3c-1.14,0-1.73.74-1.76,1.64h-1.58c.03-1.67,1.25-2.9,3.38-2.9,1.81,0,3.16.93,3.16,2.5,0,.97-.61,1.54-1.52,1.84v.03c1.19.33,1.81,1.09,1.81,2.27,0,1.83-1.54,2.77-3.4,2.77Z"/>
      <rect id="View_2F_B_5_4" style="cursor: pointer; pointer-events: all;" class="cls-1" x="55.33" y="112.74" width="18.28" height="21.04"/>
      <path d="M65.32,128.17v-2.11h-4.29v-1.48l4.39-5.51h1.52v5.73h1.39v1.25h-1.39v2.11h-1.62ZM62.22,124.88s.81-.06,1.32-.06h1.78v-2.58c0-.51.06-1.35.06-1.35h-.03s-.47.74-.84,1.21l-1.29,1.63c-.37.44-1.01,1.12-1.01,1.12v.03Z"/>
      <rect id="View_2F_B_5_5" style="cursor: pointer; pointer-events: all;" class="cls-1" x="73.61" y="112.74" width="18.28" height="21.04"/>
      <path d="M82.71,128.37c-1.97,0-3.37-1.1-3.49-2.69h1.64c.16.78.76,1.31,1.8,1.31s1.8-.73,1.8-1.82-.77-1.79-1.73-1.79c-.81,0-1.37.33-1.67.71h-1.58l.96-4.91h5.16v1.38h-3.97l-.49,2.31h.03c.47-.49,1.06-.77,1.97-.77,1.58,0,3.02,1.16,3.02,3.09s-1.46,3.18-3.44,3.18Z"/>
      <rect id="View_2F_B_5_6" style="cursor: pointer; pointer-events: all;" class="cls-1" x="91.88" y="112.74" width="18.28" height="21.04"/>
      <path d="M101.27,128.39c-1.14,0-2-.4-2.59-1.06-.8-.85-1.13-2.05-1.13-3.65-.01-1.43.3-2.64.97-3.48.63-.78,1.51-1.21,2.73-1.21,1.85,0,2.86,1.1,3.07,2.32h-1.62c-.1-.52-.54-1.07-1.43-1.07-1.43,0-2.08,1.12-2.15,3.16h.03c.54-.83,1.29-1.26,2.33-1.26,1.7,0,3.09,1.33,3.1,3.11.01,1.81-1.43,3.16-3.32,3.16ZM101.22,127.11c1.02,0,1.8-.77,1.8-1.84s-.78-1.86-1.81-1.86c-1.13,0-1.9.74-1.9,1.84s.84,1.86,1.91,1.86Z"/>
      <rect id="View_2F_B_5_7" style="cursor: pointer; pointer-events: all;" class="cls-1" x="110.16" y="112.74" width="18.28" height="21.04"/>
      <path d="M117.35,128.17c.16-3.21,1.86-6.12,3.61-7.6v-.03s-.94.06-1.92.06h-2.94v-1.43h6.49v1.3c-1.72,1.6-3.34,4.36-3.48,7.69h-1.76Z"/>
      <rect id="View_2F_B_5_8" style="cursor: pointer; pointer-events: all;" class="cls-1" x="128.44" y="112.74" width="18.28" height="21.04"/>
      <path d="M137.6,128.39c-1.95,0-3.62-.92-3.62-2.78,0-1.16.72-1.97,1.87-2.3v-.04c-.96-.32-1.46-.98-1.46-1.87,0-1.46,1.3-2.42,3.18-2.42s3.18.92,3.18,2.4c0,.87-.49,1.55-1.44,1.87v.04c1.18.3,1.86,1.16,1.86,2.29,0,1.89-1.62,2.82-3.57,2.82ZM137.58,122.75c1,0,1.58-.49,1.58-1.28s-.58-1.29-1.58-1.29-1.59.51-1.59,1.29.59,1.28,1.59,1.28ZM137.6,127.1c1.15,0,1.89-.61,1.89-1.57s-.71-1.63-1.9-1.63-1.91.63-1.91,1.63.72,1.57,1.92,1.57Z"/>
      <rect id="View_2F_B_5_9" style="cursor: pointer; pointer-events: all;" class="cls-1" x="146.72" y="112.74" width="18.28" height="21.04"/>
      <path d="M155.76,128.39c-1.86,0-3.09-1.07-3.25-2.4h1.63c.11.57.62,1.14,1.58,1.14.63,0,1.1-.21,1.44-.68.38-.48.57-1.26.62-2.37h-.03c-.56.72-1.3,1.16-2.3,1.16-1.75,0-3.15-1.31-3.15-3.12s1.43-3.13,3.39-3.13c.97,0,1.77.3,2.35.8.94.77,1.3,2.03,1.3,3.89,0,1.65-.33,2.98-1.14,3.79-.58.61-1.4.93-2.45.93ZM155.72,123.95c1.14,0,1.9-.76,1.9-1.86s-.82-1.84-1.89-1.84-1.86.77-1.86,1.84.77,1.86,1.85,1.86Z"/>
      <rect id="View_2F_B_5_10" style="cursor: pointer; pointer-events: all;" class="cls-1" x="164.99" y="112.74" width="18.28" height="21.04"/>
      <path d="M169.94,128.17v-6.15h-2.09v-1.11c1.24-.04,2.25-.53,2.45-1.81h1.3v9.07h-1.67ZM176.57,128.39c-2.26,0-3.73-1.84-3.73-4.71s1.51-4.7,3.75-4.7,3.75,1.79,3.75,4.7-1.43,4.71-3.76,4.71ZM176.58,127.02c1.43,0,2.02-1.3,2.02-3.35s-.62-3.36-2.02-3.36-2.02,1.33-2.02,3.36.63,3.35,2.02,3.35Z"/>
      <rect id="View_2F_B_5_11" style="cursor: pointer; pointer-events: all;" class="cls-1" x="183.27" y="112.74" width="18.28" height="21.04"/>
      <path d="M189.88,128.17v-6.15h-2.09v-1.11c1.24-.04,2.25-.53,2.45-1.81h1.3v9.07h-1.67ZM194.77,128.17v-6.15h-2.09v-1.11c1.24-.04,2.25-.53,2.45-1.81h1.3v9.07h-1.67Z"/>
      <rect id="View_2F_B_5_12" style="cursor: pointer; pointer-events: all;" class="cls-1" x="201.55" y="112.74" width="18.28" height="21.04"/>
      <path d="M206.97,128.17v-6.15h-2.09v-1.11c1.24-.04,2.25-.53,2.45-1.81h1.3v9.07h-1.67ZM209.76,128.17c.04-1.1.39-1.84.96-2.49.76-.85,1.83-1.48,2.72-2.06.84-.53,1.33-.96,1.33-1.78,0-.9-.58-1.5-1.54-1.5-.53,0-.92.16-1.2.48-.32.34-.46.82-.46,1.46h-1.63c0-.96.24-1.64.71-2.22.54-.67,1.47-1.07,2.67-1.07,1.97,0,3.15,1.21,3.15,2.82,0,1.33-.76,1.96-1.75,2.61-.94.72-2.24,1.34-2.78,2.25v.06h4.45v1.44h-6.63Z"/>
      <rect id="View_2F_B_5_13" style="cursor: pointer; pointer-events: all;" class="cls-1" x="219.82" y="112.74" width="18.28" height="21.04"/>
      <path d="M225.11,128.17v-6.15h-2.09v-1.11c1.24-.04,2.25-.53,2.45-1.81h1.3v9.07h-1.67ZM231.49,128.39c-1.1,0-1.97-.28-2.63-.8-.68-.56-1.06-1.39-1.08-2.36h1.59c.05,1.09.73,1.83,2.05,1.83,1.08,0,1.77-.54,1.77-1.57,0-.96-.71-1.45-1.95-1.45h-.56v-1.2h.52c1.13,0,1.75-.48,1.75-1.3s-.66-1.3-1.56-1.3c-1.14,0-1.73.74-1.76,1.64h-1.58c.03-1.67,1.25-2.9,3.38-2.9,1.81,0,3.16.93,3.16,2.5,0,.97-.61,1.54-1.52,1.84v.03c1.19.33,1.81,1.09,1.81,2.27,0,1.83-1.54,2.77-3.4,2.77Z"/>
      <rect id="View_2F_B_5_14" style="cursor: pointer; pointer-events: all;" class="cls-1" x="238.1" y="112.74" width="18.28" height="21.04"/>
      <path d="M243.3,128.17v-6.15h-2.09v-1.11c1.24-.04,2.25-.53,2.45-1.81h1.3v9.07h-1.67ZM250.54,128.17v-2.11h-4.29v-1.48l4.39-5.51h1.52v5.73h1.39v1.25h-1.39v2.11h-1.62ZM247.44,124.88s.81-.06,1.32-.06h1.78v-2.58c0-.51.06-1.35.06-1.35h-.03s-.47.74-.84,1.21l-1.29,1.63c-.37.44-1.01,1.12-1.01,1.12v.03Z"/>
      <rect id="View_2F_B_6_1" style="cursor: pointer; pointer-events: all;" class="cls-1" x=".5" y="140.8" width="18.28" height="21.04"/>
      <path d="M9.56,156.23v-6.15h-2.09v-1.11c1.24-.04,2.25-.53,2.45-1.81h1.3v9.07h-1.67Z"/>
      <rect id="View_2F_B_6_2" style="cursor: pointer; pointer-events: all;" class="cls-1" x="18.78" y="140.8" width="18.28" height="21.04"/>
      <path d="M24.54,156.23c.04-1.1.39-1.84.96-2.49.76-.85,1.83-1.48,2.72-2.06.84-.53,1.33-.96,1.33-1.78,0-.9-.58-1.5-1.54-1.5-.53,0-.92.16-1.2.48-.32.34-.46.82-.46,1.46h-1.63c0-.96.24-1.64.71-2.22.54-.67,1.47-1.07,2.67-1.07,1.97,0,3.15,1.21,3.15,2.82,0,1.33-.76,1.96-1.75,2.61-.94.72-2.24,1.34-2.78,2.25v.06h4.45v1.44h-6.63Z"/>
      <rect id="View_2F_B_6_3" style="cursor: pointer; pointer-events: all;" class="cls-1" x="37.05" y="140.8" width="18.28" height="21.04"/>
      <path d="M46.28,156.45c-1.1,0-1.97-.28-2.63-.8-.68-.56-1.06-1.39-1.08-2.36h1.59c.05,1.09.73,1.83,2.05,1.83,1.08,0,1.77-.54,1.77-1.57,0-.96-.71-1.45-1.95-1.45h-.56v-1.2h.52c1.13,0,1.75-.48,1.75-1.3s-.66-1.3-1.56-1.3c-1.14,0-1.73.74-1.76,1.64h-1.58c.03-1.67,1.25-2.9,3.38-2.9,1.81,0,3.16.93,3.16,2.5,0,.97-.61,1.54-1.52,1.84v.03c1.19.33,1.81,1.09,1.81,2.27,0,1.83-1.54,2.77-3.4,2.77Z"/>
      <rect id="View_2F_B_6_4" style="cursor: pointer; pointer-events: all;" class="cls-1" x="55.33" y="140.8" width="18.28" height="21.04"/>
      <path d="M65.32,156.23v-2.11h-4.29v-1.48l4.39-5.51h1.52v5.73h1.39v1.25h-1.39v2.11h-1.62ZM62.22,152.93s.81-.06,1.32-.06h1.78v-2.58c0-.51.06-1.35.06-1.35h-.03s-.47.74-.84,1.21l-1.29,1.63c-.37.44-1.01,1.12-1.01,1.12v.03Z"/>
      <rect id="View_2F_B_6_5" style="cursor: pointer; pointer-events: all;" class="cls-1" x="73.61" y="140.8" width="18.28" height="21.04"/>
      <path d="M82.71,156.43c-1.97,0-3.37-1.1-3.49-2.69h1.64c.16.78.76,1.31,1.8,1.31s1.8-.73,1.8-1.82-.77-1.79-1.73-1.79c-.81,0-1.37.33-1.67.71h-1.58l.96-4.91h5.16v1.38h-3.97l-.49,2.31h.03c.47-.49,1.06-.77,1.97-.77,1.58,0,3.02,1.16,3.02,3.09s-1.46,3.18-3.44,3.18Z"/>
      <rect id="View_2F_B_6_6" style="cursor: pointer; pointer-events: all;" class="cls-1" x="91.88" y="140.8" width="18.28" height="21.04"/>
      <path d="M101.27,156.45c-1.14,0-2-.4-2.59-1.06-.8-.85-1.13-2.05-1.13-3.65-.01-1.43.3-2.64.97-3.48.63-.78,1.51-1.21,2.73-1.21,1.85,0,2.86,1.1,3.07,2.32h-1.62c-.1-.52-.54-1.07-1.43-1.07-1.43,0-2.08,1.12-2.15,3.16h.03c.54-.83,1.29-1.26,2.33-1.26,1.7,0,3.09,1.33,3.1,3.11.01,1.81-1.43,3.16-3.32,3.16ZM101.22,155.17c1.02,0,1.8-.77,1.8-1.84s-.78-1.86-1.81-1.86c-1.13,0-1.9.74-1.9,1.84s.84,1.86,1.91,1.86Z"/>
      <rect id="View_2F_B_6_7" style="cursor: pointer; pointer-events: all;" class="cls-1" x="110.16" y="140.8" width="18.28" height="21.04"/>
      <path d="M117.35,156.23c.16-3.21,1.86-6.12,3.61-7.6v-.03s-.94.06-1.92.06h-2.94v-1.43h6.49v1.3c-1.72,1.6-3.34,4.36-3.48,7.69h-1.76Z"/>
      <rect id="View_2F_B_6_8" style="cursor: pointer; pointer-events: all;" class="cls-1" x="128.44" y="140.8" width="18.28" height="21.04"/>
      <path d="M137.6,156.45c-1.95,0-3.62-.92-3.62-2.78,0-1.16.72-1.97,1.87-2.3v-.04c-.96-.32-1.46-.98-1.46-1.87,0-1.46,1.3-2.42,3.18-2.42s3.18.92,3.18,2.4c0,.87-.49,1.55-1.44,1.87v.04c1.18.3,1.86,1.16,1.86,2.29,0,1.89-1.62,2.82-3.57,2.82ZM137.58,150.81c1,0,1.58-.49,1.58-1.28s-.58-1.29-1.58-1.29-1.59.51-1.59,1.29.59,1.28,1.59,1.28ZM137.6,155.16c1.15,0,1.89-.61,1.89-1.57s-.71-1.63-1.9-1.63-1.91.63-1.91,1.63.72,1.57,1.92,1.57Z"/>
      <rect id="View_2F_B_6_9" style="cursor: pointer; pointer-events: all;" class="cls-1" x="146.72" y="140.8" width="18.28" height="21.04"/>
      <path d="M155.76,156.45c-1.86,0-3.09-1.07-3.25-2.4h1.63c.11.57.62,1.14,1.58,1.14.63,0,1.1-.21,1.44-.68.38-.48.57-1.26.62-2.37h-.03c-.56.72-1.3,1.16-2.3,1.16-1.75,0-3.15-1.31-3.15-3.12s1.43-3.13,3.39-3.13c.97,0,1.77.3,2.35.8.94.77,1.3,2.03,1.3,3.89,0,1.65-.33,2.98-1.14,3.79-.58.61-1.4.93-2.45.93ZM155.72,152.01c1.14,0,1.9-.76,1.9-1.86s-.82-1.84-1.89-1.84-1.86.77-1.86,1.84.77,1.86,1.85,1.86Z"/>
      <rect id="View_2F_B_6_10" style="cursor: pointer; pointer-events: all;" class="cls-1" x="164.99" y="140.8" width="18.28" height="21.04"/>
      <path d="M169.94,156.23v-6.15h-2.09v-1.11c1.24-.04,2.25-.53,2.45-1.81h1.3v9.07h-1.67ZM176.57,156.45c-2.26,0-3.73-1.84-3.73-4.71s1.51-4.7,3.75-4.7,3.75,1.79,3.75,4.7-1.43,4.71-3.76,4.71ZM176.58,155.08c1.43,0,2.02-1.3,2.02-3.35s-.62-3.36-2.02-3.36-2.02,1.33-2.02,3.36.63,3.35,2.02,3.35Z"/>
      <rect id="View_2F_B_6_11" style="cursor: pointer; pointer-events: all;" class="cls-1" x="183.27" y="140.8" width="18.28" height="21.04"/>
      <path d="M189.88,156.23v-6.15h-2.09v-1.11c1.24-.04,2.25-.53,2.45-1.81h1.3v9.07h-1.67ZM194.77,156.23v-6.15h-2.09v-1.11c1.24-.04,2.25-.53,2.45-1.81h1.3v9.07h-1.67Z"/>
      <rect id="View_2F_B_6_12" style="cursor: pointer; pointer-events: all;" class="cls-1" x="201.55" y="140.8" width="18.28" height="21.04"/>
      <path d="M206.97,156.23v-6.15h-2.09v-1.11c1.24-.04,2.25-.53,2.45-1.81h1.3v9.07h-1.67ZM209.76,156.23c.04-1.1.39-1.84.96-2.49.76-.85,1.83-1.48,2.72-2.06.84-.53,1.33-.96,1.33-1.78,0-.9-.58-1.5-1.54-1.5-.53,0-.92.16-1.2.48-.32.34-.46.82-.46,1.46h-1.63c0-.96.24-1.64.71-2.22.54-.67,1.47-1.07,2.67-1.07,1.97,0,3.15,1.21,3.15,2.82,0,1.33-.76,1.96-1.75,2.61-.94.72-2.24,1.34-2.78,2.25v.06h4.45v1.44h-6.63Z"/>
      <rect id="View_2F_B_6_13" style="cursor: pointer; pointer-events: all;" class="cls-1" x="219.82" y="140.8" width="18.28" height="21.04"/>
      <path d="M225.11,156.23v-6.15h-2.09v-1.11c1.24-.04,2.25-.53,2.45-1.81h1.3v9.07h-1.67ZM231.49,156.45c-1.1,0-1.97-.28-2.63-.8-.68-.56-1.06-1.39-1.08-2.36h1.59c.05,1.09.73,1.83,2.05,1.83,1.08,0,1.77-.54,1.77-1.57,0-.96-.71-1.45-1.95-1.45h-.56v-1.2h.52c1.13,0,1.75-.48,1.75-1.3s-.66-1.3-1.56-1.3c-1.14,0-1.73.74-1.76,1.64h-1.58c.03-1.67,1.25-2.9,3.38-2.9,1.81,0,3.16.93,3.16,2.5,0,.97-.61,1.54-1.52,1.84v.03c1.19.33,1.81,1.09,1.81,2.27,0,1.83-1.54,2.77-3.4,2.77Z"/>
      <rect id="View_2F_B_6_14" style="cursor: pointer; pointer-events: all;" class="cls-1" x="238.1" y="140.8" width="18.28" height="21.04"/>
      <path d="M243.3,156.23v-6.15h-2.09v-1.11c1.24-.04,2.25-.53,2.45-1.81h1.3v9.07h-1.67ZM250.54,156.23v-2.11h-4.29v-1.48l4.39-5.51h1.52v5.73h1.39v1.25h-1.39v2.11h-1.62ZM247.44,152.93s.81-.06,1.32-.06h1.78v-2.58c0-.51.06-1.35.06-1.35h-.03s-.47.74-.84,1.21l-1.29,1.63c-.37.44-1.01,1.12-1.01,1.12v.03Z"/>
      <rect id="View_2F_B_7_1" style="cursor: pointer; pointer-events: all;" class="cls-1" x=".5" y="168.86" width="18.28" height="21.04"/>
      <path d="M9.56,184.29v-6.15h-2.09v-1.11c1.24-.04,2.25-.53,2.45-1.81h1.3v9.07h-1.67Z"/>
      <rect id="View_2F_B_7_2" style="cursor: pointer; pointer-events: all;" class="cls-1" x="18.78" y="168.86" width="18.28" height="21.04"/>
      <path d="M24.54,184.29c.04-1.1.39-1.84.96-2.49.76-.85,1.83-1.48,2.72-2.06.84-.53,1.33-.96,1.33-1.78,0-.9-.58-1.5-1.54-1.5-.53,0-.92.16-1.2.48-.32.34-.46.82-.46,1.46h-1.63c0-.96.24-1.64.71-2.22.54-.67,1.47-1.07,2.67-1.07,1.97,0,3.15,1.21,3.15,2.82,0,1.33-.76,1.96-1.75,2.61-.94.72-2.24,1.34-2.78,2.25v.06h4.45v1.44h-6.63Z"/>
      <rect id="View_2F_B_7_3" style="cursor: pointer; pointer-events: all;" class="cls-1" x="37.05" y="168.86" width="18.28" height="21.04"/>
      <path d="M46.28,184.5c-1.1,0-1.97-.28-2.63-.8-.68-.56-1.06-1.39-1.08-2.36h1.59c.05,1.09.73,1.83,2.05,1.83,1.08,0,1.77-.54,1.77-1.57,0-.96-.71-1.45-1.95-1.45h-.56v-1.2h.52c1.13,0,1.75-.48,1.75-1.3s-.66-1.3-1.56-1.3c-1.14,0-1.73.74-1.76,1.64h-1.58c.03-1.67,1.25-2.9,3.38-2.9,1.81,0,3.16.93,3.16,2.5,0,.97-.61,1.54-1.52,1.84v.03c1.19.33,1.81,1.09,1.81,2.27,0,1.83-1.54,2.77-3.4,2.77Z"/>
      <rect id="View_2F_B_7_4" style="cursor: pointer; pointer-events: all;" class="cls-1" x="55.33" y="168.86" width="18.28" height="21.04"/>
      <path d="M65.32,184.29v-2.11h-4.29v-1.48l4.39-5.51h1.52v5.73h1.39v1.25h-1.39v2.11h-1.62ZM62.22,180.99s.81-.06,1.32-.06h1.78v-2.58c0-.51.06-1.35.06-1.35h-.03s-.47.74-.84,1.21l-1.29,1.63c-.37.44-1.01,1.12-1.01,1.12v.03Z"/>
      <rect id="View_2F_B_7_5" style="cursor: pointer; pointer-events: all;" class="cls-1" x="73.61" y="168.86" width="18.28" height="21.04"/>
      <path d="M82.71,184.49c-1.97,0-3.37-1.1-3.49-2.69h1.64c.16.78.76,1.31,1.8,1.31s1.8-.73,1.8-1.82-.77-1.79-1.73-1.79c-.81,0-1.37.33-1.67.71h-1.58l.96-4.91h5.16v1.38h-3.97l-.49,2.31h.03c.47-.49,1.06-.77,1.97-.77,1.58,0,3.02,1.16,3.02,3.09s-1.46,3.18-3.44,3.18Z"/>
      <rect id="View_2F_B_7_6" style="cursor: pointer; pointer-events: all;" class="cls-1" x="91.88" y="168.86" width="18.28" height="21.04"/>
      <path d="M101.27,184.5c-1.14,0-2-.4-2.59-1.06-.8-.85-1.13-2.05-1.13-3.65-.01-1.43.3-2.64.97-3.48.63-.78,1.51-1.21,2.73-1.21,1.85,0,2.86,1.1,3.07,2.32h-1.62c-.1-.52-.54-1.07-1.43-1.07-1.43,0-2.08,1.12-2.15,3.16h.03c.54-.83,1.29-1.26,2.33-1.26,1.7,0,3.09,1.33,3.1,3.11.01,1.81-1.43,3.16-3.32,3.16ZM101.22,183.23c1.02,0,1.8-.77,1.8-1.84s-.78-1.86-1.81-1.86c-1.13,0-1.9.74-1.9,1.84s.84,1.86,1.91,1.86Z"/>
      <rect id="View_2F_B_7_7" style="cursor: pointer; pointer-events: all;" class="cls-1" x="110.16" y="168.86" width="18.28" height="21.04"/>
      <path d="M117.35,184.29c.16-3.21,1.86-6.12,3.61-7.6v-.03s-.94.06-1.92.06h-2.94v-1.43h6.49v1.3c-1.72,1.6-3.34,4.36-3.48,7.69h-1.76Z"/>
      <rect id="View_2F_B_7_8" style="cursor: pointer; pointer-events: all;" class="cls-1" x="128.44" y="168.86" width="18.28" height="21.04"/>
      <path d="M137.6,184.5c-1.95,0-3.62-.92-3.62-2.78,0-1.16.72-1.97,1.87-2.3v-.04c-.96-.32-1.46-.98-1.46-1.87,0-1.46,1.3-2.42,3.18-2.42s3.18.92,3.18,2.4c0,.87-.49,1.55-1.44,1.87v.04c1.18.3,1.86,1.16,1.86,2.29,0,1.89-1.62,2.82-3.57,2.82ZM137.58,178.87c1,0,1.58-.49,1.58-1.28s-.58-1.29-1.58-1.29-1.59.51-1.59,1.29.59,1.28,1.59,1.28ZM137.6,183.22c1.15,0,1.89-.61,1.89-1.57s-.71-1.63-1.9-1.63-1.91.63-1.91,1.63.72,1.57,1.92,1.57Z"/>
      <rect id="View_2F_B_7_9" style="cursor: pointer; pointer-events: all;" class="cls-1" x="146.72" y="168.86" width="18.28" height="21.04"/>
      <path d="M155.76,184.5c-1.86,0-3.09-1.07-3.25-2.4h1.63c.11.57.62,1.14,1.58,1.14.63,0,1.1-.21,1.44-.68.38-.48.57-1.26.62-2.37h-.03c-.56.72-1.3,1.16-2.3,1.16-1.75,0-3.15-1.31-3.15-3.12s1.43-3.13,3.39-3.13c.97,0,1.77.3,2.35.8.94.77,1.3,2.03,1.3,3.89,0,1.65-.33,2.98-1.14,3.79-.58.61-1.4.93-2.45.93ZM155.72,180.07c1.14,0,1.9-.76,1.9-1.86s-.82-1.84-1.89-1.84-1.86.77-1.86,1.84.77,1.86,1.85,1.86Z"/>
      <rect id="View_2F_B_7_10" style="cursor: pointer; pointer-events: all;" class="cls-1" x="164.99" y="168.86" width="18.28" height="21.04"/>
      <path d="M169.94,184.29v-6.15h-2.09v-1.11c1.24-.04,2.25-.53,2.45-1.81h1.3v9.07h-1.67ZM176.57,184.5c-2.26,0-3.73-1.84-3.73-4.71s1.51-4.7,3.75-4.7,3.75,1.79,3.75,4.7-1.43,4.71-3.76,4.71ZM176.58,183.14c1.43,0,2.02-1.3,2.02-3.35s-.62-3.36-2.02-3.36-2.02,1.33-2.02,3.36.63,3.35,2.02,3.35Z"/>
      <rect id="View_2F_B_7_11" style="cursor: pointer; pointer-events: all;" class="cls-1" x="183.27" y="168.86" width="18.28" height="21.04"/>
      <path d="M189.88,184.29v-6.15h-2.09v-1.11c1.24-.04,2.25-.53,2.45-1.81h1.3v9.07h-1.67ZM194.77,184.29v-6.15h-2.09v-1.11c1.24-.04,2.25-.53,2.45-1.81h1.3v9.07h-1.67Z"/>
      <rect id="View_2F_B_7_12" style="cursor: pointer; pointer-events: all;" class="cls-1" x="201.55" y="168.86" width="18.28" height="21.04"/>
      <path d="M206.97,184.29v-6.15h-2.09v-1.11c1.24-.04,2.25-.53,2.45-1.81h1.3v9.07h-1.67ZM209.76,184.29c.04-1.1.39-1.84.96-2.49.76-.85,1.83-1.48,2.72-2.06.84-.53,1.33-.96,1.33-1.78,0-.9-.58-1.5-1.54-1.5-.53,0-.92.16-1.2.48-.32.34-.46.82-.46,1.46h-1.63c0-.96.24-1.64.71-2.22.54-.67,1.47-1.07,2.67-1.07,1.97,0,3.15,1.21,3.15,2.82,0,1.33-.76,1.96-1.75,2.61-.94.72-2.24,1.34-2.78,2.25v.06h4.45v1.44h-6.63Z"/>
      <rect id="View_2F_B_7_13" style="cursor: pointer; pointer-events: all;" class="cls-1" x="219.82" y="168.86" width="18.28" height="21.04"/>
      <path d="M225.11,184.29v-6.15h-2.09v-1.11c1.24-.04,2.25-.53,2.45-1.81h1.3v9.07h-1.67ZM231.49,184.5c-1.1,0-1.97-.28-2.63-.8-.68-.56-1.06-1.39-1.08-2.36h1.59c.05,1.09.73,1.83,2.05,1.83,1.08,0,1.77-.54,1.77-1.57,0-.96-.71-1.45-1.95-1.45h-.56v-1.2h.52c1.13,0,1.75-.48,1.75-1.3s-.66-1.3-1.56-1.3c-1.14,0-1.73.74-1.76,1.64h-1.58c.03-1.67,1.25-2.9,3.38-2.9,1.81,0,3.16.93,3.16,2.5,0,.97-.61,1.54-1.52,1.84v.03c1.19.33,1.81,1.09,1.81,2.27,0,1.83-1.54,2.77-3.4,2.77Z"/>
      <rect id="View_2F_B_7_14" style="cursor: pointer; pointer-events: all;" class="cls-1" x="238.1" y="168.86" width="18.28" height="21.04"/>
      <path d="M243.3,184.29v-6.15h-2.09v-1.11c1.24-.04,2.25-.53,2.45-1.81h1.3v9.07h-1.67ZM250.54,184.29v-2.11h-4.29v-1.48l4.39-5.51h1.52v5.73h1.39v1.25h-1.39v2.11h-1.62ZM247.44,180.99s.81-.06,1.32-.06h1.78v-2.58c0-.51.06-1.35.06-1.35h-.03s-.47.74-.84,1.21l-1.29,1.63c-.37.44-1.01,1.12-1.01,1.12v.03Z"/>
      <rect id="View_2F_B_8_1" style="cursor: pointer; pointer-events: all;" class="cls-1" x=".5" y="196.92" width="18.28" height="21.04"/>
      <path d="M9.56,212.35v-6.15h-2.09v-1.11c1.24-.04,2.25-.53,2.45-1.81h1.3v9.07h-1.67Z"/>
      <rect id="View_2F_B_8_2" style="cursor: pointer; pointer-events: all;" class="cls-1" x="18.78" y="196.92" width="18.28" height="21.04"/>
      <path d="M24.54,212.35c.04-1.1.39-1.84.96-2.49.76-.85,1.83-1.48,2.72-2.06.84-.53,1.33-.96,1.33-1.78,0-.9-.58-1.5-1.54-1.5-.53,0-.92.16-1.2.48-.32.34-.46.82-.46,1.46h-1.63c0-.96.24-1.64.71-2.22.54-.67,1.47-1.07,2.67-1.07,1.97,0,3.15,1.21,3.15,2.82,0,1.33-.76,1.96-1.75,2.61-.94.72-2.24,1.34-2.78,2.25v.06h4.45v1.44h-6.63Z"/>
      <rect id="View_2F_B_8_3" style="cursor: pointer; pointer-events: all;" class="cls-1" x="37.05" y="196.92" width="18.28" height="21.04"/>
      <path d="M46.28,212.56c-1.1,0-1.97-.28-2.63-.8-.68-.56-1.06-1.39-1.08-2.36h1.59c.05,1.09.73,1.83,2.05,1.83,1.08,0,1.77-.54,1.77-1.57,0-.96-.71-1.45-1.95-1.45h-.56v-1.2h.52c1.13,0,1.75-.48,1.75-1.3s-.66-1.3-1.56-1.3c-1.14,0-1.73.74-1.76,1.64h-1.58c.03-1.67,1.25-2.9,3.38-2.9,1.81,0,3.16.93,3.16,2.5,0,.97-.61,1.54-1.52,1.84v.03c1.19.33,1.81,1.09,1.81,2.27,0,1.83-1.54,2.77-3.4,2.77Z"/>
      <rect id="View_2F_B_8_4" style="cursor: pointer; pointer-events: all;" class="cls-1" x="55.33" y="196.92" width="18.28" height="21.04"/>
      <path d="M65.32,212.35v-2.11h-4.29v-1.48l4.39-5.51h1.52v5.73h1.39v1.25h-1.39v2.11h-1.62ZM62.22,209.05s.81-.06,1.32-.06h1.78v-2.58c0-.51.06-1.35.06-1.35h-.03s-.47.74-.84,1.21l-1.29,1.63c-.37.44-1.01,1.12-1.01,1.12v.03Z"/>
      <rect id="View_2F_B_8_5" style="cursor: pointer; pointer-events: all;" class="cls-1" x="73.61" y="196.92" width="18.28" height="21.04"/>
      <path d="M82.71,212.55c-1.97,0-3.37-1.1-3.49-2.69h1.64c.16.78.76,1.31,1.8,1.31s1.8-.73,1.8-1.82-.77-1.79-1.73-1.79c-.81,0-1.37.33-1.67.71h-1.58l.96-4.91h5.16v1.38h-3.97l-.49,2.31h.03c.47-.49,1.06-.77,1.97-.77,1.58,0,3.02,1.16,3.02,3.09s-1.46,3.18-3.44,3.18Z"/>
      <rect id="View_2F_B_8_6" style="cursor: pointer; pointer-events: all;" class="cls-1" x="91.88" y="196.92" width="18.28" height="21.04"/>
      <path d="M101.27,212.56c-1.14,0-2-.4-2.59-1.06-.8-.85-1.13-2.05-1.13-3.65-.01-1.43.3-2.64.97-3.48.63-.78,1.51-1.21,2.73-1.21,1.85,0,2.86,1.1,3.07,2.32h-1.62c-.1-.52-.54-1.07-1.43-1.07-1.43,0-2.08,1.12-2.15,3.16h.03c.54-.83,1.29-1.26,2.33-1.26,1.7,0,3.09,1.33,3.1,3.11.01,1.81-1.43,3.16-3.32,3.16ZM101.22,211.29c1.02,0,1.8-.77,1.8-1.84s-.78-1.86-1.81-1.86c-1.13,0-1.9.74-1.9,1.84s.84,1.86,1.91,1.86Z"/>
      <rect id="View_2F_B_8_7" style="cursor: pointer; pointer-events: all;" class="cls-1" x="110.16" y="196.92" width="18.28" height="21.04"/>
      <path d="M117.35,212.35c.16-3.21,1.86-6.12,3.61-7.6v-.03s-.94.06-1.92.06h-2.94v-1.43h6.49v1.3c-1.72,1.6-3.34,4.36-3.48,7.69h-1.76Z"/>
      <rect id="View_2F_B_8_8" style="cursor: pointer; pointer-events: all;" class="cls-1" x="128.44" y="196.92" width="18.28" height="21.04"/>
      <path d="M137.6,212.56c-1.95,0-3.62-.92-3.62-2.78,0-1.16.72-1.97,1.87-2.3v-.04c-.96-.32-1.46-.98-1.46-1.87,0-1.46,1.3-2.42,3.18-2.42s3.18.92,3.18,2.4c0,.87-.49,1.55-1.44,1.87v.04c1.18.3,1.86,1.16,1.86,2.29,0,1.89-1.62,2.82-3.57,2.82ZM137.58,206.93c1,0,1.58-.49,1.58-1.28s-.58-1.29-1.58-1.29-1.59.51-1.59,1.29.59,1.28,1.59,1.28ZM137.6,211.28c1.15,0,1.89-.61,1.89-1.57s-.71-1.63-1.9-1.63-1.91.63-1.91,1.63.72,1.57,1.92,1.57Z"/>
      <rect id="View_2F_B_8_9" style="cursor: pointer; pointer-events: all;" class="cls-1" x="146.72" y="196.92" width="18.28" height="21.04"/>
      <path d="M155.76,212.56c-1.86,0-3.09-1.07-3.25-2.4h1.63c.11.57.62,1.14,1.58,1.14.63,0,1.1-.21,1.44-.68.38-.48.57-1.26.62-2.37h-.03c-.56.72-1.3,1.16-2.3,1.16-1.75,0-3.15-1.31-3.15-3.12s1.43-3.13,3.39-3.13c.97,0,1.77.3,2.35.8.94.77,1.3,2.03,1.3,3.89,0,1.65-.33,2.98-1.14,3.79-.58.61-1.4.93-2.45.93ZM155.72,208.13c1.14,0,1.9-.76,1.9-1.86s-.82-1.84-1.89-1.84-1.86.77-1.86,1.84.77,1.86,1.85,1.86Z"/>
      <rect id="View_2F_B_8_10" style="cursor: pointer; pointer-events: all;" class="cls-1" x="164.99" y="196.92" width="18.28" height="21.04"/>
      <path d="M169.94,212.35v-6.15h-2.09v-1.11c1.24-.04,2.25-.53,2.45-1.81h1.3v9.07h-1.67ZM176.57,212.56c-2.26,0-3.73-1.84-3.73-4.71s1.51-4.7,3.75-4.7,3.75,1.79,3.75,4.7-1.43,4.71-3.76,4.71ZM176.58,211.2c1.43,0,2.02-1.3,2.02-3.35s-.62-3.36-2.02-3.36-2.02,1.33-2.02,3.36.63,3.35,2.02,3.35Z"/>
      <rect id="View_2F_B_8_11" style="cursor: pointer; pointer-events: all;" class="cls-1" x="183.27" y="196.92" width="18.28" height="21.04"/>
      <path d="M189.88,212.35v-6.15h-2.09v-1.11c1.24-.04,2.25-.53,2.45-1.81h1.3v9.07h-1.67ZM194.77,212.35v-6.15h-2.09v-1.11c1.24-.04,2.25-.53,2.45-1.81h1.3v9.07h-1.67Z"/>
      <rect id="View_2F_B_8_12" style="cursor: pointer; pointer-events: all;" class="cls-1" x="201.55" y="196.92" width="18.28" height="21.04"/>
      <path d="M206.97,212.35v-6.15h-2.09v-1.11c1.24-.04,2.25-.53,2.45-1.81h1.3v9.07h-1.67ZM209.76,212.35c.04-1.1.39-1.84.96-2.49.76-.85,1.83-1.48,2.72-2.06.84-.53,1.33-.96,1.33-1.78,0-.9-.58-1.5-1.54-1.5-.53,0-.92.16-1.2.48-.32.34-.46.82-.46,1.46h-1.63c0-.96.24-1.64.71-2.22.54-.67,1.47-1.07,2.67-1.07,1.97,0,3.15,1.21,3.15,2.82,0,1.33-.76,1.96-1.75,2.61-.94.72-2.24,1.34-2.78,2.25v.06h4.45v1.44h-6.63Z"/>
      <rect id="View_2F_B_8_13" style="cursor: pointer; pointer-events: all;" class="cls-1" x="219.82" y="196.92" width="18.28" height="21.04"/>
      <path d="M225.11,212.35v-6.15h-2.09v-1.11c1.24-.04,2.25-.53,2.45-1.81h1.3v9.07h-1.67ZM231.49,212.56c-1.1,0-1.97-.28-2.63-.8-.68-.56-1.06-1.39-1.08-2.36h1.59c.05,1.09.73,1.83,2.05,1.83,1.08,0,1.77-.54,1.77-1.57,0-.96-.71-1.45-1.95-1.45h-.56v-1.2h.52c1.13,0,1.75-.48,1.75-1.3s-.66-1.3-1.56-1.3c-1.14,0-1.73.74-1.76,1.64h-1.58c.03-1.67,1.25-2.9,3.38-2.9,1.81,0,3.16.93,3.16,2.5,0,.97-.61,1.54-1.52,1.84v.03c1.19.33,1.81,1.09,1.81,2.27,0,1.83-1.54,2.77-3.4,2.77Z"/>
      <rect id="View_2F_B_8_14" style="cursor: pointer; pointer-events: all;" class="cls-1" x="238.1" y="196.92" width="18.28" height="21.04"/>
      <path d="M243.3,212.35v-6.15h-2.09v-1.11c1.24-.04,2.25-.53,2.45-1.81h1.3v9.07h-1.67ZM250.54,212.35v-2.11h-4.29v-1.48l4.39-5.51h1.52v5.73h1.39v1.25h-1.39v2.11h-1.62ZM247.44,209.05s.81-.06,1.32-.06h1.78v-2.58c0-.51.06-1.35.06-1.35h-.03s-.47.74-.84,1.21l-1.29,1.63c-.37.44-1.01,1.12-1.01,1.12v.03Z"/>
    </g>
  </g>
</svg>