<?xml version="1.0" encoding="UTF-8"?>
<svg id="_레이어_2" data-name="레이어 2" xmlns="http://www.w3.org/2000/svg" viewBox="0 0 565.78 88.91">
  <defs>
    <style>
      .cls-1 {
        stroke-miterlimit: 4;
        stroke-width: 1px;
      }

      .cls-1, .cls-2 {
        fill: none;
        stroke: #000;
      }
    </style>
  </defs>
  <g id="_1F" data-name="1F">
    <g id="_1f_OP" data-name="1f OP">
      <rect id="View_1F_OP_1_1" style="cursor: pointer; pointer-events: all;" class="cls-1" x="54.81" y="2.97" width="21.05" height="18.28" transform="translate(45.37 75.49) rotate(-83.01)"/>
      <path d="M64.65,16.98l.75-6.1-2.07-.25.13-1.1c1.24.11,2.3-.25,2.66-1.49l1.29.16-1.11,9-1.66-.2Z"/>
      <rect id="View_1F_OP_1_2" style="cursor: pointer; pointer-events: all;" class="cls-1" x="72.95" y="5.2" width="21.05" height="18.28" transform="translate(59.09 95.45) rotate(-83.01)"/>
      <path d="M79.52,18.8c.17-1.08.62-1.78,1.26-2.35.86-.75,2-1.24,2.95-1.71.89-.43,1.44-.79,1.54-1.61.11-.89-.39-1.56-1.35-1.68-.53-.07-.94.05-1.25.33-.36.3-.55.76-.63,1.4l-1.62-.2c.12-.95.44-1.6.97-2.12.62-.6,1.59-.89,2.78-.74,1.96.24,2.98,1.59,2.78,3.18-.16,1.32-.99,1.85-2.05,2.38-1.02.6-2.39,1.06-3.04,1.89v.06s4.41.54,4.41.54l-.18,1.43-6.58-.81Z"/>
      <rect id="View_1F_OP_1_3" style="cursor: pointer; pointer-events: all;" class="cls-1" x="91.09" y="7.42" width="21.05" height="18.28" transform="translate(72.82 115.41) rotate(-83.01)"/>
      <path d="M101.07,21.65c-1.09-.13-1.92-.51-2.52-1.11-.61-.64-.89-1.51-.78-2.47l1.58.19c-.08,1.08.5,1.91,1.81,2.07,1.07.13,1.82-.32,1.95-1.34.12-.95-.53-1.53-1.76-1.68l-.55-.07.15-1.19.51.06c1.12.14,1.79-.26,1.89-1.08.1-.8-.49-1.37-1.39-1.48-1.13-.14-1.81.53-1.95,1.42l-1.57-.19c.23-1.65,1.6-2.73,3.71-2.47,1.8.22,3.03,1.31,2.83,2.87-.12.97-.79,1.45-1.73,1.65v.02c1.14.47,1.66,1.3,1.52,2.48-.22,1.82-1.87,2.56-3.72,2.33Z"/>
      <rect id="View_1F_OP_2_1" style="cursor: pointer; pointer-events: all;" class="cls-1" x="18.53" y="26.05" width="21.05" height="18.28" transform="translate(-9.41 59.75) rotate(-83.01)"/>
      <path d="M28.37,40.05l.75-6.1-2.07-.25.14-1.1c1.24.11,2.3-.25,2.66-1.49l1.29.16-1.11,9-1.66-.2Z"/>
      <rect id="View_1F_OP_2_2" style="cursor: pointer; pointer-events: all;" class="cls-1" x="36.67" y="28.27" width="21.05" height="18.28" transform="translate(4.32 79.7) rotate(-83.01)"/>
      <path d="M43.24,41.88c.17-1.09.61-1.78,1.26-2.35.86-.75,2-1.24,2.95-1.71.89-.43,1.44-.79,1.54-1.61.11-.89-.39-1.56-1.35-1.68-.53-.06-.94.05-1.25.33-.36.3-.55.76-.63,1.4l-1.62-.2c.12-.95.44-1.6.98-2.12.62-.6,1.59-.89,2.78-.74,1.96.24,2.98,1.59,2.78,3.18-.16,1.32-.99,1.85-2.05,2.38-1.02.6-2.39,1.06-3.04,1.89v.06s4.41.54,4.41.54l-.18,1.43-6.58-.81Z"/>
      <rect id="View_1F_OP_2_3" style="cursor: pointer; pointer-events: all;" class="cls-1" x="54.81" y="30.5" width="21.05" height="18.28" transform="translate(18.05 99.66) rotate(-83.01)"/>
      <path d="M64.79,44.73c-1.09-.13-1.93-.51-2.52-1.11-.61-.64-.89-1.51-.78-2.47l1.58.19c-.08,1.08.5,1.91,1.81,2.07,1.07.13,1.82-.32,1.95-1.34.12-.95-.53-1.53-1.76-1.68l-.55-.07.15-1.19.52.06c1.12.14,1.79-.26,1.89-1.08.1-.8-.49-1.37-1.38-1.48-1.13-.14-1.81.53-1.95,1.42l-1.57-.19c.23-1.65,1.6-2.73,3.71-2.47,1.8.22,3.03,1.31,2.83,2.87-.12.97-.79,1.45-1.73,1.65v.02c1.14.47,1.66,1.3,1.52,2.48-.22,1.82-1.87,2.56-3.72,2.33Z"/>
      <rect id="View_1F_OP_2_4" style="cursor: pointer; pointer-events: all;" class="cls-1" x="72.95" y="32.72" width="21.05" height="18.28" transform="translate(31.78 119.62) rotate(-83.01)"/>
      <path d="M83.72,46.83l.26-2.09-4.26-.52.18-1.47,5.03-4.93,1.51.19-.7,5.69,1.38.17-.15,1.24-1.38-.17-.26,2.09-1.61-.2ZM81.04,43.19s.81.04,1.31.1l1.77.22.31-2.56c.06-.5.23-1.33.23-1.33h-.03s-.56.68-.98,1.1l-1.48,1.46c-.42.39-1.14.99-1.14.99v.03Z"/>
      <rect id="View_1F_OP_2_5" style="cursor: pointer; pointer-events: all;" class="cls-1" x="91.09" y="34.94" width="21.05" height="18.28" transform="translate(45.51 139.58) rotate(-83.01)"/>
      <path d="M100.96,49.15c-1.96-.24-3.21-1.5-3.14-3.09l1.63.2c.07.8.59,1.4,1.62,1.52,1.07.13,1.87-.51,2-1.59.14-1.12-.55-1.87-1.5-1.99-.8-.1-1.4.16-1.74.5l-1.57-.19,1.55-4.76,5.12.63-.17,1.37-3.94-.48-.77,2.23h.03c.52-.43,1.15-.63,2.05-.52,1.57.19,2.86,1.52,2.62,3.44-.24,1.93-1.83,2.98-3.8,2.74Z"/>
      <rect id="View_1F_OP_3_1" style="cursor: pointer; pointer-events: all;" class="cls-1" x=".39" y="51.35" width="21.05" height="18.28" transform="translate(-50.45 63.96) rotate(-83.01)"/>
      <path d="M10.23,65.35l.75-6.1-2.07-.25.14-1.1c1.23.11,2.3-.25,2.66-1.49l1.29.16-1.11,9-1.66-.2Z"/>
      <rect id="View_1F_OP_3_2" style="cursor: pointer; pointer-events: all;" class="cls-1" x="18.53" y="53.57" width="21.05" height="18.28" transform="translate(-36.73 83.92) rotate(-83.01)"/>
      <path d="M25.1,67.17c.17-1.09.61-1.78,1.26-2.35.86-.75,2-1.24,2.95-1.71.89-.42,1.44-.79,1.54-1.61.11-.89-.39-1.56-1.35-1.68-.53-.06-.94.05-1.25.33-.36.3-.55.76-.63,1.4l-1.62-.2c.12-.95.44-1.6.98-2.12.62-.6,1.59-.89,2.78-.74,1.96.24,2.98,1.59,2.78,3.18-.16,1.32-.99,1.85-2.05,2.38-1.02.6-2.39,1.06-3.04,1.89v.06s4.41.54,4.41.54l-.18,1.43-6.58-.81Z"/>
      <rect id="View_1F_OP_3_3" style="cursor: pointer; pointer-events: all;" class="cls-1" x="36.67" y="55.8" width="21.05" height="18.28" transform="translate(-23 103.88) rotate(-83.01)"/>
      <path d="M46.65,70.03c-1.09-.13-1.93-.51-2.52-1.11-.61-.63-.89-1.51-.78-2.47l1.58.19c-.08,1.08.5,1.91,1.81,2.07,1.07.13,1.82-.32,1.95-1.34.12-.95-.53-1.53-1.76-1.68l-.55-.07.15-1.19.52.06c1.12.14,1.79-.27,1.89-1.08.1-.8-.49-1.37-1.38-1.48-1.13-.14-1.81.53-1.95,1.42l-1.57-.19c.23-1.65,1.6-2.73,3.71-2.47,1.8.22,3.03,1.31,2.83,2.87-.12.97-.79,1.45-1.73,1.64v.03c1.14.47,1.66,1.3,1.52,2.48-.22,1.82-1.87,2.56-3.72,2.33Z"/>
      <rect id="View_1F_OP_3_4" style="cursor: pointer; pointer-events: all;" class="cls-1" x="54.81" y="58.02" width="21.05" height="18.28" transform="translate(-9.27 123.84) rotate(-83.01)"/>
      <path d="M65.58,72.13l.26-2.09-4.26-.52.18-1.47,5.03-4.93,1.51.19-.7,5.69,1.38.17-.15,1.24-1.38-.17-.26,2.09-1.61-.2ZM62.9,68.49s.81.04,1.31.1l1.77.22.31-2.56c.06-.5.23-1.33.23-1.33h-.03s-.56.68-.98,1.1l-1.48,1.46c-.42.39-1.14.99-1.14.99v.03Z"/>
      <rect id="View_1F_OP_3_5" style="cursor: pointer; pointer-events: all;" class="cls-1" x="72.95" y="60.24" width="21.05" height="18.28" transform="translate(4.46 143.8) rotate(-83.01)"/>
      <path d="M82.82,74.45c-1.96-.24-3.21-1.5-3.14-3.09l1.63.2c.07.8.59,1.4,1.62,1.52,1.07.13,1.87-.51,2-1.59.14-1.12-.55-1.87-1.5-1.99-.8-.1-1.4.16-1.74.5l-1.57-.19,1.55-4.76,5.12.63-.17,1.37-3.94-.48-.77,2.23h.03c.52-.43,1.15-.63,2.05-.52,1.57.19,2.86,1.52,2.62,3.44-.24,1.93-1.83,2.98-3.8,2.74Z"/>
      <rect id="View_1F_OP_3_6" style="cursor: pointer; pointer-events: all;" class="cls-1" x="91.09" y="62.46" width="21.05" height="18.28" transform="translate(18.19 163.76) rotate(-83.01)"/>
      <path d="M101.23,76.72c-1.13-.14-1.93-.64-2.44-1.37-.69-.94-.87-2.17-.67-3.76.16-1.42.62-2.58,1.39-3.34.72-.7,1.64-1.02,2.86-.87,1.83.22,2.7,1.44,2.77,2.68l-1.61-.2c-.04-.53-.41-1.13-1.29-1.24-1.42-.17-2.2.86-2.52,2.87h.03c.64-.76,1.44-1.09,2.46-.97,1.68.21,2.9,1.69,2.7,3.46-.21,1.79-1.81,2.96-3.68,2.73ZM101.34,75.45c1.02.12,1.88-.55,2.01-1.61.13-1.09-.55-1.94-1.57-2.06-1.12-.14-1.98.51-2.11,1.6-.13,1.08.6,1.94,1.67,2.07Z"/>
      <rect id="View_1F_OP_1_18" style="cursor: pointer; pointer-events: all;" class="cls-1" x="455.03" y="6.04" width="18.28" height="21.05" transform="translate(1.43 56.57) rotate(-6.99)"/>
      <path d="M460.86,21.91l-.75-6.1-2.07.25-.13-1.1c1.23-.19,2.17-.8,2.22-2.09l1.29-.16,1.11,9-1.66.2ZM467.25,21.34c-1.93.24-3.7-.48-3.93-2.32-.14-1.15.48-2.04,1.58-2.51v-.04c-1-.2-1.57-.8-1.68-1.68-.18-1.45,1-2.56,2.86-2.79,1.87-.23,3.26.53,3.45,2,.11.86-.3,1.6-1.2,2.03v.04c1.21.16,1.99.93,2.13,2.04.23,1.88-1.26,2.99-3.2,3.23ZM466.53,15.76c.99-.12,1.51-.68,1.41-1.46-.1-.78-.74-1.21-1.73-1.09-.99.12-1.52.7-1.42,1.47.1.78.75,1.19,1.74,1.07ZM467.09,20.06c1.14-.14,1.8-.83,1.68-1.78-.12-.99-.9-1.53-2.08-1.38-1.18.14-1.82.86-1.7,1.85.12.96.91,1.47,2.1,1.32Z"/>
      <rect id="View_1F_OP_1_19" style="cursor: pointer; pointer-events: all;" class="cls-1" x="473.17" y="3.81" width="18.28" height="21.05" transform="translate(1.84 58.76) rotate(-6.99)"/>
      <path d="M478.99,19.69l-.75-6.1-2.07.25-.14-1.1c1.23-.19,2.17-.8,2.22-2.09l1.29-.16,1.11,9-1.66.2ZM485.27,19.14c-1.85.23-3.2-.69-3.52-1.99l1.62-.2c.18.55.75,1.05,1.71.94.63-.08,1.07-.35,1.35-.85.32-.52.41-1.32.33-2.43h-.03c-.46.79-1.15,1.31-2.14,1.44-1.73.21-3.29-.92-3.51-2.71-.22-1.78,1.04-3.28,2.98-3.52.97-.12,1.8.09,2.43.5,1.02.65,1.54,1.86,1.77,3.7.2,1.64.04,3-.67,3.9-.5.67-1.28,1.1-2.32,1.23ZM484.69,14.74c1.13-.14,1.79-.98,1.66-2.07-.13-1.08-1.04-1.73-2.1-1.6-1.09.13-1.75.99-1.62,2.06.13,1.06.99,1.75,2.06,1.62Z"/>
      <rect id="View_1F_OP_1_20" style="cursor: pointer; pointer-events: all;" class="cls-1" x="491.31" y="1.59" width="18.28" height="21.05" transform="translate(2.24 60.95) rotate(-6.99)"/>
      <path d="M493.58,17.9c-.1-1.09.16-1.88.65-2.59.65-.93,1.64-1.69,2.45-2.37.76-.63,1.2-1.11,1.1-1.93-.11-.89-.76-1.42-1.72-1.3-.53.06-.9.28-1.13.62-.27.38-.35.87-.27,1.51l-1.62.2c-.12-.95.04-1.66.43-2.29.46-.73,1.33-1.24,2.52-1.39,1.96-.24,3.28.82,3.47,2.41.16,1.32-.51,2.03-1.41,2.81-.84.83-2.06,1.6-2.49,2.57v.06s4.43-.54,4.43-.54l.18,1.43-6.58.81ZM504.69,16.75c-2.25.28-3.93-1.37-4.28-4.22-.35-2.86.92-4.85,3.14-5.12,2.26-.28,3.94,1.32,4.29,4.21.35,2.85-.84,4.85-3.15,5.13ZM504.54,15.4c1.42-.17,1.85-1.54,1.6-3.57-.25-2.01-1.03-3.26-2.42-3.09-1.38.17-1.85,1.56-1.6,3.58.25,2,1.04,3.24,2.42,3.07Z"/>
      <rect id="View_1F_OP_2_20" style="cursor: pointer; pointer-events: all;" class="cls-1" x="455.03" y="33.56" width="18.28" height="21.05" transform="translate(-1.92 56.78) rotate(-6.99)"/>
      <path d="M457.3,49.87c-.1-1.1.16-1.88.65-2.59.65-.93,1.64-1.69,2.45-2.37.76-.63,1.2-1.11,1.1-1.93-.11-.89-.76-1.42-1.72-1.3-.53.06-.9.27-1.13.62-.27.38-.35.87-.27,1.51l-1.62.2c-.12-.95.04-1.66.43-2.29.46-.73,1.33-1.24,2.52-1.39,1.96-.24,3.28.82,3.47,2.41.16,1.32-.51,2.04-1.41,2.81-.84.83-2.06,1.6-2.49,2.57v.06s4.43-.54,4.43-.54l.18,1.43-6.58.81ZM468.41,48.72c-2.25.27-3.93-1.38-4.28-4.22-.35-2.86.92-4.84,3.14-5.12,2.26-.28,3.94,1.32,4.29,4.21.35,2.85-.84,4.85-3.15,5.13ZM468.26,47.37c1.42-.17,1.85-1.54,1.6-3.57-.25-2-1.02-3.26-2.42-3.09-1.38.17-1.85,1.56-1.6,3.58.25,2,1.04,3.24,2.42,3.08Z"/>
      <rect id="View_1F_OP_2_21" style="cursor: pointer; pointer-events: all;" class="cls-1" x="473.17" y="31.33" width="18.28" height="21.05" transform="translate(-1.51 58.97) rotate(-6.99)"/>
      <path d="M477.09,47.44c-.1-1.09.16-1.88.65-2.59.65-.93,1.64-1.69,2.45-2.37.76-.63,1.2-1.11,1.1-1.93-.11-.89-.76-1.42-1.72-1.3-.53.06-.9.28-1.13.62-.27.38-.35.87-.27,1.51l-1.62.2c-.12-.95.04-1.66.43-2.29.46-.73,1.33-1.24,2.52-1.39,1.96-.24,3.28.82,3.47,2.41.16,1.32-.51,2.03-1.41,2.81-.84.83-2.06,1.6-2.49,2.57v.06s4.43-.54,4.43-.54l.18,1.43-6.58.81ZM486.45,46.3l-.75-6.1-2.07.25-.13-1.1c1.23-.19,2.17-.8,2.22-2.09l1.29-.16,1.11,9-1.66.2Z"/>
      <rect id="View_1F_OP_2_22" style="cursor: pointer; pointer-events: all;" class="cls-1" x="491.31" y="29.11" width="18.28" height="21.05" transform="translate(-1.11 61.16) rotate(-6.99)"/>
      <path d="M494.06,45.36c-.1-1.09.16-1.88.65-2.59.65-.93,1.64-1.69,2.45-2.37.76-.63,1.2-1.11,1.1-1.93-.11-.89-.76-1.42-1.72-1.3-.53.06-.9.28-1.13.62-.27.38-.35.87-.27,1.51l-1.62.2c-.12-.95.04-1.66.43-2.29.46-.73,1.33-1.24,2.52-1.39,1.96-.24,3.28.82,3.47,2.41.16,1.32-.51,2.03-1.41,2.81-.84.83-2.06,1.6-2.49,2.57v.06s4.43-.54,4.43-.54l.18,1.43-6.58.81ZM501.33,44.47c-.1-1.1.16-1.88.65-2.59.65-.93,1.64-1.69,2.45-2.37.76-.63,1.2-1.11,1.1-1.93-.11-.89-.76-1.42-1.72-1.3-.53.06-.9.27-1.13.62-.27.38-.35.87-.27,1.51l-1.62.2c-.12-.95.04-1.66.43-2.29.46-.73,1.33-1.24,2.52-1.39,1.96-.24,3.28.82,3.47,2.41.16,1.32-.51,2.04-1.41,2.81-.84.83-2.06,1.6-2.49,2.57v.06s4.43-.54,4.43-.54l.18,1.43-6.58.81Z"/>
      <rect id="View_1F_OP_2_23" style="cursor: pointer; pointer-events: all;" class="cls-1" x="509.45" y="26.89" width="18.28" height="21.05" transform="translate(-.7 63.35) rotate(-6.99)"/>
      <path d="M512.1,43.15c-.1-1.09.16-1.88.65-2.59.65-.93,1.64-1.69,2.45-2.37.76-.63,1.2-1.11,1.1-1.93-.11-.89-.76-1.42-1.72-1.3-.53.06-.9.28-1.13.62-.27.38-.35.87-.27,1.51l-1.62.2c-.12-.95.04-1.66.43-2.29.46-.73,1.33-1.24,2.52-1.39,1.96-.24,3.28.82,3.47,2.41.16,1.32-.51,2.03-1.41,2.81-.84.83-2.06,1.6-2.49,2.57v.06s4.43-.54,4.43-.54l.18,1.43-6.58.81ZM522.89,42.05c-1.09.13-1.99-.04-2.71-.47-.75-.47-1.22-1.25-1.36-2.21l1.58-.2c.18,1.07.95,1.73,2.26,1.57,1.07-.13,1.69-.75,1.57-1.77-.12-.95-.88-1.36-2.11-1.21l-.55.07-.15-1.19.51-.06c1.12-.14,1.67-.69,1.57-1.5-.1-.8-.81-1.21-1.7-1.1-1.13.14-1.63.95-1.55,1.84l-1.57.19c-.18-1.66.89-3.03,3-3.29,1.8-.22,3.25.54,3.45,2.1.12.97-.41,1.6-1.28,2.01v.03c1.22.18,1.93.86,2.08,2.04.22,1.82-1.2,2.93-3.04,3.16Z"/>
      <rect id="View_1F_OP_2_24" style="cursor: pointer; pointer-events: all;" class="cls-1" x="527.59" y="24.67" width="18.28" height="21.05" transform="translate(-.3 65.54) rotate(-6.99)"/>
      <path d="M530.24,40.93c-.1-1.1.16-1.88.65-2.59.65-.93,1.64-1.69,2.45-2.37.76-.63,1.2-1.11,1.1-1.93-.11-.89-.76-1.42-1.72-1.3-.53.06-.9.28-1.13.62-.27.38-.35.87-.27,1.51l-1.62.2c-.12-.95.04-1.66.43-2.29.46-.73,1.33-1.24,2.52-1.39,1.96-.24,3.28.82,3.47,2.41.16,1.32-.51,2.04-1.41,2.81-.84.83-2.06,1.6-2.49,2.57v.06s4.43-.54,4.43-.54l.18,1.43-6.58.81ZM541.68,39.53l-.26-2.09-4.26.52-.18-1.47,3.68-6,1.51-.18.7,5.69,1.38-.17.15,1.24-1.38.17.26,2.09-1.61.2ZM538.2,36.64s.8-.16,1.3-.22l1.77-.22-.31-2.56c-.06-.5-.1-1.35-.1-1.35h-.03s-.37.8-.68,1.31l-1.08,1.77c-.31.48-.87,1.24-.87,1.24v.03Z"/>
      <rect id="View_1F_OP_3_21" style="cursor: pointer; pointer-events: all;" class="cls-1" x="455.03" y="61.08" width="18.28" height="21.05" transform="translate(-5.26 56.98) rotate(-6.99)"/>
      <path d="M458.95,77.19c-.1-1.09.16-1.88.65-2.59.65-.93,1.64-1.69,2.45-2.37.76-.63,1.2-1.11,1.1-1.93-.11-.89-.76-1.42-1.72-1.3-.53.07-.9.28-1.13.62-.27.38-.35.87-.27,1.51l-1.62.2c-.12-.95.04-1.66.43-2.29.46-.73,1.33-1.24,2.52-1.39,1.96-.24,3.28.82,3.47,2.41.16,1.32-.51,2.03-1.41,2.81-.84.83-2.06,1.6-2.49,2.57v.06s4.43-.54,4.43-.54l.18,1.43-6.58.81ZM468.31,76.04l-.75-6.1-2.07.25-.14-1.1c1.23-.19,2.17-.8,2.22-2.09l1.29-.16,1.11,9-1.66.2Z"/>
      <rect id="View_1F_OP_3_22" style="cursor: pointer; pointer-events: all;" class="cls-1" x="473.17" y="58.86" width="18.28" height="21.05" transform="translate(-4.86 59.17) rotate(-6.99)"/>
      <path d="M475.92,75.11c-.1-1.1.16-1.88.65-2.59.65-.93,1.64-1.69,2.45-2.37.76-.63,1.2-1.11,1.1-1.93-.11-.89-.76-1.42-1.72-1.3-.53.06-.9.27-1.13.62-.27.38-.35.87-.27,1.51l-1.62.2c-.12-.95.04-1.66.43-2.29.46-.73,1.33-1.24,2.52-1.39,1.96-.24,3.28.82,3.47,2.41.16,1.32-.51,2.04-1.41,2.81-.84.83-2.06,1.6-2.49,2.57v.06s4.43-.54,4.43-.54l.18,1.43-6.58.81ZM483.18,74.22c-.1-1.09.16-1.88.65-2.59.65-.93,1.64-1.69,2.45-2.37.76-.63,1.2-1.11,1.1-1.93-.11-.89-.76-1.42-1.72-1.3-.53.06-.9.28-1.13.62-.27.38-.35.87-.27,1.51l-1.62.2c-.12-.95.04-1.66.43-2.29.46-.73,1.33-1.24,2.52-1.39,1.96-.24,3.28.82,3.47,2.41.16,1.32-.51,2.03-1.41,2.81-.84.83-2.06,1.6-2.49,2.57v.06s4.43-.54,4.43-.54l.18,1.43-6.58.81Z"/>
      <rect id="View_1F_OP_3_23" style="cursor: pointer; pointer-events: all;" class="cls-1" x="491.31" y="56.63" width="18.28" height="21.05" transform="translate(-4.45 61.36) rotate(-6.99)"/>
      <path d="M493.96,72.9c-.1-1.09.16-1.88.65-2.59.65-.93,1.64-1.69,2.45-2.37.76-.63,1.2-1.11,1.1-1.93-.11-.89-.76-1.42-1.72-1.3-.53.06-.9.28-1.13.62-.27.38-.35.87-.27,1.51l-1.62.2c-.12-.95.04-1.66.43-2.29.46-.73,1.33-1.24,2.52-1.39,1.96-.24,3.28.82,3.47,2.41.16,1.32-.51,2.03-1.41,2.81-.84.83-2.06,1.6-2.49,2.57v.06s4.43-.54,4.43-.54l.18,1.43-6.58.81ZM504.75,71.79c-1.09.13-1.99-.04-2.71-.47-.75-.47-1.22-1.25-1.36-2.21l1.58-.19c.18,1.07.95,1.73,2.26,1.57,1.07-.13,1.69-.75,1.57-1.77-.12-.95-.88-1.36-2.11-1.2l-.55.07-.15-1.19.51-.06c1.12-.14,1.67-.69,1.57-1.5-.1-.8-.81-1.21-1.7-1.1-1.13.14-1.63.95-1.55,1.84l-1.57.19c-.18-1.66.89-3.03,3-3.29,1.8-.22,3.25.54,3.45,2.1.12.96-.41,1.6-1.28,2.01v.03c1.22.18,1.93.86,2.08,2.04.22,1.82-1.2,2.93-3.04,3.16Z"/>
      <rect id="View_1F_OP_3_24" style="cursor: pointer; pointer-events: all;" class="cls-1" x="509.45" y="54.41" width="18.28" height="21.05" transform="translate(-4.05 63.55) rotate(-6.99)"/>
      <path d="M512.1,70.68c-.1-1.09.16-1.88.65-2.59.65-.93,1.64-1.69,2.45-2.37.76-.63,1.2-1.11,1.1-1.93-.11-.89-.76-1.42-1.72-1.3-.53.06-.9.27-1.13.62-.27.38-.35.87-.27,1.51l-1.62.2c-.12-.95.04-1.66.43-2.29.46-.73,1.33-1.24,2.52-1.39,1.96-.24,3.28.82,3.47,2.41.16,1.32-.51,2.03-1.41,2.81-.84.83-2.06,1.6-2.49,2.57v.06s4.43-.54,4.43-.54l.18,1.43-6.58.81ZM523.54,69.27l-.26-2.09-4.26.52-.18-1.47,3.69-6,1.51-.19.7,5.69,1.38-.17.15,1.24-1.38.17.26,2.09-1.61.2ZM520.06,66.38s.8-.16,1.3-.22l1.77-.22-.31-2.56c-.06-.5-.1-1.35-.1-1.35h-.03s-.37.8-.68,1.31l-1.08,1.77c-.31.48-.87,1.24-.87,1.24v.03Z"/>
      <rect id="View_1F_OP_3_25" style="cursor: pointer; pointer-events: all;" class="cls-1" x="527.59" y="52.19" width="18.28" height="21.05" transform="translate(-3.64 65.74) rotate(-6.99)"/>
      <path d="M530.33,68.44c-.1-1.09.16-1.88.65-2.59.65-.93,1.64-1.69,2.45-2.37.76-.63,1.2-1.11,1.1-1.93-.11-.89-.76-1.42-1.72-1.3-.53.06-.9.28-1.13.62-.27.38-.35.87-.27,1.51l-1.62.2c-.12-.95.04-1.66.43-2.29.46-.73,1.33-1.24,2.52-1.39,1.96-.24,3.28.82,3.47,2.41.16,1.32-.51,2.03-1.41,2.81-.84.83-2.06,1.6-2.49,2.57v.06s4.43-.54,4.43-.54l.18,1.43-6.58.81ZM540.92,67.35c-1.96.24-3.47-.68-3.79-2.24l1.63-.2c.26.76.91,1.21,1.94,1.08,1.07-.13,1.69-.95,1.56-2.02-.14-1.12-.99-1.69-1.94-1.57-.8.1-1.32.49-1.57.9l-1.57.19.35-4.99,5.12-.63.17,1.37-3.94.48-.21,2.35h.03c.4-.55.96-.9,1.86-1.01,1.57-.19,3.14.79,3.38,2.7.24,1.93-1.06,3.33-3.03,3.58Z"/>
      <rect id="View_1F_OP_3_26" style="cursor: pointer; pointer-events: all;" class="cls-1" x="545.73" y="49.97" width="18.28" height="21.05" transform="translate(-3.24 67.93) rotate(-6.99)"/>
      <path d="M548.29,66.24c-.1-1.1.16-1.88.65-2.59.65-.93,1.64-1.69,2.45-2.37.76-.63,1.2-1.11,1.1-1.93-.11-.89-.76-1.42-1.72-1.3-.53.06-.9.27-1.13.62-.27.38-.35.87-.27,1.51l-1.62.2c-.12-.95.04-1.66.43-2.29.46-.73,1.33-1.24,2.52-1.39,1.96-.24,3.28.82,3.47,2.41.16,1.32-.51,2.04-1.41,2.81-.84.83-2.06,1.6-2.49,2.57v.06s4.43-.54,4.43-.54l.18,1.43-6.58.81ZM559.33,65.1c-1.13.14-2.03-.16-2.7-.74-.89-.74-1.37-1.89-1.56-3.48-.19-1.42-.02-2.66.54-3.58.53-.85,1.35-1.39,2.57-1.54,1.83-.22,2.97.74,3.33,1.93l-1.61.2c-.16-.5-.67-1-1.55-.89-1.42.17-1.92,1.37-1.75,3.4h.03c.44-.9,1.13-1.41,2.16-1.54,1.68-.21,3.23.94,3.46,2.7.23,1.79-1.03,3.31-2.9,3.54ZM559.13,63.84c1.02-.12,1.69-.98,1.56-2.05-.13-1.09-1.01-1.75-2.02-1.62-1.12.14-1.79.97-1.66,2.06.13,1.08,1.06,1.74,2.12,1.61Z"/>
      <rect id="View_1F_OP_1_4" style="cursor: pointer; pointer-events: all;" class="cls-2" x="154.95" y="11.25" width="18.28" height="21.04"/>
      <path d="M164.94,26.68v-2.11h-4.29v-1.48l4.39-5.51h1.52v5.73h1.39v1.25h-1.39v2.11h-1.62ZM161.84,23.39s.81-.06,1.32-.06h1.78v-2.58c0-.51.06-1.35.06-1.35h-.03s-.47.74-.84,1.21l-1.29,1.63c-.37.44-1.01,1.12-1.01,1.12v.03Z"/>
      <rect id="View_1F_OP_1_5" style="cursor: pointer; pointer-events: all;" class="cls-2" x="173.23" y="11.25" width="18.28" height="21.04"/>
      <path d="M182.33,26.88c-1.97,0-3.37-1.1-3.49-2.69h1.64c.16.78.76,1.31,1.8,1.31s1.8-.73,1.8-1.82-.77-1.79-1.73-1.79c-.81,0-1.37.33-1.67.71h-1.58l.96-4.91h5.16v1.38h-3.97l-.49,2.31h.03c.47-.49,1.06-.77,1.97-.77,1.58,0,3.02,1.16,3.02,3.09s-1.46,3.18-3.44,3.18Z"/>
      <rect id="View_1F_OP_1_6" style="cursor: pointer; pointer-events: all;" class="cls-2" x="191.5" y="11.25" width="18.28" height="21.04"/>
      <path d="M200.89,26.9c-1.14,0-2-.4-2.59-1.06-.8-.85-1.13-2.05-1.13-3.65-.01-1.43.3-2.64.97-3.49.63-.78,1.51-1.21,2.73-1.21,1.85,0,2.86,1.1,3.07,2.32h-1.62c-.1-.52-.54-1.07-1.43-1.07-1.43,0-2.08,1.12-2.15,3.16h.03c.54-.83,1.29-1.26,2.33-1.26,1.7,0,3.09,1.33,3.1,3.11.01,1.81-1.43,3.16-3.32,3.16ZM200.84,25.62c1.02,0,1.8-.77,1.8-1.84s-.78-1.86-1.81-1.86c-1.13,0-1.9.74-1.9,1.84s.84,1.86,1.91,1.86Z"/>
      <rect id="View_1F_OP_1_7" style="cursor: pointer; pointer-events: all;" class="cls-2" x="209.78" y="11.25" width="18.28" height="21.04"/>
      <path d="M216.97,26.68c.16-3.21,1.86-6.12,3.61-7.6v-.03s-.94.06-1.92.06h-2.94v-1.43h6.49v1.3c-1.72,1.6-3.34,4.36-3.48,7.69h-1.76Z"/>
      <rect id="View_1F_OP_1_8" style="cursor: pointer; pointer-events: all;" class="cls-2" x="228.06" y="11.25" width="18.28" height="21.04"/>
      <path d="M237.22,26.9c-1.95,0-3.62-.92-3.62-2.78,0-1.16.72-1.97,1.87-2.3v-.04c-.96-.32-1.46-.98-1.46-1.87,0-1.46,1.3-2.42,3.18-2.42s3.18.92,3.18,2.4c0,.87-.49,1.55-1.44,1.87v.04c1.18.3,1.86,1.16,1.86,2.29,0,1.89-1.62,2.82-3.57,2.82ZM237.2,21.26c1,0,1.58-.49,1.58-1.28s-.58-1.29-1.58-1.29-1.59.51-1.59,1.29.59,1.28,1.59,1.28ZM237.22,25.61c1.15,0,1.89-.61,1.89-1.57s-.71-1.63-1.9-1.63-1.91.63-1.91,1.63.72,1.57,1.92,1.57Z"/>
      <rect id="View_1F_OP_1_9" style="cursor: pointer; pointer-events: all;" class="cls-2" x="246.34" y="11.25" width="18.28" height="21.04"/>
      <path d="M255.38,26.9c-1.86,0-3.09-1.07-3.25-2.4h1.63c.11.57.62,1.14,1.58,1.14.63,0,1.1-.21,1.44-.68.38-.48.57-1.26.62-2.37h-.03c-.56.72-1.3,1.16-2.3,1.16-1.75,0-3.15-1.31-3.15-3.12s1.43-3.13,3.39-3.13c.97,0,1.77.3,2.35.8.94.77,1.3,2.03,1.3,3.89,0,1.65-.33,2.98-1.14,3.79-.58.61-1.4.93-2.45.93ZM255.34,22.46c1.14,0,1.9-.76,1.9-1.86s-.82-1.84-1.89-1.84-1.86.77-1.86,1.84.77,1.86,1.85,1.86Z"/>
      <rect id="View_1F_OP_1_10" style="cursor: pointer; pointer-events: all;" class="cls-2" x="264.61" y="11.25" width="18.28" height="21.04"/>
      <path d="M269.56,26.68v-6.15h-2.09v-1.11c1.24-.04,2.25-.53,2.45-1.81h1.3v9.07h-1.67ZM276.19,26.9c-2.26,0-3.73-1.84-3.73-4.71s1.51-4.7,3.75-4.7,3.75,1.79,3.75,4.7-1.43,4.71-3.76,4.71ZM276.2,25.53c1.43,0,2.02-1.3,2.02-3.35s-.62-3.36-2.02-3.36-2.02,1.33-2.02,3.36.63,3.35,2.02,3.35Z"/>
      <rect id="View_1F_OP_1_11" style="cursor: pointer; pointer-events: all;" class="cls-2" x="282.89" y="11.25" width="18.28" height="21.04"/>
      <path d="M289.5,26.68v-6.15h-2.09v-1.11c1.24-.04,2.25-.53,2.45-1.81h1.3v9.07h-1.67ZM294.39,26.68v-6.15h-2.09v-1.11c1.24-.04,2.25-.53,2.45-1.81h1.3v9.07h-1.67Z"/>
      <rect id="View_1F_OP_1_12" style="cursor: pointer; pointer-events: all;" class="cls-2" x="301.17" y="11.25" width="18.28" height="21.04"/>
      <path d="M306.59,26.68v-6.15h-2.09v-1.11c1.24-.04,2.25-.53,2.45-1.81h1.3v9.07h-1.67ZM309.38,26.68c.04-1.1.39-1.84.96-2.49.76-.85,1.83-1.48,2.72-2.06.84-.53,1.33-.96,1.33-1.78,0-.9-.58-1.5-1.54-1.5-.53,0-.92.16-1.2.48-.32.34-.46.82-.46,1.46h-1.63c0-.96.24-1.64.71-2.22.54-.67,1.47-1.07,2.67-1.07,1.97,0,3.15,1.21,3.15,2.82,0,1.33-.76,1.96-1.75,2.61-.94.72-2.24,1.34-2.78,2.25v.06h4.45v1.44h-6.63Z"/>
      <rect id="View_1F_OP_1_13" style="cursor: pointer; pointer-events: all;" class="cls-2" x="319.44" y="11.25" width="18.28" height="21.04"/>
      <path d="M324.74,26.68v-6.15h-2.09v-1.11c1.24-.04,2.25-.53,2.45-1.81h1.3v9.07h-1.67ZM331.11,26.9c-1.1,0-1.97-.28-2.63-.8-.68-.56-1.06-1.39-1.08-2.36h1.59c.05,1.09.73,1.83,2.05,1.83,1.08,0,1.77-.54,1.77-1.57,0-.96-.71-1.45-1.95-1.45h-.56v-1.2h.52c1.13,0,1.75-.48,1.75-1.3s-.66-1.3-1.56-1.3c-1.14,0-1.73.74-1.76,1.64h-1.58c.03-1.67,1.25-2.9,3.38-2.9,1.81,0,3.16.93,3.16,2.5,0,.97-.61,1.54-1.52,1.84v.03c1.19.33,1.81,1.09,1.81,2.27,0,1.83-1.54,2.77-3.4,2.77Z"/>
      <rect id="View_1F_OP_1_14" style="cursor: pointer; pointer-events: all;" class="cls-2" x="337.72" y="11.25" width="18.28" height="21.04"/>
      <path d="M342.92,26.68v-6.15h-2.09v-1.11c1.24-.04,2.25-.53,2.45-1.81h1.3v9.07h-1.67ZM350.16,26.68v-2.11h-4.29v-1.48l4.39-5.51h1.52v5.73h1.39v1.25h-1.39v2.11h-1.62ZM347.06,23.39s.81-.06,1.32-.06h1.78v-2.58c0-.51.06-1.35.06-1.35h-.03s-.47.74-.84,1.21l-1.29,1.63c-.37.44-1.01,1.12-1.01,1.12v.03Z"/>
      <rect id="View_1F_OP_1_15" style="cursor: pointer; pointer-events: all;" class="cls-2" x="356" y="11.25" width="18.28" height="21.04"/>
      <path d="M361.38,26.68v-6.15h-2.09v-1.11c1.24-.04,2.25-.53,2.45-1.81h1.3v9.07h-1.67ZM367.55,26.88c-1.97,0-3.37-1.1-3.49-2.69h1.64c.16.78.76,1.31,1.8,1.31s1.8-.73,1.8-1.82-.77-1.79-1.73-1.79c-.81,0-1.37.33-1.67.71h-1.58l.96-4.91h5.16v1.38h-3.97l-.49,2.31h.03c.47-.49,1.06-.77,1.97-.77,1.58,0,3.02,1.16,3.02,3.09s-1.46,3.18-3.44,3.18Z"/>
      <rect id="View_1F_OP_1_16" style="cursor: pointer; pointer-events: all;" class="cls-2" x="374.27" y="11.25" width="18.28" height="21.04"/>
      <path d="M379.47,26.68v-6.15h-2.09v-1.11c1.24-.04,2.25-.53,2.45-1.81h1.3v9.07h-1.67ZM386.1,26.9c-1.14,0-2-.4-2.59-1.06-.8-.85-1.13-2.05-1.13-3.65-.01-1.43.3-2.64.97-3.49.63-.78,1.51-1.21,2.73-1.21,1.85,0,2.86,1.1,3.07,2.32h-1.62c-.1-.52-.54-1.07-1.43-1.07-1.43,0-2.08,1.12-2.15,3.16h.03c.54-.83,1.29-1.26,2.33-1.26,1.7,0,3.09,1.33,3.1,3.11.01,1.81-1.43,3.16-3.32,3.16ZM386.05,25.62c1.02,0,1.8-.77,1.8-1.84s-.78-1.86-1.81-1.86c-1.13,0-1.9.74-1.9,1.84s.84,1.86,1.91,1.86Z"/>
      <rect id="View_1F_OP_1_17" style="cursor: pointer; pointer-events: all;" class="cls-2" x="392.55" y="11.25" width="18.28" height="21.04"/>
      <path d="M398.21,26.68v-6.15h-2.09v-1.11c1.24-.04,2.25-.53,2.45-1.81h1.3v9.07h-1.67ZM402.19,26.68c.16-3.21,1.86-6.12,3.61-7.6v-.03s-.94.06-1.92.06h-2.94v-1.43h6.49v1.3c-1.72,1.6-3.34,4.36-3.48,7.69h-1.76Z"/>
      <rect id="View_1F_OP_2_6" style="cursor: pointer; pointer-events: all;" class="cls-2" x="154.95" y="39.31" width="18.28" height="21.04"/>
      <path d="M164.33,54.96c-1.14,0-2-.4-2.59-1.06-.8-.85-1.13-2.05-1.13-3.65-.01-1.43.3-2.64.97-3.49.63-.78,1.51-1.21,2.73-1.21,1.85,0,2.86,1.1,3.07,2.32h-1.62c-.1-.52-.54-1.07-1.43-1.07-1.43,0-2.08,1.12-2.15,3.16h.03c.54-.83,1.29-1.26,2.33-1.26,1.7,0,3.09,1.33,3.1,3.11.01,1.81-1.43,3.16-3.32,3.16ZM164.28,53.68c1.02,0,1.8-.77,1.8-1.84s-.78-1.86-1.81-1.86c-1.13,0-1.9.74-1.9,1.84s.84,1.86,1.91,1.86Z"/>
      <rect id="View_1F_OP_2_7" style="cursor: pointer; pointer-events: all;" class="cls-2" x="173.23" y="39.31" width="18.28" height="21.04"/>
      <path d="M180.41,54.74c.16-3.21,1.86-6.12,3.61-7.6v-.03s-.94.06-1.92.06h-2.94v-1.43h6.49v1.3c-1.72,1.6-3.34,4.36-3.48,7.69h-1.76Z"/>
      <rect id="View_1F_OP_2_8" style="cursor: pointer; pointer-events: all;" class="cls-2" x="191.5" y="39.31" width="18.28" height="21.04"/>
      <path d="M200.67,54.96c-1.95,0-3.62-.92-3.62-2.78,0-1.16.72-1.97,1.87-2.3v-.04c-.96-.32-1.46-.98-1.46-1.87,0-1.46,1.3-2.42,3.18-2.42s3.18.92,3.18,2.4c0,.87-.49,1.55-1.44,1.87v.04c1.18.3,1.86,1.16,1.86,2.29,0,1.89-1.62,2.82-3.57,2.82ZM200.64,49.32c1,0,1.58-.49,1.58-1.28s-.58-1.29-1.58-1.29-1.59.51-1.59,1.29.59,1.28,1.59,1.28ZM200.67,53.67c1.15,0,1.89-.61,1.89-1.57s-.71-1.63-1.9-1.63-1.91.63-1.91,1.63.72,1.57,1.92,1.57Z"/>
      <rect id="View_1F_OP_2_9" style="cursor: pointer; pointer-events: all;" class="cls-2" x="209.78" y="39.31" width="18.28" height="21.04"/>
      <path d="M218.83,54.96c-1.86,0-3.09-1.07-3.25-2.4h1.63c.11.57.62,1.14,1.58,1.14.63,0,1.1-.21,1.44-.68.38-.48.57-1.26.62-2.37h-.03c-.56.72-1.3,1.16-2.3,1.16-1.75,0-3.15-1.31-3.15-3.12s1.43-3.13,3.39-3.13c.97,0,1.77.3,2.35.8.94.77,1.3,2.03,1.3,3.89,0,1.65-.33,2.98-1.14,3.79-.58.61-1.4.93-2.45.93ZM218.79,50.52c1.14,0,1.9-.76,1.9-1.86s-.82-1.84-1.89-1.84-1.86.77-1.86,1.84.77,1.86,1.85,1.86Z"/>
      <rect id="View_1F_OP_2_10" style="cursor: pointer; pointer-events: all;" class="cls-2" x="228.06" y="39.31" width="18.28" height="21.04"/>
      <path d="M233,54.74v-6.15h-2.09v-1.11c1.24-.04,2.25-.53,2.45-1.81h1.3v9.07h-1.67ZM239.63,54.96c-2.26,0-3.73-1.84-3.73-4.71s1.51-4.7,3.75-4.7,3.75,1.79,3.75,4.7-1.43,4.71-3.76,4.71ZM239.65,53.59c1.43,0,2.02-1.3,2.02-3.35s-.62-3.36-2.02-3.36-2.02,1.33-2.02,3.36.63,3.35,2.02,3.35Z"/>
      <rect id="View_1F_OP_2_11" style="cursor: pointer; pointer-events: all;" class="cls-2" x="246.34" y="39.31" width="18.28" height="21.04"/>
      <path d="M252.94,54.74v-6.15h-2.09v-1.11c1.24-.04,2.25-.53,2.45-1.81h1.3v9.07h-1.67ZM257.84,54.74v-6.15h-2.09v-1.11c1.24-.04,2.25-.53,2.45-1.81h1.3v9.07h-1.67Z"/>
      <rect id="View_1F_OP_2_12" style="cursor: pointer; pointer-events: all;" class="cls-2" x="264.61" y="39.31" width="18.28" height="21.04"/>
      <path d="M270.04,54.74v-6.15h-2.09v-1.11c1.24-.04,2.25-.53,2.45-1.81h1.3v9.07h-1.67ZM272.82,54.74c.04-1.1.39-1.84.96-2.49.76-.85,1.83-1.48,2.72-2.06.84-.53,1.33-.96,1.33-1.78,0-.9-.58-1.5-1.54-1.5-.53,0-.92.16-1.2.48-.32.34-.46.82-.46,1.46h-1.63c0-.96.24-1.64.71-2.22.54-.67,1.47-1.07,2.67-1.07,1.97,0,3.15,1.21,3.15,2.82,0,1.33-.76,1.96-1.75,2.61-.94.72-2.24,1.34-2.78,2.25v.06h4.45v1.44h-6.63Z"/>
      <rect id="View_1F_OP_2_13" style="cursor: pointer; pointer-events: all;" class="cls-2" x="282.89" y="39.31" width="18.28" height="21.04"/>
      <path d="M288.18,54.74v-6.15h-2.09v-1.11c1.24-.04,2.25-.53,2.45-1.81h1.3v9.07h-1.67ZM294.56,54.96c-1.1,0-1.97-.28-2.63-.8-.68-.56-1.06-1.39-1.08-2.36h1.59c.05,1.09.73,1.83,2.05,1.83,1.08,0,1.77-.54,1.77-1.57,0-.96-.71-1.45-1.95-1.45h-.56v-1.2h.52c1.13,0,1.75-.48,1.75-1.3s-.66-1.3-1.56-1.3c-1.14,0-1.73.74-1.76,1.64h-1.58c.03-1.67,1.25-2.9,3.38-2.9,1.81,0,3.16.93,3.16,2.5,0,.97-.61,1.54-1.52,1.84v.03c1.19.33,1.81,1.09,1.81,2.27,0,1.83-1.54,2.77-3.4,2.77Z"/>
      <rect id="View_1F_OP_2_14" style="cursor: pointer; pointer-events: all;" class="cls-2" x="301.17" y="39.31" width="18.28" height="21.04"/>
      <path d="M306.37,54.74v-6.15h-2.09v-1.11c1.24-.04,2.25-.53,2.45-1.81h1.3v9.07h-1.67ZM313.6,54.74v-2.11h-4.29v-1.48l4.39-5.51h1.52v5.73h1.39v1.25h-1.39v2.11h-1.62ZM310.5,51.44s.81-.06,1.32-.06h1.78v-2.58c0-.51.06-1.35.06-1.35h-.03s-.47.74-.84,1.21l-1.29,1.63c-.37.44-1.01,1.12-1.01,1.12v.03Z"/>
      <rect id="View_1F_OP_2_15" style="cursor: pointer; pointer-events: all;" class="cls-2" x="319.44" y="39.31" width="18.28" height="21.04"/>
      <path d="M324.82,54.74v-6.15h-2.09v-1.11c1.24-.04,2.25-.53,2.45-1.81h1.3v9.07h-1.67ZM331,54.94c-1.97,0-3.37-1.1-3.49-2.69h1.64c.16.78.76,1.31,1.8,1.31s1.8-.73,1.8-1.82-.77-1.79-1.73-1.79c-.81,0-1.37.33-1.67.71h-1.58l.96-4.91h5.16v1.38h-3.97l-.49,2.31h.03c.47-.49,1.06-.77,1.97-.77,1.58,0,3.02,1.16,3.02,3.09s-1.46,3.18-3.44,3.18Z"/>
      <rect id="View_1F_OP_2_16" style="cursor: pointer; pointer-events: all;" class="cls-2" x="337.72" y="39.31" width="18.28" height="21.04"/>
      <path d="M342.92,54.74v-6.15h-2.09v-1.11c1.24-.04,2.25-.53,2.45-1.81h1.3v9.07h-1.67ZM349.55,54.96c-1.14,0-2-.4-2.59-1.06-.8-.85-1.13-2.05-1.13-3.65-.01-1.43.3-2.64.97-3.49.63-.78,1.51-1.21,2.73-1.21,1.85,0,2.86,1.1,3.07,2.32h-1.62c-.1-.52-.54-1.07-1.43-1.07-1.43,0-2.08,1.12-2.15,3.16h.03c.54-.83,1.29-1.26,2.33-1.26,1.7,0,3.09,1.33,3.1,3.11.01,1.81-1.43,3.16-3.32,3.16ZM349.5,53.68c1.02,0,1.8-.77,1.8-1.84s-.78-1.86-1.81-1.86c-1.13,0-1.9.74-1.9,1.84s.84,1.86,1.91,1.86Z"/>
      <rect id="View_1F_OP_2_17" style="cursor: pointer; pointer-events: all;" class="cls-2" x="356" y="39.31" width="18.28" height="21.04"/>
      <path d="M361.66,54.74v-6.15h-2.09v-1.11c1.24-.04,2.25-.53,2.45-1.81h1.3v9.07h-1.67ZM365.63,54.74c.16-3.21,1.86-6.12,3.61-7.6v-.03s-.94.06-1.92.06h-2.94v-1.43h6.49v1.3c-1.72,1.6-3.34,4.36-3.48,7.69h-1.76Z"/>
      <rect id="View_1F_OP_2_18" style="cursor: pointer; pointer-events: all;" class="cls-2" x="374.27" y="39.31" width="18.28" height="21.04"/>
      <path d="M379.49,54.74v-6.15h-2.09v-1.11c1.24-.04,2.25-.53,2.45-1.81h1.3v9.07h-1.67ZM385.89,54.96c-1.95,0-3.62-.92-3.62-2.78,0-1.16.72-1.97,1.87-2.3v-.04c-.96-.32-1.46-.98-1.46-1.87,0-1.46,1.3-2.42,3.18-2.42s3.18.92,3.18,2.4c0,.87-.49,1.55-1.44,1.87v.04c1.18.3,1.86,1.16,1.86,2.29,0,1.89-1.62,2.82-3.57,2.82ZM385.86,49.32c1,0,1.58-.49,1.58-1.28s-.58-1.29-1.58-1.29-1.59.51-1.59,1.29.59,1.28,1.59,1.28ZM385.89,53.67c1.15,0,1.89-.61,1.89-1.57s-.71-1.63-1.9-1.63-1.91.63-1.91,1.63.72,1.57,1.92,1.57Z"/>
      <rect id="View_1F_OP_2_19" style="cursor: pointer; pointer-events: all;" class="cls-2" x="392.55" y="39.31" width="18.28" height="21.04"/>
      <path d="M397.74,54.74v-6.15h-2.09v-1.11c1.24-.04,2.25-.53,2.45-1.81h1.3v9.07h-1.67ZM404.05,54.96c-1.86,0-3.09-1.07-3.25-2.4h1.63c.11.57.62,1.14,1.58,1.14.63,0,1.1-.21,1.44-.68.38-.48.57-1.26.62-2.37h-.03c-.56.72-1.3,1.16-2.3,1.16-1.75,0-3.15-1.31-3.15-3.12s1.43-3.13,3.39-3.13c.97,0,1.77.3,2.35.8.94.77,1.3,2.03,1.3,3.89,0,1.65-.33,2.98-1.14,3.79-.58.61-1.4.93-2.45.93ZM404.01,50.52c1.14,0,1.9-.76,1.9-1.86s-.82-1.84-1.89-1.84-1.86.77-1.86,1.84.77,1.86,1.85,1.86Z"/>
      <rect id="View_1F_OP_3_7" style="cursor: pointer; pointer-events: all;" class="cls-2" x="154.95" y="67.37" width="18.28" height="21.04"/>
      <path d="M162.14,82.8c.16-3.21,1.86-6.12,3.61-7.6v-.03s-.94.06-1.92.06h-2.94v-1.43h6.49v1.3c-1.72,1.6-3.34,4.36-3.48,7.69h-1.76Z"/>
      <rect id="View_1F_OP_3_8" style="cursor: pointer; pointer-events: all;" class="cls-2" x="173.23" y="67.37" width="18.28" height="21.04"/>
      <path d="M182.39,83.01c-1.95,0-3.62-.92-3.62-2.78,0-1.16.72-1.97,1.87-2.3v-.04c-.96-.32-1.46-.98-1.46-1.87,0-1.46,1.3-2.42,3.18-2.42s3.18.92,3.18,2.4c0,.87-.49,1.55-1.44,1.87v.04c1.18.3,1.86,1.16,1.86,2.29,0,1.89-1.62,2.82-3.57,2.82ZM182.37,77.38c1,0,1.58-.49,1.58-1.28s-.58-1.29-1.58-1.29-1.59.51-1.59,1.29.59,1.28,1.59,1.28ZM182.39,81.73c1.15,0,1.89-.61,1.89-1.57s-.71-1.63-1.9-1.63-1.91.63-1.91,1.63.72,1.57,1.92,1.57Z"/>
      <rect id="View_1F_OP_3_9" style="cursor: pointer; pointer-events: all;" class="cls-2" x="191.5" y="67.37" width="18.28" height="21.04"/>
      <path d="M200.55,83.01c-1.86,0-3.09-1.07-3.25-2.4h1.63c.11.57.62,1.14,1.58,1.14.63,0,1.1-.21,1.44-.68.38-.48.57-1.26.62-2.37h-.03c-.56.72-1.3,1.16-2.3,1.16-1.75,0-3.15-1.31-3.15-3.12s1.43-3.13,3.39-3.13c.97,0,1.77.3,2.35.8.94.77,1.3,2.03,1.3,3.89,0,1.65-.33,2.98-1.14,3.79-.58.61-1.4.93-2.45.93ZM200.51,78.58c1.14,0,1.9-.76,1.9-1.86s-.82-1.84-1.89-1.84-1.86.77-1.86,1.84.77,1.86,1.85,1.86Z"/>
      <rect id="View_1F_OP_3_10" style="cursor: pointer; pointer-events: all;" class="cls-2" x="209.78" y="67.37" width="18.28" height="21.04"/>
      <path d="M214.73,82.8v-6.15h-2.09v-1.11c1.24-.04,2.25-.53,2.45-1.81h1.3v9.07h-1.67ZM221.36,83.01c-2.26,0-3.73-1.84-3.73-4.71s1.51-4.7,3.75-4.7,3.75,1.79,3.75,4.7-1.43,4.71-3.76,4.71ZM221.37,81.65c1.43,0,2.02-1.3,2.02-3.35s-.62-3.36-2.02-3.36-2.02,1.33-2.02,3.36.63,3.35,2.02,3.35Z"/>
      <rect id="View_1F_OP_3_11" style="cursor: pointer; pointer-events: all;" class="cls-2" x="228.06" y="67.37" width="18.28" height="21.04"/>
      <path d="M234.67,82.8v-6.15h-2.09v-1.11c1.24-.04,2.25-.53,2.45-1.81h1.3v9.07h-1.67ZM239.56,82.8v-6.15h-2.09v-1.11c1.24-.04,2.25-.53,2.45-1.81h1.3v9.07h-1.67Z"/>
      <rect id="View_1F_OP_3_12" style="cursor: pointer; pointer-events: all;" class="cls-2" x="246.34" y="67.37" width="18.28" height="21.04"/>
      <path d="M251.76,82.8v-6.15h-2.09v-1.11c1.24-.04,2.25-.53,2.45-1.81h1.3v9.07h-1.67ZM254.55,82.8c.04-1.1.39-1.84.96-2.49.76-.85,1.83-1.48,2.72-2.06.84-.53,1.33-.96,1.33-1.78,0-.9-.58-1.5-1.54-1.5-.53,0-.92.16-1.2.48-.32.34-.46.82-.46,1.46h-1.63c0-.96.24-1.64.71-2.22.54-.67,1.47-1.07,2.67-1.07,1.97,0,3.15,1.21,3.15,2.82,0,1.33-.76,1.96-1.75,2.61-.94.72-2.24,1.34-2.78,2.25v.06h4.45v1.44h-6.63Z"/>
      <rect id="View_1F_OP_3_13" style="cursor: pointer; pointer-events: all;" class="cls-2" x="264.61" y="67.37" width="18.28" height="21.04"/>
      <path d="M269.9,82.8v-6.15h-2.09v-1.11c1.24-.04,2.25-.53,2.45-1.81h1.3v9.07h-1.67ZM276.28,83.01c-1.1,0-1.97-.28-2.63-.8-.68-.56-1.06-1.39-1.08-2.36h1.59c.05,1.09.73,1.83,2.05,1.83,1.08,0,1.77-.54,1.77-1.57,0-.96-.71-1.45-1.95-1.45h-.56v-1.2h.52c1.13,0,1.75-.48,1.75-1.3s-.66-1.3-1.56-1.3c-1.14,0-1.73.74-1.76,1.64h-1.58c.03-1.67,1.25-2.9,3.38-2.9,1.81,0,3.16.93,3.16,2.5,0,.97-.61,1.54-1.52,1.84v.03c1.19.33,1.81,1.09,1.81,2.27,0,1.83-1.54,2.77-3.4,2.77Z"/>
      <rect id="View_1F_OP_3_14" style="cursor: pointer; pointer-events: all;" class="cls-2" x="282.89" y="67.37" width="18.28" height="21.04"/>
      <path d="M288.09,82.8v-6.15h-2.09v-1.11c1.24-.04,2.25-.53,2.45-1.81h1.3v9.07h-1.67ZM295.33,82.8v-2.11h-4.29v-1.48l4.39-5.51h1.52v5.73h1.39v1.25h-1.39v2.11h-1.62ZM292.23,79.5s.81-.06,1.32-.06h1.78v-2.58c0-.51.06-1.35.06-1.35h-.03s-.47.74-.84,1.21l-1.29,1.63c-.37.44-1.01,1.12-1.01,1.12v.03Z"/>
      <rect id="View_1F_OP_3_15" style="cursor: pointer; pointer-events: all;" class="cls-2" x="301.17" y="67.37" width="18.28" height="21.04"/>
      <path d="M306.55,82.8v-6.15h-2.09v-1.11c1.24-.04,2.25-.53,2.45-1.81h1.3v9.07h-1.67ZM312.72,83c-1.97,0-3.37-1.1-3.49-2.69h1.64c.16.78.76,1.31,1.8,1.31s1.8-.73,1.8-1.82-.77-1.79-1.73-1.79c-.81,0-1.37.33-1.67.71h-1.58l.96-4.91h5.16v1.38h-3.97l-.49,2.31h.03c.47-.49,1.06-.77,1.97-.77,1.58,0,3.02,1.16,3.02,3.09s-1.46,3.18-3.44,3.18Z"/>
      <rect id="View_1F_OP_3_16" style="cursor: pointer; pointer-events: all;" class="cls-2" x="319.44" y="67.37" width="18.28" height="21.04"/>
      <path d="M324.64,82.8v-6.15h-2.09v-1.11c1.24-.04,2.25-.53,2.45-1.81h1.3v9.07h-1.67ZM331.27,83.01c-1.14,0-2-.4-2.59-1.06-.8-.85-1.13-2.05-1.13-3.65-.01-1.43.3-2.64.97-3.49.63-.78,1.51-1.21,2.73-1.21,1.85,0,2.86,1.1,3.07,2.32h-1.62c-.1-.52-.54-1.07-1.43-1.07-1.43,0-2.08,1.12-2.15,3.16h.03c.54-.83,1.29-1.26,2.33-1.26,1.7,0,3.09,1.33,3.1,3.11.01,1.81-1.43,3.16-3.32,3.16ZM331.22,81.74c1.02,0,1.8-.77,1.8-1.84s-.78-1.86-1.81-1.86c-1.13,0-1.9.74-1.9,1.84s.84,1.86,1.91,1.86Z"/>
      <rect id="View_1F_OP_3_17" style="cursor: pointer; pointer-events: all;" class="cls-2" x="337.72" y="67.37" width="18.28" height="21.04"/>
      <path d="M343.38,82.8v-6.15h-2.09v-1.11c1.24-.04,2.25-.53,2.45-1.81h1.3v9.07h-1.67ZM347.36,82.8c.16-3.21,1.86-6.12,3.61-7.6v-.03s-.94.06-1.92.06h-2.94v-1.43h6.49v1.3c-1.72,1.6-3.34,4.36-3.48,7.69h-1.76Z"/>
      <rect id="View_1F_OP_3_18" style="cursor: pointer; pointer-events: all;" class="cls-2" x="356" y="67.37" width="18.28" height="21.04"/>
      <path d="M361.21,82.8v-6.15h-2.09v-1.11c1.24-.04,2.25-.53,2.45-1.81h1.3v9.07h-1.67ZM367.61,83.01c-1.95,0-3.62-.92-3.62-2.78,0-1.16.72-1.97,1.87-2.3v-.04c-.96-.32-1.46-.98-1.46-1.87,0-1.46,1.3-2.42,3.18-2.42s3.18.92,3.18,2.4c0,.87-.49,1.55-1.44,1.87v.04c1.18.3,1.86,1.16,1.86,2.29,0,1.89-1.62,2.82-3.57,2.82ZM367.59,77.38c1,0,1.58-.49,1.58-1.28s-.58-1.29-1.58-1.29-1.59.51-1.59,1.29.59,1.28,1.59,1.28ZM367.61,81.73c1.15,0,1.89-.61,1.89-1.57s-.71-1.63-1.9-1.63-1.91.63-1.91,1.63.72,1.57,1.92,1.57Z"/>
      <rect id="View_1F_OP_3_19" style="cursor: pointer; pointer-events: all;" class="cls-2" x="374.27" y="67.37" width="18.28" height="21.04"/>
      <path d="M379.47,82.8v-6.15h-2.09v-1.11c1.24-.04,2.25-.53,2.45-1.81h1.3v9.07h-1.67ZM385.77,83.01c-1.86,0-3.09-1.07-3.25-2.4h1.63c.11.57.62,1.14,1.58,1.14.63,0,1.1-.21,1.44-.68.38-.48.57-1.26.62-2.37h-.03c-.56.72-1.3,1.16-2.3,1.16-1.75,0-3.15-1.31-3.15-3.12s1.43-3.13,3.39-3.13c.97,0,1.77.3,2.35.8.94.77,1.3,2.03,1.3,3.89,0,1.65-.33,2.98-1.14,3.79-.58.61-1.4.93-2.45.93ZM385.73,78.58c1.14,0,1.9-.76,1.9-1.86s-.82-1.84-1.89-1.84-1.86.77-1.86,1.84.77,1.86,1.85,1.86Z"/>
      <rect id="View_1F_OP_3_20" style="cursor: pointer; pointer-events: all;" class="cls-2" x="392.55" y="67.37" width="18.28" height="21.04"/>
      <path d="M394.17,82.8c.04-1.1.39-1.84.96-2.49.76-.85,1.83-1.48,2.72-2.06.84-.53,1.33-.96,1.33-1.78,0-.9-.58-1.5-1.54-1.5-.53,0-.92.16-1.2.48-.32.34-.46.82-.46,1.46h-1.63c0-.96.24-1.64.71-2.22.54-.67,1.47-1.07,2.67-1.07,1.97,0,3.15,1.21,3.15,2.82,0,1.33-.76,1.96-1.75,2.61-.94.72-2.24,1.34-2.78,2.25v.06h4.45v1.44h-6.63ZM405.34,83.01c-2.26,0-3.73-1.84-3.73-4.71s1.51-4.7,3.75-4.7,3.75,1.79,3.75,4.7-1.43,4.71-3.76,4.71ZM405.35,81.65c1.43,0,2.02-1.3,2.02-3.35s-.62-3.36-2.02-3.36-2.02,1.33-2.02,3.36.63,3.35,2.02,3.35Z"/>
    </g>
  </g>
</svg>