<?xml version="1.0" encoding="UTF-8"?>
<svg id="svg_3F_A" data-name="svg_3F_A" xmlns="http://www.w3.org/2000/svg" viewBox="0 0 150 184">
  <defs>
    <style>
      .cls-1 {
        fill: none;
        stroke: #000;
      }
    </style>
  </defs>
  <g id="_3F" data-name="3F">
    <g id="_3f_A" data-name="3f A">
      <rect id="View_3F_A_1_1" style="cursor: pointer; pointer-events: all;" class="cls-1" x=".39" y="2.97" width="21.05" height="18.28" transform="translate(-2.44 21.47) rotate(-83.01)"/>
      <path d="M10.23,16.98l.75-6.1-2.07-.25.13-1.1c1.24.11,2.3-.25,2.66-1.49l1.29.16-1.11,9-1.66-.2Z"/>
      <rect id="View_3F_A_1_2" style="cursor: pointer; pointer-events: all;" class="cls-1" x="18.53" y="5.2" width="21.05" height="18.28" transform="translate(11.29 41.43) rotate(-83.01)"/>
      <path d="M25.1,18.8c.17-1.09.61-1.78,1.26-2.35.86-.75,2-1.24,2.95-1.71.89-.43,1.44-.79,1.54-1.6.11-.89-.4-1.56-1.35-1.68-.53-.06-.94.05-1.25.33-.36.3-.55.76-.63,1.4l-1.62-.2c.12-.95.44-1.6.97-2.12.62-.6,1.59-.89,2.78-.74,1.96.24,2.98,1.59,2.78,3.18-.16,1.32-.99,1.85-2.05,2.38-1.02.6-2.39,1.06-3.04,1.89v.06s4.41.54,4.41.54l-.18,1.43-6.58-.81Z"/>
      <rect id="View_3F_A_1_3" style="cursor: pointer; pointer-events: all;" class="cls-1" x="36.67" y="7.42" width="21.05" height="18.28" transform="translate(25.02 61.39) rotate(-83.01)"/>
      <path d="M46.65,21.65c-1.09-.13-1.92-.51-2.52-1.11-.61-.64-.88-1.51-.78-2.47l1.58.19c-.08,1.08.5,1.91,1.81,2.07,1.07.13,1.82-.32,1.95-1.34.12-.95-.53-1.53-1.76-1.68l-.55-.07.15-1.19.51.06c1.12.14,1.79-.26,1.89-1.08.1-.8-.49-1.37-1.39-1.48-1.13-.14-1.81.53-1.95,1.42l-1.57-.19c.23-1.65,1.6-2.73,3.71-2.47,1.8.22,3.03,1.31,2.83,2.87-.12.97-.79,1.45-1.73,1.65v.02c1.14.47,1.66,1.3,1.52,2.48-.22,1.82-1.87,2.56-3.72,2.33Z"/>
      <rect id="View_3F_A_1_4" style="cursor: pointer; pointer-events: all;" class="cls-1" x="54.81" y="9.64" width="21.05" height="18.28" transform="translate(38.75 81.35) rotate(-83.01)"/>
      <path d="M65.58,23.76l.26-2.09-4.26-.52.18-1.47,5.03-4.93,1.51.18-.7,5.69,1.38.17-.15,1.24-1.38-.17-.26,2.09-1.61-.2ZM62.9,20.11s.81.04,1.31.1l1.77.22.31-2.56c.06-.5.23-1.33.23-1.33h-.03s-.56.68-.98,1.1l-1.48,1.46c-.42.39-1.14.99-1.14.99v.02Z"/>
      <rect id="View_3F_A_1_5" style="cursor: pointer; pointer-events: all;" class="cls-1" x="72.95" y="11.86" width="21.05" height="18.28" transform="translate(52.48 101.3) rotate(-83.01)"/>
      <path d="M82.82,26.07c-1.96-.24-3.21-1.5-3.14-3.09l1.63.2c.07.8.59,1.39,1.62,1.52,1.07.13,1.87-.51,2-1.59.14-1.12-.55-1.87-1.5-1.99-.8-.1-1.4.16-1.74.5l-1.57-.19,1.55-4.76,5.12.63-.17,1.37-3.94-.48-.77,2.23h.03c.53-.43,1.15-.63,2.05-.52,1.57.19,2.86,1.52,2.62,3.44-.24,1.93-1.83,2.98-3.8,2.74Z"/>
      <rect id="View_3F_A_1_6" style="cursor: pointer; pointer-events: all;" class="cls-1" x="91.09" y="14.09" width="21.05" height="18.28" transform="translate(66.2 121.26) rotate(-83.01)"/>
      <path d="M101.23,28.34c-1.13-.14-1.93-.64-2.44-1.37-.69-.94-.87-2.17-.67-3.76.16-1.42.62-2.58,1.39-3.34.72-.7,1.64-1.02,2.86-.87,1.83.22,2.7,1.44,2.77,2.68l-1.61-.2c-.04-.53-.41-1.13-1.29-1.24-1.42-.17-2.2.86-2.52,2.87h.02c.64-.76,1.44-1.09,2.47-.97,1.68.21,2.9,1.69,2.7,3.46-.21,1.79-1.81,2.96-3.68,2.73ZM101.34,27.07c1.02.12,1.88-.55,2.01-1.61.13-1.09-.55-1.94-1.57-2.06-1.12-.14-1.97.51-2.11,1.6-.13,1.08.6,1.94,1.67,2.08Z"/>
      <rect id="View_3F_A_1_7" style="cursor: pointer; pointer-events: all;" class="cls-1" x="109.23" y="16.31" width="21.05" height="18.28" transform="translate(79.93 141.22) rotate(-83.01)"/>
      <path d="M117.22,30.09c.56-3.16,2.59-5.85,4.51-7.11v-.03s-.93-.05-1.91-.17l-2.91-.36.17-1.42,6.44.79-.16,1.29c-1.9,1.38-3.85,3.92-4.39,7.21l-1.75-.21Z"/>
      <rect id="View_3F_A_1_8" style="cursor: pointer; pointer-events: all;" class="cls-1" x="127.37" y="18.53" width="21.05" height="18.28" transform="translate(93.66 161.18) rotate(-83.01)"/>
      <path d="M137.3,32.76c-1.93-.24-3.48-1.36-3.25-3.2.14-1.15.96-1.87,2.14-2.05v-.04c-.91-.43-1.32-1.15-1.21-2.03.18-1.45,1.59-2.25,3.45-2.02,1.87.23,3.04,1.3,2.86,2.77-.11.86-.68,1.48-1.66,1.68v.04c1.13.44,1.7,1.38,1.56,2.49-.23,1.88-1.95,2.6-3.89,2.36ZM137.96,27.17c.99.12,1.63-.3,1.73-1.07.1-.78-.42-1.35-1.41-1.47-.99-.12-1.64.31-1.74,1.08-.1.78.43,1.34,1.43,1.46ZM137.46,31.48c1.14.14,1.95-.37,2.06-1.32.12-.99-.5-1.7-1.69-1.85-1.18-.14-1.97.39-2.09,1.38-.12.97.52,1.64,1.72,1.79Z"/>
      <rect id="View_3F_A_2_1" style="cursor: pointer; pointer-events: all;" class="cls-1" x=".39" y="31.66" width="21.05" height="18.28" transform="translate(-30.91 46.67) rotate(-83.01)"/>
      <path d="M10.23,45.66l.75-6.1-2.07-.25.13-1.09c1.24.11,2.3-.25,2.66-1.5l1.29.15-1.11,9.01-1.66-.21Z"/>
      <rect id="View_3F_A_2_2" style="cursor: pointer; pointer-events: all;" class="cls-1" x="18.53" y="33.89" width="21.05" height="18.28" transform="translate(-17.18 66.63) rotate(-83.01)"/>
      <path d="M25.1,47.48c.17-1.08.61-1.78,1.26-2.34.86-.76,2-1.25,2.95-1.71.89-.43,1.44-.8,1.54-1.61.11-.88-.4-1.56-1.35-1.67-.53-.07-.94.04-1.25.32-.36.29-.55.76-.63,1.4l-1.62-.2c.12-.95.44-1.6.97-2.13.62-.59,1.59-.88,2.78-.73,1.96.24,2.98,1.59,2.78,3.17-.16,1.32-.99,1.85-2.05,2.39-1.02.6-2.39,1.05-3.04,1.89v.06s4.41.55,4.41.55l-.18,1.43-6.58-.81Z"/>
      <rect id="View_3F_A_2_3" style="cursor: pointer; pointer-events: all;" class="cls-1" x="36.67" y="36.11" width="21.05" height="18.28" transform="translate(-3.46 86.59) rotate(-83.01)"/>
      <path d="M46.65,50.34c-1.09-.14-1.92-.52-2.52-1.11-.61-.63-.88-1.52-.78-2.48l1.58.2c-.08,1.08.5,1.91,1.81,2.08,1.07.13,1.82-.34,1.95-1.35.12-.95-.53-1.53-1.76-1.68l-.55-.06.15-1.19.51.06c1.12.14,1.79-.27,1.89-1.08.1-.8-.49-1.36-1.39-1.47-1.13-.14-1.81.53-1.95,1.42l-1.57-.2c.23-1.66,1.6-2.72,3.71-2.47,1.8.22,3.03,1.3,2.83,2.86-.12.97-.79,1.46-1.73,1.64v.03c1.14.48,1.66,1.3,1.52,2.48-.22,1.81-1.87,2.55-3.72,2.33Z"/>
      <rect id="View_3F_A_2_4" style="cursor: pointer; pointer-events: all;" class="cls-1" x="54.81" y="38.32" width="21.05" height="18.28" transform="translate(10.28 106.54) rotate(-83.01)"/>
      <path d="M65.58,52.45l.26-2.09-4.26-.53.18-1.46,5.03-4.94,1.51.2-.7,5.68,1.38.17-.15,1.25-1.38-.17-.26,2.09-1.61-.2ZM62.9,48.8s.81.03,1.31.1l1.77.21.31-2.55c.06-.51.23-1.33.23-1.33h-.03s-.56.67-.98,1.09l-1.48,1.46c-.42.39-1.14,1-1.14,1v.03Z"/>
      <rect id="View_3F_A_2_5" style="cursor: pointer; pointer-events: all;" class="cls-1" x="72.95" y="40.56" width="21.05" height="18.28" transform="translate(24 126.51) rotate(-83.01)"/>
      <path d="M82.82,54.76c-1.96-.24-3.21-1.5-3.14-3.1l1.63.21c.07.79.59,1.39,1.62,1.52,1.07.13,1.87-.51,2-1.59.14-1.12-.55-1.88-1.5-1.99-.8-.1-1.4.17-1.74.51l-1.57-.2,1.55-4.76,5.12.63-.17,1.36-3.94-.49-.77,2.24h.03c.53-.43,1.15-.63,2.05-.52,1.57.18,2.86,1.52,2.62,3.44-.24,1.92-1.83,2.97-3.8,2.74Z"/>
      <rect id="View_3F_A_2_6" style="cursor: pointer; pointer-events: all;" class="cls-1" x="91.09" y="42.77" width="21.05" height="18.28" transform="translate(37.73 146.46) rotate(-83.01)"/>
      <path d="M101.23,57.04c-1.13-.14-1.93-.65-2.44-1.37-.69-.94-.87-2.16-.67-3.76.16-1.42.62-2.58,1.39-3.34.72-.7,1.64-1.02,2.86-.87,1.83.22,2.7,1.43,2.77,2.68l-1.61-.2c-.04-.53-.41-1.14-1.29-1.23-1.42-.18-2.2.86-2.52,2.86h.02c.64-.76,1.44-1.09,2.47-.97,1.68.21,2.9,1.7,2.7,3.47-.21,1.8-1.81,2.96-3.68,2.74ZM101.34,55.76c1.02.13,1.88-.55,2.01-1.61.13-1.09-.55-1.94-1.57-2.06-1.12-.14-1.97.51-2.11,1.6-.13,1.08.6,1.95,1.67,2.08Z"/>
      <rect id="View_3F_A_2_7" style="cursor: pointer; pointer-events: all;" class="cls-1" x="109.23" y="45" width="21.05" height="18.28" transform="translate(51.45 166.42) rotate(-83.01)"/>
      <path d="M117.22,58.78c.56-3.17,2.59-5.85,4.51-7.11h0s-.94-.07-1.92-.2l-2.91-.35.17-1.42,6.44.79-.16,1.29c-1.9,1.39-3.85,3.91-4.39,7.21l-1.75-.21Z"/>
      <rect id="View_3F_A_2_8" style="cursor: pointer; pointer-events: all;" class="cls-1" x="127.37" y="47.22" width="21.05" height="18.28" transform="translate(65.19 186.38) rotate(-83.01)"/>
      <path d="M137.3,61.46c-1.93-.24-3.48-1.36-3.25-3.2.14-1.15.96-1.87,2.14-2.06v-.03c-.91-.43-1.32-1.16-1.21-2.03.18-1.46,1.59-2.24,3.45-2.02,1.87.22,3.04,1.3,2.86,2.76-.11.87-.68,1.49-1.66,1.68v.03c1.13.45,1.7,1.39,1.56,2.5-.23,1.88-1.95,2.6-3.89,2.37ZM137.96,55.86c.99.13,1.63-.29,1.73-1.08.1-.77-.42-1.35-1.41-1.46-.99-.13-1.64.31-1.74,1.08s.43,1.33,1.43,1.46ZM137.46,60.17c1.14.14,1.95-.36,2.06-1.32.12-1-.5-1.7-1.69-1.85-1.18-.14-1.97.39-2.09,1.39-.12.97.52,1.64,1.72,1.78Z"/>
      <rect id="View_3F_A_3_1" style="cursor: pointer; pointer-events: all;" class="cls-1" x=".39" y="60.35" width="21.05" height="18.28" transform="translate(-59.39 71.87) rotate(-83.01)"/>
      <path d="M10.23,74.35l.75-6.1-2.07-.25.13-1.11c1.24.13,2.3-.25,2.66-1.49l1.29.15-1.11,9.01-1.66-.21Z"/>
      <rect id="View_3F_A_3_2" style="cursor: pointer; pointer-events: all;" class="cls-1" x="18.53" y="62.57" width="21.05" height="18.28" transform="translate(-45.65 91.82) rotate(-83.01)"/>
      <path d="M25.1,76.17c.17-1.08.61-1.78,1.26-2.36.86-.74,2-1.23,2.95-1.71.89-.42,1.44-.79,1.54-1.6.11-.88-.4-1.56-1.35-1.68-.53-.06-.94.06-1.25.34-.36.29-.55.76-.63,1.4l-1.62-.21c.12-.94.44-1.6.97-2.12.62-.59,1.59-.88,2.78-.73,1.96.24,2.98,1.59,2.78,3.17-.16,1.32-.99,1.85-2.05,2.38-1.02.6-2.39,1.05-3.04,1.89v.06s4.41.55,4.41.55l-.18,1.43-6.58-.81Z"/>
      <rect id="View_3F_A_3_3" style="cursor: pointer; pointer-events: all;" class="cls-1" x="36.67" y="64.8" width="21.05" height="18.28" transform="translate(-31.93 111.79) rotate(-83.01)"/>
      <path d="M46.65,79.04c-1.09-.14-1.92-.52-2.52-1.11-.61-.65-.88-1.52-.78-2.48l1.58.2c-.08,1.08.5,1.91,1.81,2.06,1.07.14,1.82-.32,1.95-1.33.12-.95-.53-1.53-1.76-1.68l-.55-.07.15-1.18.51.06c1.12.14,1.79-.27,1.89-1.08.1-.8-.49-1.36-1.39-1.47-1.13-.14-1.81.52-1.95,1.42l-1.57-.2c.23-1.66,1.6-2.74,3.71-2.47,1.8.21,3.03,1.3,2.83,2.86-.12.97-.79,1.46-1.73,1.64v.03c1.14.48,1.66,1.3,1.52,2.48-.22,1.81-1.87,2.55-3.72,2.33Z"/>
      <rect id="View_3F_A_3_4" style="cursor: pointer; pointer-events: all;" class="cls-1" x="54.81" y="67.02" width="21.05" height="18.28" transform="translate(-18.2 131.74) rotate(-83.01)"/>
      <path d="M65.58,81.14l.26-2.1-4.26-.52.18-1.46,5.03-4.94,1.51.18-.7,5.7,1.38.17-.15,1.25-1.38-.18-.26,2.1-1.61-.2ZM62.9,77.49s.81.03,1.31.1l1.77.21.31-2.55c.06-.51.23-1.33.23-1.33h-.03s-.56.67-.98,1.09l-1.48,1.46c-.42.39-1.14,1-1.14,1v.03Z"/>
      <rect id="View_3F_A_3_5" style="cursor: pointer; pointer-events: all;" class="cls-1" x="72.95" y="69.25" width="21.05" height="18.28" transform="translate(-4.48 151.71) rotate(-83.01)"/>
      <path d="M82.82,83.45c-1.96-.24-3.21-1.5-3.14-3.1l1.63.2c.07.8.59,1.4,1.62,1.53,1.07.13,1.87-.51,2-1.59.14-1.12-.55-1.88-1.5-1.99-.8-.1-1.4.15-1.74.49l-1.57-.18,1.55-4.76,5.12.62-.17,1.37-3.94-.49-.77,2.24h.03c.53-.44,1.15-.65,2.05-.53,1.57.2,2.86,1.53,2.62,3.44-.24,1.94-1.83,2.99-3.8,2.75Z"/>
      <rect id="View_3F_A_3_6" style="cursor: pointer; pointer-events: all;" class="cls-1" x="91.09" y="71.46" width="21.05" height="18.28" transform="translate(9.25 171.66) rotate(-83.01)"/>
      <path d="M101.23,85.71c-1.13-.13-1.93-.65-2.44-1.36-.69-.94-.87-2.17-.67-3.76.16-1.42.62-2.58,1.39-3.34.72-.7,1.64-1.02,2.86-.87,1.83.22,2.7,1.43,2.77,2.68l-1.61-.2c-.04-.53-.41-1.14-1.29-1.25-1.42-.17-2.2.87-2.52,2.88h.02c.64-.76,1.44-1.09,2.47-.97,1.68.21,2.9,1.7,2.7,3.47-.21,1.8-1.81,2.96-3.68,2.72ZM101.34,84.45c1.02.13,1.88-.55,2.01-1.61.13-1.09-.55-1.94-1.57-2.06-1.12-.14-1.97.51-2.11,1.6-.13,1.08.6,1.94,1.67,2.08Z"/>
      <rect id="View_3F_A_3_7" style="cursor: pointer; pointer-events: all;" class="cls-1" x="109.23" y="73.69" width="21.05" height="18.28" transform="translate(22.97 191.63) rotate(-83.01)"/>
      <path d="M117.22,87.47c.56-3.17,2.59-5.86,4.51-7.11v-.03s-.93-.04-1.91-.17l-2.91-.35.17-1.42,6.44.79-.16,1.29c-1.9,1.39-3.85,3.91-4.39,7.21l-1.75-.21Z"/>
      <rect id="View_3F_A_3_8" style="cursor: pointer; pointer-events: all;" class="cls-1" x="127.37" y="75.91" width="21.05" height="18.28" transform="translate(36.71 211.58) rotate(-83.01)"/>
      <path d="M137.3,90.13c-1.93-.22-3.48-1.35-3.25-3.18.14-1.16.96-1.88,2.14-2.06v-.04c-.91-.42-1.32-1.15-1.21-2.02.18-1.46,1.59-2.26,3.45-2.02,1.87.22,3.04,1.29,2.86,2.76-.11.87-.68,1.49-1.66,1.68v.03c1.13.45,1.7,1.39,1.56,2.5-.23,1.88-1.95,2.6-3.89,2.36ZM137.96,84.55c.99.11,1.63-.29,1.73-1.08.1-.77-.42-1.35-1.41-1.47-.99-.11-1.64.31-1.74,1.09-.1.77.43,1.33,1.43,1.46ZM137.46,88.86c1.14.14,1.95-.36,2.06-1.32.12-1-.5-1.71-1.69-1.85-1.18-.14-1.97.39-2.09,1.39-.12.97.52,1.64,1.72,1.78Z"/>
      <rect id="View_3F_A_4_1" style="cursor: pointer; pointer-events: all;" class="cls-1" x=".39" y="89.04" width="21.05" height="18.28" transform="translate(-87.87 97.07) rotate(-83.01)"/>
      <path d="M10.23,103.04l.75-6.1-2.07-.25.13-1.11c1.24.11,2.3-.25,2.66-1.49l1.29.15-1.11,9.01-1.66-.21Z"/>
      <rect id="View_3F_A_4_2" style="cursor: pointer; pointer-events: all;" class="cls-1" x="18.53" y="91.26" width="21.05" height="18.28" transform="translate(-74.13 117.02) rotate(-83.01)"/>
      <path d="M25.1,104.86c.17-1.08.61-1.78,1.26-2.36.86-.74,2-1.23,2.95-1.71.89-.42,1.44-.79,1.54-1.6.11-.9-.4-1.56-1.35-1.68-.53-.06-.94.06-1.25.34-.36.29-.55.76-.63,1.39l-1.62-.2c.12-.95.44-1.6.97-2.12.62-.59,1.59-.88,2.78-.74,1.96.24,2.98,1.59,2.78,3.18-.16,1.32-.99,1.85-2.05,2.38-1.02.59-2.39,1.05-3.04,1.89v.06s4.41.55,4.41.55l-.18,1.42-6.58-.8Z"/>
      <rect id="View_3F_A_4_3" style="cursor: pointer; pointer-events: all;" class="cls-1" x="36.67" y="93.49" width="21.05" height="18.28" transform="translate(-60.41 136.99) rotate(-83.01)"/>
      <path d="M46.65,107.73c-1.09-.14-1.92-.52-2.52-1.12-.61-.63-.88-1.5-.78-2.47l1.58.2c-.08,1.08.5,1.91,1.81,2.06,1.07.13,1.82-.32,1.95-1.33.12-.95-.53-1.53-1.76-1.68l-.55-.07.15-1.19.51.07c1.12.14,1.79-.27,1.89-1.08.1-.8-.49-1.37-1.39-1.47-1.13-.14-1.81.52-1.95,1.4l-1.57-.18c.23-1.66,1.6-2.74,3.71-2.47,1.8.21,3.03,1.3,2.83,2.86-.12.97-.79,1.46-1.73,1.64v.03c1.14.46,1.66,1.29,1.52,2.47-.22,1.82-1.87,2.57-3.72,2.34Z"/>
      <rect id="View_3F_A_4_4" style="cursor: pointer; pointer-events: all;" class="cls-1" x="54.81" y="95.71" width="21.05" height="18.28" transform="translate(-46.68 156.94) rotate(-83.01)"/>
      <path d="M65.58,109.82l.26-2.09-4.26-.52.18-1.46,5.03-4.94,1.51.18-.7,5.7,1.38.17-.15,1.23-1.38-.17-.26,2.09-1.61-.2ZM62.9,106.17s.81.04,1.31.1l1.77.22.31-2.55c.06-.51.23-1.33.23-1.33h-.03s-.56.67-.98,1.09l-1.48,1.46c-.42.39-1.14,1-1.14,1h0Z"/>
      <rect id="View_3F_A_4_5" style="cursor: pointer; pointer-events: all;" class="cls-1" x="72.95" y="97.92" width="21.05" height="18.28" transform="translate(-32.94 176.9) rotate(-83.01)"/>
      <path d="M82.82,112.15c-1.96-.25-3.21-1.5-3.14-3.1l1.63.2c.07.8.59,1.4,1.62,1.53,1.07.13,1.87-.52,2-1.59.14-1.12-.55-1.88-1.5-1.99-.8-.1-1.4.15-1.74.49l-1.57-.18,1.55-4.77,5.12.63-.17,1.37-3.94-.49-.77,2.23h.03c.53-.42,1.15-.63,2.05-.52,1.57.2,2.86,1.53,2.62,3.44-.24,1.94-1.83,2.99-3.8,2.75Z"/>
      <rect id="View_3F_A_4_6" style="cursor: pointer; pointer-events: all;" class="cls-1" x="91.09" y="100.15" width="21.05" height="18.28" transform="translate(-19.22 196.86) rotate(-83.01)"/>
      <path d="M101.23,114.4c-1.13-.14-1.93-.65-2.44-1.36-.69-.94-.87-2.17-.67-3.76.16-1.42.62-2.58,1.39-3.34.72-.7,1.64-1.02,2.86-.87,1.83.22,2.7,1.43,2.77,2.68l-1.61-.2c-.04-.53-.41-1.14-1.29-1.25-1.42-.17-2.2.87-2.52,2.88h.02c.64-.76,1.44-1.09,2.47-.97,1.68.21,2.9,1.7,2.7,3.47-.21,1.78-1.81,2.96-3.68,2.72ZM101.34,113.14c1.02.11,1.88-.55,2.01-1.61.13-1.09-.55-1.94-1.57-2.06-1.12-.14-1.97.51-2.11,1.6-.13,1.07.6,1.94,1.67,2.08Z"/>
      <rect id="View_3F_A_4_7" style="cursor: pointer; pointer-events: all;" class="cls-1" x="109.23" y="102.37" width="21.05" height="18.28" transform="translate(-5.49 216.81) rotate(-83.01)"/>
      <path d="M117.22,116.14c.56-3.16,2.59-5.85,4.51-7.1v-.03s-.93-.04-1.91-.17l-2.91-.35.17-1.42,6.44.79-.16,1.29c-1.9,1.37-3.85,3.91-4.39,7.21l-1.75-.22Z"/>
      <rect id="View_3F_A_4_8" style="cursor: pointer; pointer-events: all;" class="cls-1" x="127.37" y="104.6" width="21.05" height="18.28" transform="translate(8.23 236.78) rotate(-83.01)"/>
      <path d="M137.3,118.82c-1.93-.24-3.48-1.35-3.25-3.2.14-1.15.96-1.87,2.14-2.05v-.04c-.91-.42-1.32-1.15-1.21-2.03.18-1.45,1.59-2.24,3.45-2.01,1.87.22,3.04,1.29,2.86,2.76-.11.86-.68,1.47-1.66,1.67v.04c1.13.45,1.7,1.37,1.56,2.5-.23,1.88-1.95,2.6-3.89,2.36ZM137.96,113.24c.99.11,1.63-.31,1.73-1.08.1-.77-.42-1.35-1.41-1.47-.99-.11-1.64.31-1.74,1.09-.1.77.43,1.33,1.43,1.46ZM137.46,117.55c1.14.14,1.95-.36,2.06-1.32.12-1-.5-1.71-1.69-1.85-1.18-.14-1.97.39-2.09,1.39-.12.95.52,1.64,1.72,1.78Z"/>
      <rect id="View_3F_A_5_1" style="cursor: pointer; pointer-events: all;" class="cls-1" x=".39" y="117.73" width="21.05" height="18.28" transform="translate(-116.34 122.27) rotate(-83.01)"/>
      <path d="M10.23,131.73l.75-6.1-2.07-.25.13-1.11c1.24.11,2.3-.25,2.66-1.49l1.29.15-1.11,8.99-1.66-.2Z"/>
      <rect id="View_3F_A_5_2" style="cursor: pointer; pointer-events: all;" class="cls-1" x="18.53" y="119.95" width="21.05" height="18.28" transform="translate(-102.61 142.23) rotate(-83.01)"/>
      <path d="M25.1,133.56c.17-1.09.61-1.78,1.26-2.36.86-.74,2-1.23,2.95-1.71.89-.42,1.44-.79,1.54-1.6.11-.9-.4-1.57-1.35-1.68-.53-.07-.94.06-1.25.34-.36.29-.55.76-.63,1.39l-1.62-.2c.12-.95.44-1.6.97-2.12.62-.6,1.59-.88,2.78-.74,1.96.24,2.98,1.59,2.78,3.18-.16,1.3-.99,1.85-2.05,2.37-1.02.6-2.39,1.07-3.04,1.89v.07s4.41.53,4.41.53l-.18,1.43-6.58-.8Z"/>
      <rect id="View_3F_A_5_3" style="cursor: pointer; pointer-events: all;" class="cls-1" x="36.67" y="122.17" width="21.05" height="18.28" transform="translate(-88.88 162.18) rotate(-83.01)"/>
      <path d="M46.65,136.4c-1.09-.13-1.92-.51-2.52-1.11-.61-.63-.88-1.5-.78-2.47l1.58.2c-.08,1.08.5,1.91,1.81,2.06,1.07.13,1.82-.32,1.95-1.33.12-.95-.53-1.53-1.76-1.68l-.55-.07.15-1.19.51.07c1.12.14,1.79-.27,1.89-1.08.1-.8-.49-1.38-1.39-1.49-1.13-.13-1.81.53-1.95,1.42l-1.57-.18c.23-1.66,1.6-2.74,3.71-2.48,1.8.22,3.03,1.32,2.83,2.88-.12.95-.79,1.44-1.73,1.64v.03c1.14.46,1.66,1.29,1.52,2.47-.22,1.82-1.87,2.55-3.72,2.33Z"/>
      <rect id="View_3F_A_5_4" style="cursor: pointer; pointer-events: all;" class="cls-1" x="54.81" y="124.4" width="21.05" height="18.28" transform="translate(-75.16 182.14) rotate(-83.01)"/>
      <path d="M65.58,138.51l.26-2.09-4.26-.52.18-1.47,5.03-4.92,1.51.18-.7,5.7,1.38.17-.15,1.23-1.38-.17-.26,2.09-1.61-.2ZM62.9,134.86s.81.04,1.31.1l1.77.22.31-2.57c.06-.49.23-1.33.23-1.33h-.03s-.56.69-.98,1.11l-1.48,1.46c-.42.39-1.14.98-1.14.98v.03Z"/>
      <rect id="View_3F_A_5_5" style="cursor: pointer; pointer-events: all;" class="cls-1" x="72.95" y="126.61" width="21.05" height="18.28" transform="translate(-61.42 202.1) rotate(-83.01)"/>
      <path d="M82.82,140.82c-1.96-.24-3.21-1.5-3.14-3.09l1.63.2c.07.8.59,1.4,1.62,1.53,1.07.13,1.87-.52,2-1.6.14-1.11-.55-1.87-1.5-1.98-.8-.1-1.4.15-1.74.49l-1.57-.2,1.55-4.76,5.12.63-.17,1.36-3.94-.48-.77,2.23h.03c.53-.42,1.15-.63,2.05-.52,1.57.2,2.86,1.52,2.62,3.44-.24,1.94-1.83,2.99-3.8,2.74Z"/>
      <rect id="View_3F_A_5_6" style="cursor: pointer; pointer-events: all;" class="cls-1" x="91.09" y="128.85" width="21.05" height="18.28" transform="translate(-47.7 222.06) rotate(-83.01)"/>
      <path d="M101.23,143.1c-1.13-.14-1.93-.65-2.44-1.36-.69-.94-.87-2.17-.67-3.76.16-1.42.62-2.58,1.39-3.35.72-.69,1.64-1.01,2.86-.87,1.83.22,2.7,1.45,2.77,2.68l-1.61-.2c-.04-.52-.41-1.12-1.29-1.23-1.42-.17-2.2.87-2.52,2.88h.02c.64-.76,1.44-1.09,2.47-.97,1.68.21,2.9,1.68,2.7,3.45-.21,1.8-1.81,2.96-3.68,2.74ZM101.34,141.82c1.02.13,1.88-.55,2.01-1.6.13-1.09-.55-1.95-1.57-2.06-1.12-.14-1.97.51-2.11,1.59-.13,1.08.6,1.95,1.67,2.08Z"/>
      <rect id="View_3F_A_5_7" style="cursor: pointer; pointer-events: all;" class="cls-1" x="109.23" y="131.06" width="21.05" height="18.28" transform="translate(-33.97 242.02) rotate(-83.01)"/>
      <path d="M117.22,144.84c.56-3.16,2.59-5.85,4.51-7.1v-.03s-.93-.06-1.91-.17l-2.91-.36.17-1.42,6.44.8-.16,1.29c-1.9,1.37-3.85,3.91-4.39,7.21l-1.75-.22Z"/>
      <rect id="View_3F_A_5_8" style="cursor: pointer; pointer-events: all;" class="cls-1" x="127.37" y="133.29" width="21.05" height="18.28" transform="translate(-20.25 261.98) rotate(-83.01)"/>
      <path d="M137.3,147.51c-1.93-.24-3.48-1.36-3.25-3.2.14-1.15.96-1.87,2.14-2.05v-.04c-.91-.44-1.32-1.15-1.21-2.03.18-1.45,1.59-2.24,3.45-2.02,1.87.24,3.04,1.3,2.86,2.78-.11.86-.68,1.47-1.66,1.67v.04c1.13.45,1.7,1.37,1.56,2.5-.23,1.88-1.95,2.6-3.89,2.36ZM137.96,141.92c.99.13,1.63-.29,1.73-1.07.1-.77-.42-1.35-1.41-1.47s-1.64.31-1.74,1.08c-.1.79.43,1.35,1.43,1.46ZM137.46,146.24c1.14.14,1.95-.38,2.06-1.32.12-1-.5-1.71-1.69-1.85-1.18-.14-1.97.39-2.09,1.37-.12.97.52,1.66,1.72,1.8Z"/>
      <rect id="View_3F_A_6_1" style="cursor: pointer; pointer-events: all;" class="cls-1" x=".39" y="146.41" width="21.05" height="18.28" transform="translate(-144.81 147.46) rotate(-83.01)"/>
      <path d="M10.23,160.42l.75-6.1-2.07-.25.13-1.11c1.24.11,2.3-.25,2.66-1.5l1.29.17-1.11,8.99-1.66-.2Z"/>
      <rect id="View_3F_A_6_2" style="cursor: pointer; pointer-events: all;" class="cls-1" x="18.53" y="148.64" width="21.05" height="18.28" transform="translate(-131.09 167.43) rotate(-83.01)"/>
      <path d="M25.1,162.25c.17-1.09.61-1.78,1.26-2.36.86-.74,2-1.25,2.95-1.71.89-.42,1.44-.79,1.54-1.61.11-.88-.4-1.56-1.35-1.67-.53-.07-.94.04-1.25.32-.36.31-.55.76-.63,1.4l-1.62-.2c.12-.95.44-1.6.97-2.12.62-.6,1.59-.88,2.78-.74,1.96.24,2.98,1.59,2.78,3.17-.16,1.32-.99,1.85-2.05,2.38-1.02.6-2.39,1.07-3.04,1.89v.07s4.41.53,4.41.53l-.18,1.43-6.58-.8Z"/>
      <rect id="View_3F_A_6_3" style="cursor: pointer; pointer-events: all;" class="cls-1" x="36.67" y="150.86" width="21.05" height="18.28" transform="translate(-117.35 187.38) rotate(-83.01)"/>
      <path d="M46.65,165.09c-1.09-.13-1.92-.52-2.52-1.11-.61-.63-.88-1.5-.78-2.47l1.58.18c-.08,1.09.5,1.91,1.81,2.08,1.07.13,1.82-.32,1.95-1.35.12-.95-.53-1.53-1.76-1.67l-.55-.07.15-1.19.51.07c1.12.13,1.79-.27,1.89-1.08.1-.8-.49-1.37-1.39-1.49-1.13-.14-1.81.53-1.95,1.42l-1.57-.2c.23-1.64,1.6-2.72,3.71-2.47,1.8.22,3.03,1.32,2.83,2.86-.12.97-.79,1.46-1.73,1.66v.03c1.14.46,1.66,1.29,1.52,2.47-.22,1.82-1.87,2.55-3.72,2.33Z"/>
      <rect id="View_3F_A_6_4" style="cursor: pointer; pointer-events: all;" class="cls-1" x="54.81" y="153.09" width="21.05" height="18.28" transform="translate(-103.63 207.35) rotate(-83.01)"/>
      <path d="M65.58,167.2l.26-2.09-4.26-.52.18-1.47,5.03-4.92,1.51.18-.7,5.68,1.38.18-.15,1.23-1.38-.17-.26,2.09-1.61-.2ZM62.9,163.55s.81.04,1.31.1l1.77.21.31-2.55c.06-.51.23-1.33.23-1.33h-.03s-.56.69-.98,1.09l-1.48,1.46c-.42.41-1.14,1-1.14,1v.03Z"/>
      <rect id="View_3F_A_6_5" style="cursor: pointer; pointer-events: all;" class="cls-1" x="72.95" y="155.31" width="21.05" height="18.28" transform="translate(-89.9 227.3) rotate(-83.01)"/>
      <path d="M82.82,169.51c-1.96-.24-3.21-1.5-3.14-3.09l1.63.2c.07.8.59,1.39,1.62,1.52,1.07.14,1.87-.51,2-1.59.14-1.11-.55-1.87-1.5-1.99-.8-.1-1.4.17-1.74.51l-1.57-.2,1.55-4.76,5.12.63-.17,1.36-3.94-.48-.77,2.23h.03c.53-.43,1.15-.63,2.05-.52,1.57.18,2.86,1.52,2.62,3.44-.24,1.92-1.83,2.97-3.8,2.74Z"/>
      <rect id="View_3F_A_6_6" style="cursor: pointer; pointer-events: all;" class="cls-1" x="91.09" y="157.52" width="21.05" height="18.28" transform="translate(-76.17 247.25) rotate(-83.01)"/>
      <path d="M101.23,171.79c-1.13-.14-1.93-.65-2.44-1.37-.69-.93-.87-2.16-.67-3.76.16-1.42.62-2.58,1.39-3.34.72-.7,1.64-1.01,2.86-.87,1.83.22,2.7,1.45,2.77,2.68l-1.61-.2c-.04-.52-.41-1.12-1.29-1.23-1.42-.18-2.2.86-2.52,2.88h.02c.64-.76,1.44-1.09,2.47-.97,1.68.2,2.9,1.68,2.7,3.45-.21,1.8-1.81,2.96-3.68,2.74ZM101.34,170.51c1.02.13,1.88-.55,2.01-1.61.13-1.08-.55-1.94-1.57-2.06-1.12-.13-1.97.52-2.11,1.6-.13,1.08.6,1.95,1.67,2.08Z"/>
      <rect id="View_3F_A_6_7" style="cursor: pointer; pointer-events: all;" class="cls-1" x="109.23" y="159.75" width="21.05" height="18.28" transform="translate(-62.45 267.22) rotate(-83.01)"/>
      <path d="M117.22,173.53c.56-3.16,2.59-5.85,4.51-7.1v-.03s-.93-.06-1.91-.17l-2.91-.36.17-1.42,6.44.79-.16,1.29c-1.9,1.39-3.85,3.93-4.39,7.21l-1.75-.21Z"/>
      <rect id="View_3F_A_6_8" style="cursor: pointer; pointer-events: all;" class="cls-1" x="127.37" y="161.97" width="21.05" height="18.28" transform="translate(-48.71 287.17) rotate(-83.01)"/>
      <path d="M137.3,176.21c-1.93-.24-3.48-1.36-3.25-3.2.14-1.15.96-1.87,2.14-2.05v-.04c-.91-.43-1.32-1.15-1.21-2.03.18-1.46,1.59-2.24,3.45-2.02,1.87.22,3.04,1.3,2.86,2.76-.11.87-.68,1.49-1.66,1.68v.04c1.13.43,1.7,1.37,1.56,2.5-.23,1.88-1.95,2.6-3.89,2.36ZM137.96,170.61c.99.13,1.63-.29,1.73-1.07.1-.79-.42-1.35-1.41-1.47-.99-.13-1.64.31-1.74,1.08-.1.79.43,1.35,1.43,1.46ZM137.46,174.93c1.14.14,1.95-.38,2.06-1.33.12-.98-.5-1.7-1.69-1.84-1.18-.15-1.97.39-2.09,1.37-.12.97.52,1.64,1.72,1.8Z"/>
    </g>
  </g>
</svg>