<?xml version="1.0" encoding="UTF-8"?>
<svg id="svg_3F_C" data-name="svg_3F_C" xmlns="http://www.w3.org/2000/svg" viewBox="0 0 150 184">
  <defs>
    <style>
      .cls-1 {
        fill: none;
        stroke: #000;
      }
    </style>
  </defs>
  <g id="_3F" data-name="3F">
    <g id="_3f_C" data-name="3f C">
      <rect id="View_3F_C_1_1" style="cursor: pointer; pointer-events: all;" class="cls-1" x="1.77" y="17.15" width="18.28" height="21.05" transform="translate(-3.28 1.53) rotate(-6.99)"/>
      <path d="M11.43,32.56l-.75-6.1-2.07.25-.14-1.1c1.23-.19,2.17-.8,2.22-2.09l1.29-.16,1.11,9-1.66.2Z"/>
      <rect id="View_3F_C_1_2" style="cursor: pointer; pointer-events: all;" class="cls-1" x="19.92" y="14.93" width="18.28" height="21.05" transform="translate(-2.88 3.72) rotate(-6.99)"/>
      <path d="M26.3,30.73c-.1-1.09.16-1.88.65-2.59.65-.93,1.64-1.69,2.45-2.37.76-.63,1.2-1.11,1.1-1.93-.11-.89-.76-1.42-1.72-1.3-.53.06-.9.27-1.13.62-.27.38-.35.87-.27,1.51l-1.62.2c-.12-.95.04-1.66.43-2.29.46-.73,1.33-1.24,2.52-1.39,1.96-.24,3.27.82,3.47,2.41.16,1.32-.51,2.03-1.41,2.81-.84.83-2.06,1.6-2.49,2.57v.06s4.43-.54,4.43-.54l.18,1.43-6.58.81Z"/>
      <rect id="View_3F_C_1_3" style="cursor: pointer; pointer-events: all;" class="cls-1" x="38.06" y="12.7" width="18.28" height="21.05" transform="translate(-2.47 5.91) rotate(-6.99)"/>
      <path d="M47.9,28.3c-1.09.13-1.99-.04-2.71-.47-.75-.47-1.22-1.25-1.36-2.21l1.58-.19c.18,1.07.95,1.73,2.26,1.57,1.07-.13,1.69-.75,1.57-1.77-.12-.95-.88-1.36-2.11-1.21l-.55.07-.15-1.19.52-.06c1.12-.14,1.67-.69,1.57-1.5-.1-.8-.81-1.21-1.7-1.1-1.13.14-1.63.95-1.55,1.84l-1.57.19c-.18-1.66.89-3.03,3-3.29,1.8-.22,3.25.54,3.44,2.1.12.97-.41,1.6-1.28,2.01v.03c1.22.18,1.93.86,2.08,2.04.22,1.82-1.19,2.93-3.04,3.16Z"/>
      <rect id="View_3F_C_1_4" style="cursor: pointer; pointer-events: all;" class="cls-1" x="56.2" y="10.48" width="18.28" height="21.05" transform="translate(-2.07 8.1) rotate(-6.99)"/>
      <path d="M66.78,25.77l-.26-2.09-4.26.52-.18-1.47,3.69-6,1.51-.19.7,5.69,1.38-.17.15,1.24-1.38.17.26,2.09-1.61.2ZM63.3,22.88s.8-.16,1.3-.22l1.77-.22-.31-2.56c-.06-.5-.1-1.35-.1-1.35h-.03s-.37.8-.68,1.31l-1.08,1.77c-.31.48-.87,1.24-.87,1.24v.03Z"/>
      <rect id="View_3F_C_1_5" style="cursor: pointer; pointer-events: all;" class="cls-1" x="74.34" y="8.26" width="18.28" height="21.05" transform="translate(-1.66 10.29) rotate(-6.99)"/>
      <path d="M84.07,23.86c-1.96.24-3.48-.68-3.79-2.24l1.63-.2c.26.76.91,1.21,1.94,1.08,1.07-.13,1.69-.95,1.56-2.02-.14-1.12-.98-1.68-1.94-1.57-.8.1-1.32.49-1.57.9l-1.57.19.36-4.99,5.12-.63.17,1.37-3.94.48-.21,2.35h.03c.4-.55.96-.9,1.87-1.01,1.57-.19,3.14.78,3.38,2.7.24,1.93-1.06,3.33-3.03,3.58Z"/>
      <rect id="View_3F_C_1_6" style="cursor: pointer; pointer-events: all;" class="cls-1" x="92.48" y="6.04" width="18.28" height="21.05" transform="translate(-1.26 12.48) rotate(-6.99)"/>
      <path d="M102.48,21.62c-1.13.14-2.03-.16-2.7-.74-.89-.74-1.37-1.89-1.56-3.49-.19-1.41-.02-2.66.54-3.58.53-.85,1.35-1.39,2.56-1.53,1.83-.23,2.97.74,3.34,1.93l-1.61.2c-.16-.5-.67-1-1.55-.89-1.42.17-1.92,1.37-1.75,3.39h.03c.44-.9,1.13-1.41,2.16-1.54,1.68-.21,3.23.94,3.46,2.71.23,1.79-1.03,3.31-2.9,3.54ZM102.28,20.36c1.02-.12,1.69-.98,1.56-2.05-.13-1.09-1.01-1.75-2.02-1.62-1.12.14-1.79.97-1.66,2.06.13,1.08,1.05,1.74,2.12,1.61Z"/>
      <rect id="View_3F_C_1_7" style="cursor: pointer; pointer-events: all;" class="cls-1" x="110.62" y="3.81" width="18.28" height="21.05" transform="translate(-.85 14.67) rotate(-6.99)"/>
      <path d="M118.42,19.45c-.23-3.2,1.1-6.3,2.65-7.98v-.03s-.92.18-1.9.3l-2.91.36-.17-1.42,6.44-.79.16,1.29c-1.51,1.8-2.78,4.73-2.51,8.06l-1.75.21Z"/>
      <rect id="View_3F_C_1_8" style="cursor: pointer; pointer-events: all;" class="cls-1" x="128.76" y="1.59" width="18.28" height="21.05" transform="translate(-.45 16.86) rotate(-6.99)"/>
      <path d="M138.55,17.2c-1.93.24-3.7-.47-3.93-2.32-.14-1.15.48-2.04,1.58-2.51v-.04c-1-.2-1.57-.8-1.68-1.68-.18-1.45,1-2.56,2.86-2.79,1.87-.23,3.27.53,3.45,2,.11.87-.3,1.6-1.2,2.03v.04c1.21.16,1.99.93,2.13,2.04.23,1.88-1.26,2.99-3.2,3.23ZM137.84,11.61c.99-.12,1.51-.68,1.41-1.46s-.74-1.21-1.73-1.09c-.99.12-1.52.7-1.43,1.47.1.78.75,1.19,1.74,1.07ZM138.39,15.92c1.14-.14,1.8-.83,1.68-1.78-.12-.99-.9-1.53-2.08-1.39-1.18.14-1.82.86-1.7,1.85.12.97.91,1.47,2.1,1.32Z"/>
      <rect id="View_3F_C_2_1" style="cursor: pointer; pointer-events: all;" class="cls-1" x="1.77" y="45.84" width="18.28" height="21.05" transform="translate(-6.77 1.75) rotate(-6.99)"/>
      <path d="M11.43,61.25l-.75-6.1-2.07.25-.14-1.11c1.23-.18,2.17-.8,2.22-2.09l1.29-.15,1.11,8.99-1.66.21Z"/>
      <rect id="View_3F_C_2_2" style="cursor: pointer; pointer-events: all;" class="cls-1" x="19.92" y="43.61" width="18.28" height="21.05" transform="translate(-6.37 3.94) rotate(-6.99)"/>
      <path d="M26.3,59.42c-.1-1.09.16-1.88.65-2.58.65-.94,1.64-1.7,2.45-2.39.76-.62,1.2-1.11,1.1-1.92-.11-.88-.76-1.42-1.72-1.3-.53.07-.9.28-1.13.62-.27.38-.35.87-.27,1.52l-1.62.2c-.12-.95.04-1.66.43-2.29.46-.73,1.33-1.25,2.52-1.39,1.96-.24,3.27.81,3.47,2.41.16,1.3-.51,2.03-1.41,2.81-.84.83-2.06,1.6-2.49,2.57v.06s4.43-.53,4.43-.53l.18,1.42-6.58.81Z"/>
      <rect id="View_3F_C_2_3" style="cursor: pointer; pointer-events: all;" class="cls-1" x="38.06" y="41.4" width="18.28" height="21.05" transform="translate(-5.96 6.13) rotate(-6.99)"/>
      <path d="M47.9,57c-1.09.13-1.99-.04-2.71-.48-.75-.46-1.22-1.25-1.36-2.2l1.58-.2c.18,1.07.95,1.73,2.26,1.57,1.07-.14,1.69-.76,1.57-1.78-.12-.95-.88-1.35-2.11-1.19l-.55.06-.15-1.18.52-.07c1.12-.14,1.67-.69,1.57-1.5-.1-.8-.81-1.21-1.7-1.11-1.13.14-1.63.95-1.55,1.85l-1.57.18c-.18-1.66.89-3.03,3-3.28,1.8-.22,3.25.53,3.44,2.09.12.97-.41,1.6-1.28,2.02v.03c1.22.17,1.93.86,2.08,2.03.22,1.81-1.19,2.93-3.04,3.16Z"/>
      <rect id="View_3F_C_2_4" style="cursor: pointer; pointer-events: all;" class="cls-1" x="56.2" y="39.17" width="18.28" height="21.05" transform="translate(-5.56 8.31) rotate(-6.99)"/>
      <path d="M66.78,54.46l-.26-2.09-4.26.52-.18-1.46,3.69-6,1.51-.18.7,5.7,1.38-.17.15,1.23-1.38.17.26,2.09-1.61.2ZM63.3,51.57s.8-.15,1.3-.22l1.77-.21-.31-2.55c-.06-.51-.1-1.36-.1-1.36h-.03s-.37.8-.68,1.32l-1.08,1.77c-.31.49-.87,1.23-.87,1.23v.03Z"/>
      <rect id="View_3F_C_2_5" style="cursor: pointer; pointer-events: all;" class="cls-1" x="74.34" y="36.95" width="18.28" height="21.05" transform="translate(-5.15 10.5) rotate(-6.99)"/>
      <path d="M84.07,52.55c-1.96.24-3.48-.69-3.79-2.24l1.63-.2c.26.76.91,1.21,1.94,1.08,1.07-.13,1.69-.94,1.56-2.02-.14-1.12-.98-1.68-1.94-1.57-.8.1-1.32.49-1.57.91l-1.57.18.36-4.99,5.12-.62.17,1.36-3.94.48-.21,2.36h.03c.4-.55.96-.9,1.87-1.01,1.57-.18,3.14.79,3.38,2.71.24,1.94-1.06,3.34-3.03,3.58Z"/>
      <rect id="View_3F_C_2_6" style="cursor: pointer; pointer-events: all;" class="cls-1" x="92.48" y="34.72" width="18.28" height="21.05" transform="translate(-4.75 12.69) rotate(-6.99)"/>
      <path d="M102.48,50.3c-1.13.14-2.03-.15-2.7-.73-.89-.74-1.37-1.89-1.56-3.49-.19-1.42-.02-2.65.54-3.58.53-.86,1.35-1.39,2.56-1.53,1.83-.22,2.97.74,3.34,1.92l-1.61.2c-.16-.49-.67-1-1.55-.88-1.42.17-1.92,1.36-1.75,3.4h.03c.44-.9,1.13-1.42,2.16-1.54,1.68-.21,3.23.94,3.46,2.71.23,1.8-1.03,3.31-2.9,3.54ZM102.28,49.04c1.02-.13,1.69-.98,1.56-2.05-.13-1.08-1.01-1.74-2.02-1.61-1.12.13-1.79.97-1.66,2.06.13,1.07,1.05,1.74,2.12,1.6Z"/>
      <rect id="View_3F_C_2_7" style="cursor: pointer; pointer-events: all;" class="cls-1" x="110.62" y="32.5" width="18.28" height="21.05" transform="translate(-4.34 14.88) rotate(-6.99)"/>
      <path d="M118.42,48.13c-.23-3.2,1.1-6.3,2.65-7.98h0s-.92.15-1.9.28l-2.91.35-.17-1.42,6.44-.79.16,1.29c-1.51,1.8-2.78,4.73-2.51,8.05l-1.75.21Z"/>
      <rect id="View_3F_C_2_8" style="cursor: pointer; pointer-events: all;" class="cls-1" x="128.76" y="30.28" width="18.28" height="21.05" transform="translate(-3.94 17.07) rotate(-6.99)"/>
      <path d="M138.55,45.88c-1.93.24-3.7-.48-3.93-2.31-.14-1.15.48-2.05,1.58-2.51v-.04c-1-.2-1.57-.8-1.68-1.67-.18-1.46,1-2.57,2.86-2.79,1.87-.24,3.27.52,3.45,1.99.11.87-.3,1.6-1.2,2.03v.03c1.21.17,1.99.93,2.13,2.05.23,1.88-1.26,2.99-3.2,3.23ZM137.84,40.3c.99-.13,1.51-.69,1.41-1.46-.1-.77-.74-1.21-1.73-1.08-.99.11-1.52.69-1.43,1.46.1.79.75,1.21,1.74,1.08ZM138.39,44.61c1.14-.14,1.8-.83,1.68-1.78-.12-1-.9-1.53-2.08-1.39-1.18.14-1.82.86-1.7,1.85.12.97.91,1.46,2.1,1.32Z"/>
      <rect id="View_3F_C_3_1" style="cursor: pointer; pointer-events: all;" class="cls-1" x="1.77" y="74.52" width="18.28" height="21.05" transform="translate(-10.26 1.96) rotate(-6.99)"/>
      <path d="M11.43,89.94l-.75-6.1-2.07.25-.14-1.11c1.23-.18,2.17-.8,2.22-2.09l1.29-.15,1.11,8.99-1.66.21Z"/>
      <rect id="View_3F_C_3_2" style="cursor: pointer; pointer-events: all;" class="cls-1" x="19.92" y="72.3" width="18.28" height="21.05" transform="translate(-9.86 4.15) rotate(-6.99)"/>
      <path d="M26.3,88.11c-.1-1.09.16-1.88.65-2.6.65-.93,1.64-1.68,2.45-2.37.76-.63,1.2-1.11,1.1-1.92-.11-.9-.76-1.43-1.72-1.3-.53.06-.9.27-1.13.62-.27.38-.35.87-.27,1.52l-1.62.2c-.12-.95.04-1.66.43-2.29.46-.74,1.33-1.25,2.52-1.4,1.96-.24,3.27.83,3.47,2.41.16,1.32-.51,2.03-1.41,2.81-.84.83-2.06,1.61-2.49,2.58v.06s4.43-.55,4.43-.55l.18,1.43-6.58.81Z"/>
      <rect id="View_3F_C_3_3" style="cursor: pointer; pointer-events: all;" class="cls-1" x="38.06" y="70.07" width="18.28" height="21.05" transform="translate(-9.45 6.34) rotate(-6.99)"/>
      <path d="M47.9,85.69c-1.09.13-1.99-.04-2.71-.48-.75-.46-1.22-1.25-1.36-2.22l1.58-.18c.18,1.07.95,1.73,2.26,1.56,1.07-.13,1.69-.74,1.57-1.77-.12-.95-.88-1.35-2.11-1.21l-.55.07-.15-1.19.52-.06c1.12-.14,1.67-.69,1.57-1.5-.1-.81-.81-1.22-1.7-1.11-1.13.14-1.63.95-1.55,1.85l-1.57.18c-.18-1.66.89-3.03,3-3.3,1.8-.21,3.25.55,3.44,2.1.12.97-.41,1.6-1.28,2.02h0c1.22.2,1.93.87,2.07,2.05.22,1.82-1.19,2.93-3.04,3.17Z"/>
      <rect id="View_3F_C_3_4" style="cursor: pointer; pointer-events: all;" class="cls-1" x="56.2" y="67.86" width="18.28" height="21.05" transform="translate(-9.05 8.53) rotate(-6.99)"/>
      <path d="M66.78,83.15l-.26-2.09-4.26.52-.18-1.46,3.69-6,1.51-.18.7,5.7,1.38-.17.15,1.23-1.38.17.26,2.09-1.61.2ZM63.3,80.26s.8-.17,1.3-.22l1.77-.21-.31-2.57c-.06-.49-.1-1.35-.1-1.35h-.03s-.37.8-.68,1.3l-1.08,1.78c-.31.48-.87,1.23-.87,1.23v.03Z"/>
      <rect id="View_3F_C_3_5" style="cursor: pointer; pointer-events: all;" class="cls-1" x="74.34" y="65.64" width="18.28" height="21.05" transform="translate(-8.64 10.72) rotate(-6.99)"/>
      <path d="M84.07,81.24c-1.96.24-3.48-.69-3.79-2.24l1.63-.21c.26.76.91,1.22,1.94,1.09,1.07-.13,1.69-.95,1.56-2.02-.14-1.12-.98-1.7-1.94-1.57-.8.1-1.32.49-1.57.9l-1.57.2.36-4.99,5.12-.63.17,1.38-3.94.48-.21,2.36h.03c.4-.55.96-.9,1.87-1.01,1.57-.2,3.14.79,3.38,2.71.24,1.92-1.06,3.34-3.03,3.58Z"/>
      <rect id="View_3F_C_3_6" style="cursor: pointer; pointer-events: all;" class="cls-1" x="92.48" y="63.41" width="18.28" height="21.05" transform="translate(-8.24 12.91) rotate(-6.99)"/>
      <path d="M102.48,78.99c-1.13.14-2.03-.15-2.7-.74-.89-.74-1.37-1.89-1.56-3.48-.19-1.42-.02-2.65.54-3.58.53-.86,1.35-1.39,2.56-1.54,1.83-.22,2.97.74,3.34,1.94l-1.61.2c-.16-.51-.67-1-1.55-.88-1.42.17-1.92,1.36-1.75,3.4h.03c.44-.9,1.13-1.42,2.16-1.54,1.68-.21,3.23.94,3.46,2.71.23,1.78-1.03,3.31-2.9,3.54ZM102.28,77.73c1.02-.13,1.69-.98,1.56-2.05-.13-1.09-1.01-1.74-2.02-1.63-1.12.14-1.79.98-1.66,2.06.13,1.08,1.05,1.74,2.12,1.61Z"/>
      <rect id="View_3F_C_3_7" style="cursor: pointer; pointer-events: all;" class="cls-1" x="110.62" y="61.19" width="18.28" height="21.05" transform="translate(-7.83 15.1) rotate(-6.99)"/>
      <path d="M118.42,76.82c-.23-3.2,1.1-6.3,2.65-7.98v-.03s-.92.18-1.9.31l-2.91.35-.17-1.42,6.44-.79.16,1.29c-1.51,1.8-2.78,4.73-2.51,8.05l-1.75.21Z"/>
      <rect id="View_3F_C_3_8" style="cursor: pointer; pointer-events: all;" class="cls-1" x="128.76" y="58.96" width="18.28" height="21.05" transform="translate(-7.43 17.29) rotate(-6.99)"/>
      <path d="M138.55,74.57c-1.93.24-3.7-.48-3.93-2.31-.14-1.16.48-2.05,1.58-2.51v-.04c-1-.2-1.57-.8-1.68-1.67-.18-1.46,1-2.57,2.86-2.79,1.87-.24,3.27.52,3.45,1.99.11.86-.3,1.6-1.2,2.02v.04c1.21.15,1.99.93,2.13,2.05.23,1.88-1.26,2.99-3.2,3.23ZM137.84,68.99c.99-.13,1.51-.69,1.41-1.46-.1-.79-.74-1.21-1.73-1.09-.99.13-1.52.7-1.43,1.47.1.79.75,1.19,1.74,1.08ZM138.39,73.3c1.14-.14,1.8-.84,1.68-1.78-.12-1-.9-1.53-2.08-1.39-1.18.14-1.82.86-1.7,1.85.12.95.91,1.46,2.1,1.32Z"/>
      <rect id="View_3F_C_4_1" style="cursor: pointer; pointer-events: all;" class="cls-1" x="1.77" y="103.21" width="18.28" height="21.05" transform="translate(-13.75 2.17) rotate(-6.99)"/>
      <path d="M11.43,118.61l-.75-6.1-2.07.27-.14-1.11c1.23-.18,2.17-.8,2.22-2.09l1.29-.15,1.11,8.99-1.66.2Z"/>
      <rect id="View_3F_C_4_2" style="cursor: pointer; pointer-events: all;" class="cls-1" x="19.92" y="100.99" width="18.28" height="21.05" transform="translate(-13.35 4.36) rotate(-6.99)"/>
      <path d="M26.3,116.8c-.1-1.11.16-1.88.65-2.6.65-.93,1.64-1.68,2.45-2.37.76-.63,1.2-1.11,1.1-1.92-.11-.9-.76-1.43-1.72-1.3-.53.06-.9.27-1.13.62-.27.38-.35.87-.27,1.52l-1.62.2c-.12-.95.04-1.66.43-2.3.46-.73,1.33-1.23,2.52-1.39,1.96-.24,3.27.83,3.47,2.41.16,1.32-.51,2.03-1.41,2.81-.84.83-2.06,1.6-2.49,2.57v.07s4.43-.55,4.43-.55l.18,1.43-6.58.81Z"/>
      <rect id="View_3F_C_4_3" style="cursor: pointer; pointer-events: all;" class="cls-1" x="38.06" y="98.76" width="18.28" height="21.05" transform="translate(-12.94 6.55) rotate(-6.99)"/>
      <path d="M47.9,114.36c-1.09.14-1.99-.03-2.71-.46-.75-.46-1.22-1.25-1.36-2.22l1.58-.2c.18,1.08.95,1.74,2.26,1.57,1.07-.13,1.69-.76,1.57-1.77-.12-.95-.88-1.36-2.11-1.21l-.55.07-.15-1.19.52-.06c1.12-.14,1.67-.69,1.57-1.52-.1-.8-.81-1.21-1.7-1.09-1.13.14-1.63.95-1.55,1.84l-1.57.2c-.18-1.66.89-3.03,3-3.3,1.8-.21,3.25.55,3.44,2.1.12.97-.41,1.6-1.28,2.01v.03c1.22.18,1.93.86,2.08,2.03.22,1.82-1.19,2.93-3.04,3.16Z"/>
      <rect id="View_3F_C_4_4" style="cursor: pointer; pointer-events: all;" class="cls-1" x="56.2" y="96.55" width="18.28" height="21.05" transform="translate(-12.54 8.74) rotate(-6.99)"/>
      <path d="M66.78,111.84l-.26-2.09-4.26.52-.18-1.46,3.69-6,1.51-.18.7,5.68,1.38-.17.15,1.25-1.38.17.26,2.09-1.61.2ZM63.3,108.95s.8-.17,1.3-.22l1.77-.22-.31-2.55c-.06-.51-.1-1.35-.1-1.35h-.03s-.37.8-.68,1.3l-1.08,1.78c-.31.48-.87,1.23-.87,1.23v.03Z"/>
      <rect id="View_3F_C_4_5" style="cursor: pointer; pointer-events: all;" class="cls-1" x="74.34" y="94.32" width="18.28" height="21.05" transform="translate(-12.13 10.93) rotate(-6.99)"/>
      <path d="M84.07,109.93c-1.96.24-3.48-.69-3.79-2.24l1.63-.21c.26.76.91,1.22,1.94,1.09,1.07-.14,1.69-.95,1.56-2.03-.14-1.11-.98-1.68-1.94-1.56-.8.1-1.32.49-1.57.9l-1.57.2.36-4.99,5.12-.63.17,1.37-3.94.48-.21,2.36h.03c.4-.55.96-.9,1.87-1.01,1.57-.2,3.14.79,3.38,2.71.24,1.92-1.06,3.33-3.03,3.58Z"/>
      <rect id="View_3F_C_4_6" style="cursor: pointer; pointer-events: all;" class="cls-1" x="92.48" y="92.1" width="18.28" height="21.05" transform="translate(-11.73 13.12) rotate(-6.99)"/>
      <path d="M102.48,107.68c-1.13.14-2.03-.17-2.7-.74-.89-.74-1.37-1.89-1.56-3.48-.19-1.42-.02-2.67.54-3.58.53-.86,1.35-1.39,2.56-1.54,1.83-.22,2.97.74,3.34,1.94l-1.61.2c-.16-.51-.67-1-1.55-.88-1.42.17-1.92,1.36-1.75,3.38h.03c.44-.88,1.13-1.4,2.16-1.53,1.68-.21,3.23.94,3.46,2.71.23,1.78-1.03,3.3-2.9,3.54ZM102.28,106.42c1.02-.13,1.69-.98,1.56-2.05-.13-1.09-1.01-1.75-2.02-1.63-1.12.14-1.79.97-1.66,2.06.13,1.08,1.05,1.74,2.12,1.61Z"/>
      <rect id="View_3F_C_4_7" style="cursor: pointer; pointer-events: all;" class="cls-1" x="110.62" y="89.88" width="18.28" height="21.05" transform="translate(-11.32 15.31) rotate(-6.99)"/>
      <path d="M118.42,105.51c-.23-3.2,1.1-6.3,2.65-7.98v-.03s-.92.18-1.9.29l-2.91.36-.17-1.42,6.44-.79.16,1.29c-1.51,1.8-2.78,4.73-2.51,8.05l-1.75.21Z"/>
      <rect id="View_3F_C_4_8" style="cursor: pointer; pointer-events: all;" class="cls-1" x="128.76" y="87.65" width="18.28" height="21.05" transform="translate(-10.92 17.5) rotate(-6.99)"/>
      <path d="M138.55,103.27c-1.93.24-3.7-.48-3.93-2.33-.14-1.15.48-2.03,1.58-2.5v-.04c-1-.2-1.57-.8-1.68-1.68-.18-1.45,1-2.55,2.86-2.79,1.87-.22,3.27.53,3.45,2.01.11.86-.3,1.6-1.2,2.02v.04c1.21.15,1.99.93,2.13,2.05.23,1.88-1.26,2.99-3.2,3.23ZM137.84,97.67c.99-.11,1.51-.67,1.41-1.45-.1-.79-.74-1.22-1.73-1.09-.99.13-1.52.7-1.43,1.47.1.77.75,1.19,1.74,1.07ZM138.39,101.99c1.14-.14,1.8-.84,1.68-1.8-.12-.98-.9-1.53-2.08-1.37-1.18.14-1.82.86-1.7,1.84.12.97.91,1.47,2.1,1.33Z"/>
      <rect id="View_3F_C_5_1" style="cursor: pointer; pointer-events: all;" class="cls-1" x="1.77" y="131.9" width="18.28" height="21.05" transform="translate(-17.24 2.38) rotate(-6.99)"/>
      <path d="M11.43,147.3l-.75-6.1-2.07.25-.14-1.09c1.23-.2,2.17-.8,2.22-2.09l1.29-.17,1.11,9.01-1.66.2Z"/>
      <rect id="View_3F_C_5_2" style="cursor: pointer; pointer-events: all;" class="cls-1" x="19.92" y="129.69" width="18.28" height="21.05" transform="translate(-16.84 4.57) rotate(-6.99)"/>
      <path d="M26.3,145.48c-.1-1.09.16-1.87.65-2.58.65-.93,1.64-1.68,2.45-2.37.76-.63,1.2-1.12,1.1-1.94-.11-.88-.76-1.42-1.72-1.3-.53.07-.9.28-1.13.63-.27.38-.35.87-.27,1.5l-1.62.21c-.12-.95.04-1.67.43-2.3.46-.73,1.33-1.23,2.52-1.39,1.96-.24,3.27.83,3.47,2.41.16,1.32-.51,2.03-1.41,2.81-.84.83-2.06,1.6-2.49,2.57v.07s4.43-.55,4.43-.55l.18,1.43-6.58.8Z"/>
      <rect id="View_3F_C_5_3" style="cursor: pointer; pointer-events: all;" class="cls-1" x="38.06" y="127.45" width="18.28" height="21.05" transform="translate(-16.43 6.76) rotate(-6.99)"/>
      <path d="M47.9,143.05c-1.09.14-1.99-.03-2.71-.46-.75-.48-1.22-1.25-1.36-2.22l1.58-.2c.18,1.08.95,1.73,2.26,1.57,1.07-.13,1.69-.76,1.57-1.77-.12-.95-.88-1.36-2.11-1.21l-.55.07-.15-1.19.52-.07c1.12-.13,1.67-.69,1.57-1.5-.1-.8-.81-1.21-1.7-1.09-1.13.14-1.63.95-1.55,1.84l-1.57.2c-.18-1.66.89-3.03,3-3.3,1.8-.22,3.25.55,3.44,2.1.12.95-.41,1.6-1.28,2.01v.03c1.22.18,1.93.86,2.08,2.03.22,1.82-1.19,2.93-3.04,3.16Z"/>
      <rect id="View_3F_C_5_4" style="cursor: pointer; pointer-events: all;" class="cls-1" x="56.2" y="125.24" width="18.28" height="21.05" transform="translate(-16.03 8.95) rotate(-6.99)"/>
      <path d="M66.78,140.53l-.26-2.09-4.26.52-.18-1.47,3.69-5.99,1.51-.18.7,5.68,1.38-.17.15,1.25-1.38.17.26,2.09-1.61.2ZM63.3,137.64s.8-.17,1.3-.22l1.77-.22-.31-2.55c-.06-.51-.1-1.35-.1-1.35h-.03s-.37.8-.68,1.3l-1.08,1.78c-.31.48-.87,1.23-.87,1.23v.03Z"/>
      <rect id="View_3F_C_5_5" style="cursor: pointer; pointer-events: all;" class="cls-1" x="74.34" y="123.01" width="18.28" height="21.05" transform="translate(-15.62 11.14) rotate(-6.99)"/>
      <path d="M84.07,138.61c-1.96.25-3.48-.67-3.79-2.24l1.63-.2c.26.76.91,1.21,1.94,1.08,1.07-.13,1.69-.94,1.56-2.02-.14-1.11-.98-1.68-1.94-1.57-.8.1-1.32.51-1.57.91l-1.57.2.36-4.99,5.12-.63.17,1.36-3.94.49-.21,2.36h.03c.4-.55.96-.9,1.87-1.01,1.57-.2,3.14.79,3.38,2.69.24,1.94-1.06,3.34-3.03,3.58Z"/>
      <rect id="View_3F_C_5_6" style="cursor: pointer; pointer-events: all;" class="cls-1" x="92.48" y="120.79" width="18.28" height="21.05" transform="translate(-15.22 13.33) rotate(-6.99)"/>
      <path d="M102.48,136.38c-1.13.13-2.03-.17-2.7-.74-.89-.74-1.37-1.89-1.56-3.48-.19-1.42-.02-2.67.54-3.58.53-.86,1.35-1.39,2.56-1.54,1.83-.22,2.97.74,3.34,1.94l-1.61.2c-.16-.51-.67-1-1.55-.9-1.42.18-1.92,1.37-1.75,3.4h.03c.44-.9,1.13-1.4,2.16-1.53,1.68-.21,3.23.94,3.46,2.69.23,1.8-1.03,3.31-2.9,3.55ZM102.28,135.11c1.02-.13,1.69-.98,1.56-2.05-.13-1.09-1.01-1.75-2.02-1.63-1.12.14-1.79.97-1.66,2.06.13,1.08,1.05,1.74,2.12,1.61Z"/>
      <rect id="View_3F_C_5_7" style="cursor: pointer; pointer-events: all;" class="cls-1" x="110.62" y="118.56" width="18.28" height="21.05" transform="translate(-14.81 15.52) rotate(-6.99)"/>
      <path d="M118.42,134.2c-.23-3.2,1.1-6.3,2.65-7.98v-.03s-.92.18-1.9.29l-2.91.36-.17-1.42,6.44-.8.16,1.29c-1.51,1.81-2.78,4.74-2.51,8.07l-1.75.21Z"/>
      <rect id="View_3F_C_5_8" style="cursor: pointer; pointer-events: all;" class="cls-1" x="128.76" y="116.34" width="18.28" height="21.05" transform="translate(-14.41 17.71) rotate(-6.99)"/>
      <path d="M138.55,131.94c-1.93.24-3.7-.46-3.93-2.31-.14-1.15.48-2.03,1.58-2.5v-.04c-1-.2-1.57-.8-1.68-1.68-.18-1.45,1-2.57,2.86-2.79,1.87-.22,3.27.53,3.45,1.99.11.87-.3,1.61-1.2,2.03v.04c1.21.15,1.99.93,2.13,2.03.23,1.88-1.26,3-3.2,3.23ZM137.84,126.36c.99-.11,1.51-.67,1.41-1.46-.1-.77-.74-1.21-1.73-1.08-.99.13-1.52.69-1.43,1.47.1.77.75,1.19,1.74,1.07ZM138.39,130.67c1.14-.14,1.8-.83,1.68-1.78-.12-.98-.9-1.53-2.08-1.39-1.18.15-1.82.87-1.7,1.85.12.97.91,1.47,2.1,1.32Z"/>
      <rect id="View_3F_C_6_1" style="cursor: pointer; pointer-events: all;" class="cls-1" x="1.77" y="160.59" width="18.28" height="21.05" transform="translate(-20.73 2.6) rotate(-6.99)"/>
      <path d="M11.43,176l-.75-6.1-2.07.25-.14-1.09c1.23-.2,2.17-.8,2.22-2.09l1.29-.17,1.11,9.01-1.66.2Z"/>
      <rect id="View_3F_C_6_2" style="cursor: pointer; pointer-events: all;" class="cls-1" x="19.92" y="158.36" width="18.28" height="21.05" transform="translate(-20.32 4.79) rotate(-6.99)"/>
      <path d="M26.3,174.17c-.1-1.09.16-1.88.65-2.58.65-.94,1.64-1.7,2.45-2.37.76-.63,1.2-1.12,1.1-1.94-.11-.88-.76-1.42-1.72-1.3-.53.07-.9.28-1.13.63-.27.38-.35.87-.27,1.5l-1.62.2c-.12-.95.04-1.66.43-2.29.46-.73,1.33-1.25,2.52-1.39,1.96-.24,3.27.81,3.47,2.41.16,1.32-.51,2.03-1.41,2.81-.84.83-2.06,1.6-2.49,2.57v.06s4.43-.53,4.43-.53l.18,1.43-6.58.8Z"/>
      <rect id="View_3F_C_6_3" style="cursor: pointer; pointer-events: all;" class="cls-1" x="38.06" y="156.15" width="18.28" height="21.05" transform="translate(-19.92 6.98) rotate(-6.99)"/>
      <path d="M47.9,171.74c-1.09.14-1.99-.04-2.71-.46-.75-.48-1.22-1.26-1.36-2.22l1.58-.2c.18,1.07.95,1.73,2.26,1.57,1.07-.14,1.69-.76,1.57-1.77-.12-.95-.88-1.36-2.11-1.21l-.55.07-.15-1.19.52-.07c1.12-.13,1.67-.69,1.57-1.5-.1-.8-.81-1.21-1.7-1.09-1.13.13-1.63.94-1.55,1.84l-1.57.2c-.18-1.66.89-3.04,3-3.3,1.8-.22,3.25.55,3.44,2.09.12.97-.41,1.61-1.28,2.02v.03c1.22.18,1.93.86,2.08,2.03.22,1.81-1.19,2.93-3.04,3.16Z"/>
      <rect id="View_3F_C_6_4" style="cursor: pointer; pointer-events: all;" class="cls-1" x="56.2" y="153.93" width="18.28" height="21.05" transform="translate(-19.52 9.17) rotate(-6.99)"/>
      <path d="M66.78,169.22l-.26-2.09-4.26.52-.18-1.47,3.69-5.99,1.51-.18.7,5.68,1.38-.17.15,1.23-1.38.18.26,2.09-1.61.2ZM63.3,166.31s.8-.15,1.3-.21l1.77-.22-.31-2.55c-.06-.51-.1-1.35-.1-1.35h-.03s-.37.8-.68,1.3l-1.08,1.77c-.31.49-.87,1.25-.87,1.25h0Z"/>
      <rect id="View_3F_C_6_5" style="cursor: pointer; pointer-events: all;" class="cls-1" x="74.34" y="151.7" width="18.28" height="21.05" transform="translate(-19.11 11.36) rotate(-6.99)"/>
      <path d="M84.07,167.3c-1.96.24-3.48-.67-3.79-2.24l1.63-.2c.26.76.91,1.21,1.94,1.08,1.07-.13,1.69-.94,1.56-2.02-.14-1.11-.98-1.68-1.94-1.57-.8.1-1.32.49-1.57.91l-1.57.18.36-4.98,5.12-.63.17,1.36-3.94.49-.21,2.34h.03c.4-.55.96-.88,1.87-1,1.57-.2,3.14.79,3.38,2.69.24,1.94-1.06,3.34-3.03,3.58Z"/>
      <rect id="View_3F_C_6_6" style="cursor: pointer; pointer-events: all;" class="cls-1" x="92.48" y="149.48" width="18.28" height="21.05" transform="translate(-18.71 13.55) rotate(-6.99)"/>
      <path d="M102.48,165.05c-1.13.14-2.03-.15-2.7-.73-.89-.74-1.37-1.89-1.56-3.49-.19-1.4-.02-2.65.54-3.58.53-.84,1.35-1.37,2.56-1.53,1.83-.22,2.97.74,3.34,1.94l-1.61.2c-.16-.51-.67-1.01-1.55-.9-1.42.18-1.92,1.37-1.75,3.4h.03c.44-.9,1.13-1.42,2.16-1.54,1.68-.2,3.23.94,3.46,2.71.23,1.8-1.03,3.31-2.9,3.54ZM102.28,163.8c1.02-.13,1.69-1,1.56-2.05-.13-1.09-1.01-1.75-2.02-1.63-1.12.14-1.79.97-1.66,2.06.13,1.08,1.05,1.74,2.12,1.61Z"/>
      <rect id="View_3F_C_6_7" style="cursor: pointer; pointer-events: all;" class="cls-1" x="110.62" y="147.25" width="18.28" height="21.05" transform="translate(-18.3 15.74) rotate(-6.99)"/>
      <path d="M118.42,162.89c-.23-3.21,1.1-6.31,2.65-7.98v-.03s-.92.17-1.9.29l-2.91.35-.17-1.4,6.44-.8.16,1.29c-1.51,1.81-2.78,4.73-2.51,8.05l-1.75.22Z"/>
      <rect id="View_3F_C_6_8" style="cursor: pointer; pointer-events: all;" class="cls-1" x="128.76" y="145.03" width="18.28" height="21.05" transform="translate(-17.89 17.93) rotate(-6.99)"/>
      <path d="M138.55,160.63c-1.93.24-3.7-.48-3.93-2.31-.14-1.15.48-2.03,1.58-2.51v-.03c-1-.2-1.57-.8-1.68-1.68-.18-1.46,1-2.57,2.86-2.79,1.87-.22,3.27.53,3.45,1.99.11.87-.3,1.6-1.2,2.03v.04c1.21.15,1.99.93,2.13,2.03.23,1.88-1.26,2.99-3.2,3.23ZM137.84,155.05c.99-.13,1.51-.67,1.41-1.46-.1-.77-.74-1.21-1.73-1.08-.99.11-1.52.69-1.43,1.47.1.77.75,1.19,1.74,1.07ZM138.39,159.36c1.14-.14,1.8-.83,1.68-1.78-.12-.98-.9-1.53-2.08-1.39-1.18.15-1.82.87-1.7,1.85.12.97.91,1.47,2.1,1.32Z"/>
    </g>
  </g>
</svg>